<?xml version="1.0" encoding="utf-8"?>
<!-- Generator: Adobe Illustrator 19.0.0, SVG Export Plug-In . SVG Version: 6.00 Build 0)  -->
<svg version="1.1" id="Livello_3" xmlns="http://www.w3.org/2000/svg" xmlns:xlink="http://www.w3.org/1999/xlink" x="0px" y="0px"
	 viewBox="-782 1069 378 247" style="enable-background:new -782 1069 378 247;" xml:space="preserve">
<style type="text/css">
	.st01{fill:#FFFFFF;}
</style>
<g>
	<g id="XMLID_13_">
		<path class="st01" d="M-458.9,1253.5c6.7,2.6,11.2,7.2,12.5,14.6c2,11.7-9.2,22.5-20.9,20c-0.9-0.2-1.7-0.4-2.6-0.6
			c-6.7-2.9-11-7.7-11.8-15.2c-1.3-11.7,9.4-21.3,20.9-19.1C-460.1,1253.4-459.5,1253.4-458.9,1253.5z M-469.3,1285.7
			c2.3,1.1,4.7,1,7.1,0.8c7.3-0.5,13.6-6.9,14.2-14.2c0.7-8-4.2-15-11.6-16.9c-6.5-2.5-16.6,0.9-19.6,10.2
			C-482,1274-477.5,1283.1-469.3,1285.7z"/>
	</g>
	<g id="XMLID_12_">
		<path class="st01" d="M-452,1232c2.4,7.8,0.8,12.4-5.7,17.1c-4.3,1.9-8.6,2.2-12.8-0.2c-4.6-2.6-7.3-7.9-6.6-12.8
			c0.8-5.5,4.7-9.9,9.8-11.2c5.3-1.3,10.8,0.7,14,5.1C-452.9,1230.7-452.5,1231.3-452,1232z M-452.9,1235.3
			c-0.1-0.6-0.3-1.3-0.5-1.9c-1.8-4.7-6.6-7.6-11.8-7.1c-4.6,0.4-8.9,4.2-9.8,8.8c-1.1,5,1.2,10.1,5.7,12.5
			c4.4,2.4,9.6,1.7,13.1-1.9C-453.1,1242.9-452.2,1239.3-452.9,1235.3z"/>
	</g>
	<g id="XMLID_11_">
		<path class="st01" d="M-481.6,1220.8c-0.1,0.5-0.4,1.1-1.1,1.1c-0.8,0.1-1.2-0.4-1.2-1.1c0-0.7,0.4-1.1,1-1.1
			C-482.2,1219.6-481.8,1220.1-481.6,1220.8z"/>
	</g>
	<g id="XMLID_10_">
		<path class="st01" d="M-481.6,1289.5c-0.1,0.7-0.5,1.1-1.1,1c-0.7,0-1.2-0.5-1.1-1.3c0.1-0.7,0.6-0.9,1.2-0.9
			C-482,1288.4-481.7,1288.9-481.6,1289.5z"/>
	</g>
	<g id="XMLID_9_">
		<path class="st01" d="M-566.3,1276.6c-1.1,0.2-1.6-0.2-1.6-1.4c0.1-3.6,0.1-7.2,0-10.8c0-1.3,0.6-1.5,1.6-1.3
			C-566.3,1267.6-566.3,1272.1-566.3,1276.6z"/>
	</g>
	<g id="XMLID_8_">
		<path class="st01" d="M-445.2,1288.3c0.7,0.1,1,0.4,1,1.1c0,0.8-0.5,1.2-1.2,1.1c-0.6-0.1-1.1-0.5-1.1-1.1
			C-446.4,1288.7-445.9,1288.3-445.2,1288.3z"/>
	</g>
	<g id="XMLID_7_">
		<path class="st01" d="M-444.1,1220.8c-0.1,0.7-0.3,1.1-1,1.1c-0.8,0.1-1.3-0.4-1.3-1.1c0-0.7,0.5-1.2,1.3-1.1
			C-444.5,1219.7-444.2,1220.1-444.1,1220.8z"/>
	</g>
	<g id="XMLID_2_">
		<path class="st01" d="M-467.7,1280.8c-6.1-3.2-8.4-8.4-6.3-14c1.7-4.3,5.7-6.9,10.4-6.7c0.8,0.1,1.6,0.1,2.4,0.1
			c4.2,1.8,7.3,4.5,7.7,9.3C-452.7,1277.7-459.3,1282.8-467.7,1280.8z"/>
	</g>
	<g id="XMLID_1_">
		<path class="st01" d="M-456.1,1237.5c0,4.4-3.6,8-8,8c-4.4-0.1-7.9-3.6-7.8-8.1c0.1-4.4,3.5-7.8,7.8-7.8
			C-459.6,1229.6-456.1,1233.1-456.1,1237.5z"/>
	</g>
	<g>
		<path class="st01" d="M-422.9,1292.2c-5.1,0-10.2-0.1-15.3,0.1c-2.1,0-2.7-0.4-2.7-2.6c0.1-23.5,0.1-46.9,0.1-70.4
			c0-1.9-0.5-2.4-2.4-2.4c-16,0.1-32,0.1-48,0c-2.1,0-2.6,0.5-2.6,2.6c0.1,23.2,0.1,46.4,0.1,69.6c0,0.8,0,1.6,0,2.4
			c-1-5.3-1.5-10.6-1.9-15.8c-1.1-15.4-2.4-30.8-3.5-46.2c-0.1-2.1-0.9-2.5-2.8-2.2c-1.7,0.3-3.3,0.3-5.1,0.1
			c-3.4-0.5-6.9-0.5-10.3-0.9c-1.3-0.1-1.6,0.3-1.6,1.6c-0.6,14-1.3,28-2,41.9c-0.3,5.1-0.5,10.2-0.8,15.2c-0.1,0-0.3,0-0.5,0.1
			c-0.2-1.3-0.4-2.7-0.6-4c-2.4-17-4.7-33.9-6.9-50.9c-0.3-2.3-0.7-3.8-3.5-2.8c-0.3,0.1-0.6,0-0.9-0.1c-1.9-0.3-3.8-1.4-5.4,0.7
			c-0.2,0.3-0.9,0.2-1.2-0.3c-1.2-1.8-3-0.9-4.4-0.7c-1.1,0.1-0.5,1.8-0.5,2.8c-0.1,5.1-0.1,10.2,0,15.3c0,1.2-0.2,1.8-1.6,1.8
			c-2.4-0.1-4.9,0-7.3,0.1c-1.3,0.1-1.9-0.5-1.6-1.7c0.5-2.7-0.9-3.1-3.1-2.8c-0.5,0.1-1.1,0.1-1.7,0c-2.3-0.3-3.6,0.3-3.1,2.9
			c0.1,0.8,0.1,1.6-1.1,1.6c-1.2,0-1.3-0.7-1.2-1.6c0.5-2.4-0.6-3.1-2.4-3v-6.4c0.1-0.5,0.2-2.5-1.1-4c-0.9-1.1-2.3-1.6-4.1-1.6
			h-6.4v-0.4c0-0.7-0.5-1.3-1.3-1.3h-4.7c-0.7,0-1.3,0.5-1.3,1.3v0.4h-17.5c0,0,0,0,0,0v-0.9h-6.9v4.7h0.8l-0.5,0.8
			c0,0.1-0.1,0.2,0,0.2c-5.2,0-10.5,0-15.7,0.1c-2.2,0.1-3.2-0.3-3-2.8c0.1-0.8,0.9-2.6-0.7-2.5c-1.6,0-0.7,1.8-0.7,2.6
			c0.3,2.3-0.6,2.8-2.8,2.8c-11.6-0.1-23.1-0.1-34.7-0.1c-0.5,0-1,0-1.5,0c-0.6,0.1-1.4-0.2-1.3,0.9c0,0.9,0.7,0.7,1.2,0.7
			s1,0,1.5,0c10.9,0,21.6,0,32.5,0c1.3,0,2.6,0,3.9,0c0.7,0,1.1,0.1,1.1,0.9c0.1,0.7-0.3,0.9-1,0.9c-0.5,0-1.1,0-1.7,0
			c-11.3,0-22.4,0-33.7,0c-4.6,0-4.4,0-4.7,4.5c-0.1,2.2,0.6,2.6,2.7,2.6c11.8-0.1,23.6-0.1,35.4,0c0.9,0,2.8-0.5,2.7,0.5
			c-0.1,1.4-1.9,0.7-2.8,0.7c-17.6,0.1-35.3,0-52.9,0c-1.1,0-2.4-0.5-2.4,1.6c0.1,13.3,0.1,26.5,0,39.8c0,1.3,0.4,1.8,1.7,1.7
			c3.1-0.1,6.3-0.1,9.4-0.1c0.8,0,2-0.4,1.9,1.1c-0.1,1.2-1.1,0.9-1.9,0.9c-4.3,0-8.7-0.1-13.1,0.1c-2.1,0.1-2.7-0.5-2.7-2.6
			c0.1-23.4,0-46.7,0.1-70.1c0-2-0.4-2.6-2.5-2.6c-16,0.1-32,0.2-48,0.1c-2,0-2.6,0.5-2.6,2.6c0.1,23.3,0,46.6,0.1,69.8
			c0,2.2-0.5,2.8-2.8,2.8c-4.3-0.2-8.7-0.1-13.1-0.1c-0.9,0-1.7,0.1-1.7,1.2s0.8,1.3,1.7,1.3c0.5,0,1,0,1.5,0c21.8,0,43.7,0,65.5,0
			c12.1,0,24.3,0.1,36.4,0c1.1,0,2.9,0.6,2.9-1.1c0-2.1-1.9-1.2-3-1.3c-2.2-0.1-4.2,0-6.3-0.1c-0.8,0-2.2,0.7-2.2-1
			c0.1-1.7,1.4-0.7,2.2-0.9c0.2-0.1,0.5,0,0.7,0c33.1,0,66.1,0,99.2,0c0.5,0,1.1,0,1.7,0c0.7,0.1,1.5-0.1,1.5,1
			c0,1.1-0.9,0.9-1.6,0.9c-2.6,0-5.2,0-7.8,0c-0.9,0-1.6,0.2-1.6,1.3c0.1,1.1,0.7,1.3,1.7,1.3c0.7,0,1.3,0,2,0
			c44.2,0,88.3,0,132.5,0c5.1,0,10.3,0,15.5,0c1,0,2.4,0.2,2.4-1.3C-420.6,1291.8-422,1292.2-422.9,1292.2z M-699.4,1292.3
			c-8.5-0.2-17-0.1-25.5-0.2c-4.2,0-8.6,0-12.8,0.1c-1.8,0-1.4-1.1-1.4-2.1c0-12.7,0-25.3,0-38c0-10.4,0-20.8,0-31.3
			c0-1.1-0.1-1.9,1.6-1.9c12,0.1,24.1,0.1,36.1,0.1c4.6-0.2,4.6-0.2,4.6,4.4c0,22.1-0.1,44.2,0.1,66.3
			C-696.8,1291.8-697.4,1292.4-699.4,1292.3z M-547.5,1284.5c-1.6-0.1-1.3-1.1-1.3-2c0-9.2,0-18.4,0-27.6c0-0.9-0.4-2,1.2-2.1
			c1.8,0,1.4,1.1,1.4,2.2c0,4.7,0,9.2,0,13.8s0,9.2,0,13.8C-546.2,1283.5-546,1284.5-547.5,1284.5z M-546.3,1287.4
			c-0.1,0.9-0.7,0.9-1.4,0.9c-0.7,0-1.2-0.3-1.1-1.1c0.1-0.9,0.9-0.7,1.5-0.7C-546.6,1286.4-546.2,1286.6-546.3,1287.4z
			 M-547.3,1249.1c0.7-0.1,1,0.3,1,1c0,1-0.7,0.9-1.4,0.9c-0.6,0-1.1-0.1-1.1-0.9C-548.9,1249-548.1,1249.1-547.3,1249.1z
			 M-559.8,1244.4c1.1-0.1,2.2-0.3,2.2,1.6c-0.1,1.9-1.3,1.1-2.2,1.3c-0.9-0.2-2.3,0.6-2.3-1.5
			C-562.1,1243.8-560.9,1244.4-559.8,1244.4z M-567.9,1245.8c0,2-1.3,1.2-2.3,1.4c-0.9-0.2-2.2,0.5-2.2-1.3c0-1.9,1.1-1.6,2.2-1.6
			C-569.2,1244.4-567.9,1243.9-567.9,1245.8z M-570.3,1242.8c-0.1,0-0.2,0-0.3,0C-570.5,1242.8-570.4,1242.8-570.3,1242.8z
			 M-629.8,1237.1c0.7-0.1,1.3-0.1,2-0.1c11.7,0,23.3,0,34.9,0c0.7,0,1.3,0,2,0c0.5,0,0.7-0.3,0.7-0.8s-0.2-0.7-0.7-0.7
			c-0.5,0-1.1,0-1.7,0c-6.3,0-12.6,0-19,0l0.5-1h5.9v-1.1c0,0,0,0,0,0h17.5v0.3c0,0.7,0.5,1.3,1.3,1.3h4.7c0.7,0,1.3-0.6,1.3-1.3
			v-0.3h6.4c1,0,1.7,0.2,2.1,0.7c0.7,0.7,0.5,1.9,0.5,1.9l0,6.7c-2.1-0.3-3.1,0.5-2.7,2.9c0.1,0.7,0.3,1.6-1.1,1.7
			c-1.3,0-1.4-0.9-1.3-1.8c0.5-2.4-0.7-3.1-2.9-2.8c-0.8,0.1-1.6,0.1-2.4,0c-2-0.3-2.8,0.5-2.5,2.5c0.2,1,0.3,2-1.4,2
			c-14.4-0.1-28.8-0.1-43.2-0.1c-0.5,0-1.3,0.2-1.3-0.5c0-1,0.9-0.6,1.5-0.7c0.5-0.1,1,0,1.5,0c11.1,0,22.2,0,33.2,0
			c4.8,0,4.7,0,4.8-4.9c0-1.8-0.4-2.3-2.3-2.3c-12.1,0.1-24.1,0.1-36.1,0.1c-0.7,0-1.3,0-2,0c-0.5,0-0.7-0.3-0.7-0.7
			C-630.5,1237.7-630.4,1237.2-629.8,1237.1z M-578.1,1245.8c0.1,2-1.3,1.3-2.2,1.5c-1.1-0.1-2.4,0.5-2.4-1.5c0.1-2,1.4-1.3,2.4-1.3
			C-579.2,1244.4-578.1,1244-578.1,1245.8z M-669,1244.2c-1.3,0-2.3,0.1-2.3-1.8c0-2,1.1-1.8,2.4-1.8c25.2,0,50.4,0,75.6,0
			c1.3,0,2.3-0.1,2.3,1.8c0,2.1-1.1,1.8-2.4,1.8c-12.7,0-25.4,0-38.1,0C-644,1244.2-656.5,1244.2-669,1244.2z M-683,1249.1
			c0.4,0,0.8,0,1.2,0c38.6,0,77.3,0,116,0c0.5,0,0.9,0.1,1.4,0.1c4.1-0.1,8.2-0.1,12.3-0.1c0.7,0,1.6-0.3,1.6,0.9
			c0.1,1.4-0.9,1.1-1.7,1.1c-4.3,0-8.7-0.1-13-0.1c-0.9,0.1-1.8,0.1-2.6,0.1c-37.8,0-75.7,0-113.5,0c-0.5,0-1.1,0-1.7,0
			c-0.6,0-1.1-0.1-1.1-0.9C-684.2,1249.3-683.8,1249.1-683,1249.1z M-687.1,1288.2c-0.7,0.1-1.1-0.2-1.1-1.1c0-0.9,0.5-0.9,1.1-0.9
			c0.6,0,1.3-0.1,1.3,0.9C-685.9,1288.2-686.4,1288.3-687.1,1288.2z M-687.2,1284.5c-1.5,0-1.1-1-1.1-1.8c0-9.4,0-18.7,0-28.1
			c0-0.9-0.3-1.8,1.2-1.8c1.4,0,1.3,0.9,1.3,1.8c0,4.8,0,9.5,0,14.3c0,4.7,0,9.2,0,13.8C-685.9,1283.5-685.6,1284.6-687.2,1284.5z
			 M-687.1,1251c-0.7,0-1.2,0-1.2-0.9c0-0.9,0.5-1,1.2-1c0.7,0.1,1.3,0.1,1.2,1C-685.7,1251-686.3,1251.1-687.1,1251z M-684.2,1255
			c0-1.4,0.1-2.2,1.9-2.2c38.3,0.1,76.7,0.1,114.9,0.1c0.3,0,0.6,0.1,0.9,0.1c4.8,0,9.5,0,14.2-0.1c1.4,0,1.8,0.5,1.8,1.8
			c-0.1,9.4-0.1,18.7,0,28.1c0.1,1.3-0.4,1.8-1.8,1.8c-10.7-0.1-21.4-0.1-32.2-0.1c-0.8,0.1-1.6,0.1-2.4,0.1
			c-31.6,0-63.2,0-94.8,0.1c-2.2,0-2.6-0.6-2.6-2.7C-684.2,1272.9-684.2,1264-684.2,1255z M-586.5,1288.2c-0.9,0.1-1.8,0.1-2.7,0.1
			c-30.7,0-61.4,0-92.2,0c-0.7,0-1.3,0-2,0c-0.6-0.1-0.8-0.4-0.9-0.9c-0.1-0.7,0.3-1,1-1c0.4,0,0.8,0,1.2,0c31.6,0,63,0,94.6,0
			c0.5,0,1.1,0.1,1.7,0.1c11.3,0,22.4-0.1,33.6-0.1c0.6,0,1.6-0.3,1.6,0.9c0.1,1.1-0.7,1-1.5,1
			C-563.5,1288.2-575,1288.2-586.5,1288.2z M-546.6,1292.2c-1.2,0-2.4,0-3.6,0s-2.4,0-3.6,0c-0.8,0-1.1-0.3-1.1-1.1
			c0-0.7,0.5-0.9,1.1-0.9c2.4,0.1,4.9,0.1,7.3,0.1c0.5,0,0.9,0.1,0.9,0.8S-545.8,1292.2-546.6,1292.2z M-542.5,1231.3
			c0,19.5,0,38.9,0,58.4c0,0.4,0,0.8,0,1.2c-0.1,0.6,0.1,1.4-0.9,1.3c-0.9-0.1-0.6-0.9-0.6-1.3c0-5.3,0-10.7,0-16
			c0-4.9,0-9.7,0-14.6c0-9.7,0-19.4,0.1-29c0-0.5,0-1.1,0-1.7c0-0.5,0.3-0.7,0.7-0.7s0.7,0.3,0.7,0.7
			C-542.5,1230.1-542.5,1230.7-542.5,1231.3z M-536.5,1292.1c-1.4,0.1-0.9-1.3-0.9-2c0-19.8,0-39.6,0-59.4c0-0.7-0.5-1.9,0.8-1.9
			c1.3,0,0.7,1.2,0.7,1.9c0,9.9,0,19.9,0,29.8s0,19.8-0.1,29.7C-535.9,1290.8-535.4,1292-536.5,1292.1z M-528.3,1292.2
			c-6.1-0.1-6.1,0-6.1-6c0-16.9,0-33.9,0-50.8c0.1-0.1,0.3-0.1,0.4-0.1c0.7,4.6,1.3,9.2,2,13.8c1.9,13.6,3.7,27.2,5.7,40.7
			C-526.1,1291.6-526.3,1292.2-528.3,1292.2z M-523.6,1292.3c-1.1,0.1-1-0.7-1.1-1.5c-2.7-19.7-5.5-39.3-8.2-59
			c-0.1-0.3-0.1-0.7-0.1-1c0.1-0.6-0.5-1.6,0.7-1.6c1.1,0,0.9,1.1,0.9,1.7c1.1,7.3,2.1,14.7,3.1,22c1.7,12.6,3.4,25.1,5.1,37.7
			C-523,1291.2-522.4,1292.2-523.6,1292.3z M-518.5,1288.6c-0.1,0.7-0.1,1.4-0.1,2.2c0,0.7-0.4,1-1.1,0.9c-0.7-0.1-0.6-0.6-0.6-1.1
			c0-1.6,0.1-3,0.1-4.6c0.9-18.7,1.9-37.4,2.8-56.1c0-0.6-0.6-1.8,0.8-1.8c1.4,0,1,1.1,0.9,1.8c-0.5,9.9-1,19.8-1.6,32
			C-517.6,1269.4-518,1279.1-518.5,1288.6z M-516.1,1292.2c-1.2-0.1-0.9-0.9-0.9-1.6c0.3-6.3,0.6-12.6,0.9-18.9
			c0.3-5.2,0.5-10.4,0.8-15.9c0.7,0.9,0.5,1.7,0.5,2.4c0,10.5,0,21.1,0,31.7c0,0.3,0,0.5,0,0.7
			C-514.8,1291.5-514.9,1292.3-516.1,1292.2z M-509.2,1292.7c-1.3,0.1-0.9-1.1-0.9-1.8c0-3.2,0-6.5,0-9.7c0-6.8,0-13.6,0-20.4
			c0-9.8,0-19.6,0-29.3c0-0.5,0-1.1,0-1.7c0-0.5,0.3-0.7,0.7-0.7c0.4,0,0.8,0.1,0.9,0.6c0.1,0.7,0.1,1.3,0.1,2c0,19.5,0,39,0,58.4
			c0,0.3,0.1,0.5,0,0.7C-508.5,1291.5-507.9,1292.6-509.2,1292.7z M-500.5,1292.1c-1.1-0.1-2.9,1-2.9-1.6
			c0.1-15.7,0.1-31.3,0.1-47.1c0-0.1,0.1-0.3,0.4-1.1c0.7,8.9,1.3,17.1,2,25.3c0.6,7.5,1.1,15,1.8,22.4
			C-499.1,1291.2-498.8,1292.4-500.5,1292.1z M-445.4,1292.3c-8.7-0.2-17.3-0.1-26-0.2c-4.1,0-8.2,0-12.3,0.1
			c-1.8,0-1.4-1.1-1.4-2.2c0-8,0-16,0-24c0-14.9,0-29.9,0-44.8c0-1-0.5-2.3,1.5-2.3c11.9,0.1,23.8,0.1,35.7,0.1
			c5.2-0.3,5.2-0.3,5.2,4.9c0,21.8,0,43.8,0.1,65.7C-442.7,1291.7-443.2,1292.4-445.4,1292.3z"/>
		<g id="XMLID_31_">
			<path class="st01" d="M-598.6,1294.4c-6.7,0-13.4,0-20.1,0c-0.8,0-2,0.4-2.1-0.9c-0.1-1.5,1.2-1.2,2.2-1.2c13.4,0,26.8,0,40.2,0
				c0.9,0,2.2-0.3,2.2,1.2c-0.1,1.2-1.3,0.9-2.2,0.9C-585.3,1294.4-591.9,1294.4-598.6,1294.4z"/>
		</g>
		<g id="XMLID_30_">
			<path class="st01" d="M-643.3,1294.4c-2.8,0-5.7,0-8.5,0c-0.8,0-2,0.3-2-1.1c0.1-1.1,1.1-1,1.8-1c5.7,0,11.5,0,17.3,0
				c0.8,0,1.8-0.1,1.8,1c0.1,1.4-1.1,1.1-2,1.1C-637.6,1294.4-640.5,1294.4-643.3,1294.4z"/>
		</g>
		<g id="XMLID_29_">
			<path class="st01" d="M-627.3,1294.4c-0.9-0.1-2.4,0.3-2.4-1c-0.1-1.6,1.4-1.1,2.4-1.1c0.9,0,2.2-0.4,2.2,1.1
				C-625.2,1294.9-626.5,1294.2-627.3,1294.4z"/>
		</g>
		<g id="XMLID_28_">
			<path class="st01" d="M-617.6,1263.9c5.7,0,11.3,0.1,17-0.1c2.1-0.1,2,1.1,1.9,2.4c-0.1,1.3,0.5,2.7-1.9,2.7
				c-11.4-0.1-22.8-0.1-34.2,0c-2,0-2-1-1.9-2.4c0.1-1.3-0.5-2.8,1.9-2.7C-629.1,1264-623.4,1263.9-617.6,1263.9z"/>
		</g>
		<g id="XMLID_27_">
			<path class="st01" d="M-656.7,1281c-1.1,0.3-1.8,0.1-1.8-1.3c0.1-6.5,0.1-13.1,0-19.6c0-1.4,0.6-1.7,1.8-1.3
				C-656.7,1266.1-656.7,1273.5-656.7,1281z"/>
		</g>
		<g id="XMLID_26_">
			<path class="st01" d="M-660.6,1281c-1.3,0.3-1.8-0.1-1.8-1.6c0.1-6.4,0.1-12.8,0-19.2c0-1.4,0.5-2,1.8-1.5
				C-660.6,1266.1-660.6,1273.5-660.6,1281z"/>
		</g>
		<g id="XMLID_25_">
			<path class="st01" d="M-666.5,1269.8c0-1.9,0-3.7,0-5.6c0-0.6-0.1-1.1,0.8-1.2c0.7,0,1.3,0.2,1.3,1.1c0,3.8,0,7.6,0,11.4
				c0,0.7-0.5,1.1-1.3,1.1c-0.8-0.1-0.8-0.7-0.8-1.2C-666.5,1273.5-666.5,1271.7-666.5,1269.8z"/>
		</g>
		<g id="XMLID_24_">
			<path class="st01" d="M-570.2,1281c-1.7,0.3-1.6-0.7-1.6-1.8c0-5.5-0.1-11.1-0.1-16.6c0-1.1,0.1-2.1,0.1-3.2
				c0-0.4,0.1-0.8,0.7-0.8c0.6-0.1,0.9,0.2,0.9,0.8c0,0.3,0,0.7,0,0.9C-570.2,1267.3-570.2,1274.2-570.2,1281z"/>
		</g>
		<g id="XMLID_23_">
			<path class="st01" d="M-574.1,1258.7c0,6.8,0,13.6,0,20.4c0,0.7,0.5,1.9-0.7,2c-1.3,0.1-0.8-1.1-0.8-1.8c-0.1-3.2-0.1-6.5-0.1-9.7
				c0.1-3.1,0.1-6.2,0.1-9.3C-575.7,1259-575.5,1258.2-574.1,1258.7z"/>
		</g>
		<g id="XMLID_22_">
			<path class="st01" d="M-602.1,1275.9c0,1.9-2,3.7-4,3.8c-2.1,0.1-3.9-1.8-3.8-3.8c0.1-2,1.8-3.6,3.8-3.6
				C-604.1,1272.2-602.2,1274-602.1,1275.9z M-606.6,1278.3c1.9,0,2.8-0.9,2.8-2.4c0.1-1.6-1-2.4-2.4-2.4c-1.4-0.1-2.5,0.7-2.4,2.3
				C-608.5,1277.1-608,1278.3-606.6,1278.3z"/>
		</g>
		<g id="XMLID_21_">
			<path class="st01" d="M-618.2,1272.2c2.3,0,3.8,1.6,3.8,3.8c-0.1,2.1-1.8,3.7-4,3.6c-2-0.1-3.6-1.9-3.6-3.8
				C-622,1273.7-620.3,1272.2-618.2,1272.2z M-618.7,1278.3c1.8,0,2.7-0.7,2.8-2.3c0.1-1.6-0.9-2.4-2.4-2.5
				c-1.6-0.1-2.4,1.1-2.4,2.5C-620.7,1277.2-620.1,1278.3-618.7,1278.3z"/>
		</g>
		<g id="XMLID_20_">
			<path class="st01" d="M-626.6,1275.8c0,2.2-1.6,3.8-3.8,3.8c-2,0-3.7-1.7-3.8-3.6c-0.1-2,1.6-3.7,3.6-3.8
				C-628.3,1272.1-626.7,1273.7-626.6,1275.8z M-630.9,1278.3c1.9-0.1,2.8-0.8,2.8-2.4c0-1.6-1-2.4-2.4-2.4
				c-1.4-0.1-2.3,1.1-2.2,2.3C-632.7,1276.9-632.5,1278.5-630.9,1278.3z"/>
		</g>
		<g id="XMLID_19_">
			<path class="st01" d="M-652.8,1276.6c-1.3,0.3-1.8-0.1-1.8-1.4c0.1-3.5,0.1-7,0-10.6c0-1.3,0.5-1.7,1.8-1.4
				C-652.8,1267.6-652.8,1272.1-652.8,1276.6z"/>
		</g>
		<g id="XMLID_18_">
			<path class="st01" d="M-578.1,1263.2c0,3.9-0.1,7.9,0.1,11.8c0,1.4-0.5,2-1.8,1.6c0-4,0.1-7.9-0.1-11.9
				C-580,1263.3-579.5,1262.8-578.1,1263.2z"/>
		</g>
		<g id="XMLID_17_">
			<path class="st01" d="M-712.6,1253.8c12.1,4.2,15.4,17.7,9.4,26.6c-4.2,6.3-11.5,9.2-18.9,7.6c-0.5-0.1-0.9-0.1-1.4-0.2
				c-5.8-2.4-10.1-6.3-11.7-12.6c-3.2-12.7,7.6-24.2,20.6-21.8C-714,1253.5-713.3,1253.7-712.6,1253.8z M-713.2,1255.5
				c-8.7-3-18.4,2.4-20.5,11.5c-2,8.3,3.3,17.3,10.9,18.9c1.6,0.9,3.2,0.9,4.9,0.9c7.6-0.1,14.4-5.9,15.6-13
				C-701,1265.4-705.3,1258.2-713.2,1255.5z"/>
		</g>
		<g id="XMLID_16_">
			<path class="st01" d="M-705.8,1232.7c1.9,6.5,0.5,12.1-5.3,16.1c-5,2.6-9.9,2.8-14.6-0.5c-4.4-3-6.5-8.6-5.1-13.7
				c1.4-5.2,4.8-8.6,10-9.7c5.4-1.1,10.7,1.2,13.6,5.7C-706.6,1231.3-706.2,1232-705.8,1232.7z M-707,1236
				c-0.8-5.4-5.1-9.4-10.4-9.7c-5.4-0.3-10.2,3.1-11.7,8.3c-1.5,5.2,0.9,10.6,5.7,13.1c4.9,2.5,10.3,1.4,13.8-2.8
				C-707.2,1242.4-706.3,1239.4-707,1236z"/>
		</g>
		<g id="XMLID_15_">
			<path class="st01" d="M-735.8,1289.4c-0.1,0.9-0.5,1.3-1.1,1.2c-0.7,0-1.2-0.5-1.1-1.2c0.1-0.7,0.6-1.1,1.3-1
				C-736.1,1288.5-735.8,1288.9-735.8,1289.4z"/>
		</g>
		<g id="XMLID_14_">
			<path class="st01" d="M-735.8,1220.9c-0.1,0.7-0.5,1.1-1.2,1.1c-0.7-0.1-1-0.5-1-1.1c0-0.7,0.5-1.1,1.3-1.1
				C-736.2,1219.8-735.7,1220.2-735.8,1220.9z"/>
		</g>
		<g id="XMLID_6_">
			<path class="st01" d="M-699.3,1222c-0.7,0-1.1-0.3-1.1-0.9c-0.1-0.7,0.3-1.3,1.1-1.3c0.7,0,1.2,0.5,1.1,1.2
				C-698.2,1221.6-698.6,1221.9-699.3,1222z"/>
		</g>
		<g id="XMLID_5_">
			<path class="st01" d="M-698.1,1289.5c-0.2,0.7-0.5,1.2-1.3,1.1c-0.6-0.1-0.9-0.5-0.9-1.1c0-0.8,0.5-1.1,1.2-1.1
				C-698.5,1288.4-698.3,1288.9-698.1,1289.5z"/>
		</g>
		<g id="XMLID_4_">
			<path class="st01" d="M-714.8,1260.5c8.4,3.2,9.1,12.3,5,17.1c-3.1,3.6-7.1,4.4-11.6,3.4c-4.5-2.1-7.3-5.4-7.3-10.6
				C-728.7,1265-723.8,1258.5-714.8,1260.5z"/>
		</g>
		<g id="XMLID_3_">
			<path class="st01" d="M-710.1,1237.7c0,4.4-3.8,8-8.1,8c-4.3-0.1-8-3.8-7.8-8.2c0.1-4.2,3.6-7.8,8-7.8S-710.1,1233.3-710.1,1237.7
				z"/>
		</g>
		<g>
			<path class="st01" d="M-691.6,1182.1h-40c-5.7,0-10.4-4.2-10.4-9.8c0-4.4,1.8-8,5-11.7l42.3-49.1c4-4.7,7.1-7.2,13.3-7.2
				c5.7,0,10.3,4.4,10.3,10.2v50.4h5.1c4.9,0,8.8,3.9,8.8,8.8c0,4.9-3.9,8.6-8.8,8.6h-5.1v11.7c0,5.7-4.6,10.2-10.3,10.2
				c-5.7,0-10.2-4.4-10.2-10.2L-691.6,1182.1L-691.6,1182.1z M-691.6,1164.7v-30.3l-25.9,30.3H-691.6z"/>
			<path class="st01" d="M-494.2,1182.1h-40c-5.7,0-10.4-4.2-10.4-9.8c0-4.4,1.8-8,5-11.7l42.3-49.1c4-4.7,7.1-7.2,13.3-7.2
				c5.7,0,10.3,4.4,10.3,10.2v50.4h5.1c4.9,0,8.8,3.9,8.8,8.8c0,4.9-3.9,8.6-8.8,8.6h-5.1v11.7c0,5.7-4.6,10.2-10.3,10.2
				s-10.2-4.4-10.2-10.2L-494.2,1182.1L-494.2,1182.1z M-494.2,1164.7v-30.3l-25.9,30.3H-494.2z"/>
		</g>
		<path class="st01" d="M-600.8,1101.4c-28.6,0-51.8,23.2-51.8,51.8c0,28.6,23.2,51.8,51.8,51.8c28.6,0,51.8-23.2,51.8-51.8
			C-549,1124.6-572.2,1101.4-600.8,1101.4z M-622.3,1133.9c3.9,0,7.1,3.2,7.1,7.1s-3.2,7.1-7.1,7.1s-7.1-3.2-7.1-7.1
			S-626.2,1133.9-622.3,1133.9z M-577.6,1185.1c-2.4,0-4.4-2-4.4-4.4c0-10.4-8.4-18.8-18.8-18.8s-18.8,8.4-18.8,18.8
			c0,2.4-2,4.4-4.4,4.4c-2.4,0-4.4-2-4.4-4.4c0-15.2,12.3-27.6,27.6-27.6c15.2,0,27.6,12.3,27.6,27.6
			C-573.3,1183.2-575.2,1185.1-577.6,1185.1z M-580.2,1148.1c-3.9,0-7.1-3.2-7.1-7.1s3.2-7.1,7.1-7.1s7.1,3.2,7.1,7.1
			S-576.3,1148.1-580.2,1148.1z"/>
	</g>
</g>
</svg>
