<?xml version="1.0" encoding="utf-8"?>
<!-- Generator: Adobe Illustrator 19.0.0, SVG Export Plug-In . SVG Version: 6.00 Build 0)  -->
<svg version="1.1" id="Layer_1" xmlns="http://www.w3.org/2000/svg" xmlns:xlink="http://www.w3.org/1999/xlink" x="0px" y="0px"
	 viewBox="-86 -37.9 565.4 216.6" style="enable-background:new -86 -37.9 565.4 216.6;" xml:space="preserve">
<style type="text/css">
	.st0{fill:#DA232E;}
</style>
<g transform="translate(54.3,24.6)">
	<path class="st0" d="M191.3-5.6c-0.2,0-0.3,0-0.5-0.1C191-5.6,191.2-5.6,191.3-5.6z"/>
	<path class="st0" d="M-58.7-37.9H-86V98.8h32.1c16.8,0,28.5-5,35.2-14.9c6.7-9.9,10-28,10-54.1c0-25.7-3.3-43.4-10-53.1
		C-25.4-33-38.7-37.9-58.7-37.9z M-40.7,77.1c-2.4,4.6-6.7,6.8-12.9,6.8h-4.9V-22.9h4.9c6.3,0,10.6,3.9,13,11.6S-37,10.6-37,31.2
		C-37.1,57.2-38.3,72.5-40.7,77.1z"/>
	<rect x="-3.4" y="-37.8" class="st0" width="25.8" height="23.9"/>
	<rect x="-3.4" y="-5.9" class="st0" width="25.8" height="104.7"/>
	<path class="st0" d="M65.7,39.7C57.5,32.5,52.6,27.6,51,24.9c-1.6-2.7-2.4-5.4-2.4-8.3c0-2.4,0.7-4.2,2.1-5.5
		c1.4-1.3,3.1-1.9,5.2-1.9c2.5,0,4.4,1,5.8,2.9c1.4,1.9,2.1,4.5,2.1,7.6h20.6c0-8.6-2.5-15.3-7.4-20s-12-7-21.3-7
		C47-7.3,40-5,34.7-0.5c-5.3,4.6-8,10.7-8,18.4c0,7.4,1.1,13.6,3.2,18.6s7.1,10.9,15,17.8c6.2,5.3,10.7,9.5,13.4,12.4
		c2.7,2.9,4.1,5.6,4.1,8.1c0,2.7-0.6,4.7-1.9,6.1c-1.3,1.4-3.2,2-5.8,2c-2.7,0-4.7-0.9-6.1-2.6c-1.4-1.7-2.1-4.5-2.1-8.3H25.6
		c0,9.2,2.5,16.2,7.5,20.8s12.4,6.9,22.3,6.9c9.2,0,16.4-2.5,21.7-7.4c5.3-4.9,7.9-11.8,7.9-20.7c0-5.7-1.4-10.9-4.2-15.5
		S73,46.1,65.7,39.7z"/>
	<path class="st0" d="M366.6,56.2c-2.8-4.6-7.8-10.1-15-16.4c-8.2-7.2-13.1-12.1-14.7-14.8s-2.4-5.4-2.4-8.3c0-2.4,0.7-4.2,2.1-5.5
		s3.1-1.9,5.2-1.9c2.5,0,4.4,1,5.8,2.9s2.1,4.5,2.1,7.6h20.6c0-8.6-2.5-15.3-7.4-20s-12-7-21.3-7c-8.7,0-15.7,2.3-21,6.8
		c-5.3,4.6-8,10.7-8,18.4c0,7.4,1.1,13.6,3.2,18.6s7.1,10.9,15,17.8c6.2,5.3,10.7,9.5,13.4,12.4c2.7,2.9,4.1,5.6,4.1,8.1
		c0,2.7-0.6,4.7-2,6.1c-1.3,1.4-3.2,2-5.8,2c-2.7,0-4.7-0.9-6.1-2.6s-2.1-4.5-2.1-8.3h-20.9c0,9.2,2.5,16.2,7.5,20.8
		s12.4,6.9,22.3,6.9c9.2,0,16.4-2.5,21.7-7.4c5.3-4.9,7.9-11.8,7.9-20.7C370.7,65.9,369.3,60.8,366.6,56.2z"/>
	<path class="st0" d="M139,72.8h-9.7c-0.4,4.5-1.1,7.4-2.2,8.8c-1.1,1.4-2.8,2-5.1,2c-3.7,0-6.1-2.2-7.1-6.5
		c-1.1-4.3-1.6-14.6-1.6-30.9c0-14.1,0.5-23.8,1.4-29.2s3.3-8.1,7-8.1c2.2,0,3.8,0.9,4.7,2.8c0.9,1.9,1.4,6,1.4,12.4h11.3
		c2.5-5.2,5.6-10,9.5-14.2c-1.2-3.7-3.1-6.9-5.5-9.4c-5-5.2-12.2-7.8-21.5-7.8c-11.7,0-20.5,4.5-26.3,13.5s-8.7,22.3-8.7,40
		c0,17.8,2.8,31.2,8.4,40.1c5.6,9,13.8,13.5,24.7,13.5c9.6,0,16.8-2.2,21.6-6.6c2.4-2.2,4.1-4.9,5.3-8.3
		C143.6,81.2,141.1,77.1,139,72.8z"/>
	<path class="st0" d="M248.9,48.6c0,10.2-2.6,19.7-7.3,28c1.6,5.9,3.9,10.4,6.9,13.6c4.1,4.2,9.8,6.3,17.1,6.3
		c4.3,0,8.1-0.6,11.3-1.7c3.2-1.1,5.4-2.6,6.5-4.4c0.1,1,0.2,2,0.2,2.8c0.1,0.8,0.1,1.6,0.1,2.3c0,5.5-1.2,9.6-3.7,12.4
		c-2.5,2.8-6.3,4.3-11.5,4.3c-3.4,0-7.2-0.4-11.3-1.2c-4.1-0.8-7.5-1.7-10.1-2.9l-3.2,14.3c3.9,1.8,8.2,3.1,13,4s9.5,1.3,14.1,1.3
		c11.2,0,20-2.8,26.6-8.4c6.5-5.6,9.8-13.5,9.8-23.7V-5.9h-25.7v2.5c-2.3-1.4-4.6-2.4-6.9-3c-2.3-0.6-5-0.9-8.1-0.9
		c-6.3,0-11.6,1.9-15.9,5.8c-4.4,3.9-7.5,9.3-9.4,16.1c-0.3,1.2-0.7,2.6-1,4.3C245.8,27.6,248.8,37.7,248.9,48.6 M281.9,79.4
		c-1.1,0.9-2.2,1.5-3.3,1.9c-1.1,0.4-2.6,0.6-4.4,0.6c-2.4,0-4.2-0.7-5.5-2.1s-2.1-3.7-2.4-6.9c-0.3-3.3-0.6-7.5-0.8-12.5
		c-0.2-5-0.3-10.3-0.3-15.9c0-3.6,0.1-7.6,0.3-12.3c0.2-4.6,0.5-8.9,0.9-12.9c0.4-3.9,1.2-6.5,2.6-7.9s3.5-2.1,6.3-2.1
		c1,0,2.2,0.2,3.5,0.4c1.3,0.3,2.4,0.7,3.1,1.1L281.9,79.4L281.9,79.4z"/>
	<g>
		<path class="st0" d="M163.6,48.5c0,7.9,3.3,14.9,8.5,20l5.2-5.7c0,0,0,0,0.1,0.1c-3.8-3.6-6.1-8.7-6.1-14.4
			c0-11.1,9-20.1,20.1-20.1c3.7,0,7.1,1,10,2.7l3.7-6.8c-4.1-2.3-8.7-3.6-13.7-3.6C176.1,20.7,163.6,33.2,163.6,48.5z"/>
		<path class="st0" d="M211.4,48.5c0,11.1-9,20.1-20,20.1c-3.4,0-6.5-0.8-9.3-2.3l0,0l-3.8,6.7c3.9,2.1,8.4,3.3,13.1,3.3
			c15.3,0,27.8-12.5,27.8-27.8c0-7.6-3.1-14.5-8-19.5l-5.3,5.7C209.3,38.3,211.4,43.1,211.4,48.5z"/>
		<path class="st0" d="M154.8,48.5c0,10.4,4.4,19.8,11.4,26.5l5.3-5.7c-5.5-5.2-8.9-12.6-8.9-20.7c0-15.9,12.9-28.8,28.8-28.8
			c5.2,0,10,1.4,14.2,3.8l3.8-6.8c-5.3-3-11.4-4.7-18-4.7C171.2,11.9,154.8,28.3,154.8,48.5z"/>
		<path class="st0" d="M220.1,48.5c0,15.9-12.9,28.8-28.8,28.8c-4.9,0-9.5-1.2-13.6-3.4l-3.8,6.8c5.2,2.8,11.1,4.4,17.4,4.4
			c20.2,0,36.6-16.4,36.6-36.6c0-10.1-4.1-19.3-10.8-25.9l-5.3,5.7C217,33.5,220.1,40.6,220.1,48.5z"/>
		<path class="st0" d="M228.9,48.5c0,20.7-16.9,37.6-37.6,37.6c-6.5,0-12.6-1.6-17.9-4.5l-3.9,6.9c6.5,3.5,13.9,5.6,21.8,5.6
			c25.1,0,45.4-20.4,45.4-45.4c0-12.7-5.2-24.2-13.6-32.4l-5.3,5.8C224.7,28.6,228.9,38.1,228.9,48.5z"/>
		<path class="st0" d="M145.9,48.5c0,13,5.5,24.7,14.2,33l5.3-5.8c-7.2-6.8-11.7-16.5-11.7-27.2c0-20.7,16.9-37.6,37.6-37.6
			c6.7,0,13,1.8,18.4,4.9l3.8-6.9c-6.6-3.7-14.2-5.8-22.2-5.8C166.3,3,145.9,23.4,145.9,48.5z"/>
		<path class="st0" d="M229.1,9.7l-5.2,5.6c8.6,8.4,14,20.2,14,33.1c0,25.6-20.8,46.4-46.4,46.4c-8.1,0-15.6-2.1-22.2-5.7l-3.9,6.9
			c7.7,4.2,16.6,6.7,26,6.7c29.9,0,54.2-24.3,54.2-54.2C245.5,33.3,239.2,19.6,229.1,9.7z"/>
		<path class="st0" d="M144.9,48.5c0-25.6,20.8-46.4,46.4-46.4c8.2,0,16,2.2,22.7,6l3.7-6.7c-7.6-4.3-16.3-6.8-25.6-6.9h-0.9
			c-29.8,0-53.9,24-54.2,53.7l0,0v0.5c0,15.5,6.6,29.5,17.1,39.4l5.4-5.8C150.5,73.7,144.9,61.8,144.9,48.5z"/>
	</g>
	<path class="st0" d="M356.1-15.9c0.4-0.8,0.9-1.5,1.5-2.1s1.4-1,2.2-1.4c0.8-0.3,1.7-0.5,2.6-0.5s1.8,0.2,2.6,0.5
		c0.8,0.3,1.6,0.8,2.2,1.4s1.1,1.3,1.5,2.1c0.4,0.8,0.6,1.8,0.6,2.8s-0.2,2-0.6,2.8s-0.9,1.5-1.5,2.1s-1.4,1-2.2,1.3
		c-0.8,0.3-1.7,0.5-2.6,0.5s-1.8-0.2-2.6-0.5c-0.8-0.3-1.6-0.8-2.2-1.3s-1.1-1.3-1.5-2.1c-0.4-0.8-0.6-1.8-0.6-2.8
		C355.6-14.2,355.8-15.1,356.1-15.9z M357.8-11c0.3,0.6,0.6,1.2,1.1,1.7s1,0.8,1.6,1.1c0.6,0.3,1.3,0.4,2,0.4s1.4-0.1,2-0.4
		s1.2-0.6,1.6-1.1c0.5-0.5,0.8-1,1.1-1.7c0.3-0.6,0.4-1.4,0.4-2.1s-0.1-1.5-0.4-2.1s-0.6-1.2-1.1-1.7s-1-0.8-1.6-1.1
		c-0.6-0.3-1.3-0.4-2-0.4s-1.4,0.1-2,0.4s-1.2,0.6-1.6,1.1c-0.5,0.5-0.8,1-1.1,1.7c-0.3,0.6-0.4,1.3-0.4,2.1S357.5-11.7,357.8-11z
		 M362.6-16.9c0.9,0,1.7,0.2,2.2,0.5s0.8,0.9,0.8,1.7c0,0.3-0.1,0.6-0.2,0.9c-0.1,0.2-0.2,0.4-0.4,0.6c-0.2,0.2-0.4,0.3-0.6,0.4
		s-0.5,0.1-0.8,0.2l2,3.3H364l-1.8-3.2h-0.9v3.2h-1.5v-7.6H362.6z M362.6-13.8c0.4,0,0.8-0.1,1.1-0.2c0.3-0.1,0.4-0.4,0.4-0.9
		c0-0.2,0-0.4-0.1-0.5s-0.2-0.2-0.4-0.3c-0.1-0.1-0.3-0.1-0.5-0.1s-0.4,0-0.5,0h-1.3v2H362.6z"/>
</g>
<g id="XMLID_43_">
	<g id="XMLID_306_">
		<path id="XMLID_307_" class="st0" d="M254.4,70.8c0.2-0.1,0.4-0.2,0.7-0.2c0.1,0,0.1,0,0.2,0c0.3,0,0.5,0.2,0.4,0.4
			c-0.1,0.4-0.2,0.7-0.3,1.1c-0.1,0.4-0.2,0.8-0.2,1.2c0,0.3,0.2,0.4,0.4,0.2c0.2-0.1,0.2-0.2,0.1-0.4c-0.3-1.1,0.1-2.3,1.1-2.9
			c0.5-0.3,0.8-0.3,1.2,0.1c0,0,0.1,0,0.1-0.1c0.1-0.3,0.2-0.5,0.2-0.8c0-0.2,0-0.3-0.3-0.5c0.1-0.1,0.2-0.2,0.3-0.3
			c0.3-0.1,0.6-0.3,0.8-0.4c0.4-0.1,0.6,0.1,0.5,0.5c-0.2,0.7-0.5,1.4-0.7,2.1c-0.1,0.5-0.2,0.9-0.3,1.4c0,0.1,0,0.2,0,0.3
			c0,0.2,0.2,0.3,0.4,0.2c0.1-0.1,0.2-0.1,0.3-0.2c0,0,0.1,0,0.1,0c-0.1-0.7,0-1.4,0.3-2c0.3-0.6,0.8-1.1,1.5-1.3
			c0.6-0.2,1,0.1,1,0.7c0,0.8-0.4,1.5-1.1,1.9c-0.1,0.1-0.3,0.1-0.4,0.1c-0.2,0-0.2,0.1-0.2,0.3c0,0.3,0.2,0.4,0.5,0.3
			c0.2-0.1,0.5-0.3,0.7-0.4c0.1-0.1,0.1-0.2,0.3-0.1c0.1,0.1,0.1,0.2,0,0.3c-0.3,0.5-0.7,0.8-1.3,1c-0.4,0.1-0.8,0-1.1-0.4
			c-0.1-0.1-0.1-0.2-0.1-0.3c-0.2,0.4-0.5,0.7-0.8,1c-0.1,0.1-0.2,0.1-0.3,0.2c-0.2,0.1-0.4,0.1-0.6-0.2c-0.2-0.3-0.2-0.3-0.5,0
			c-0.4,0.4-0.9,0.4-1.3,0c0,0,0,0-0.1-0.1c-0.2,0.4-0.5,0.7-0.9,0.9c-0.4,0.2-0.6,0.2-0.8-0.2c-0.1-0.1-0.1-0.1-0.2,0
			c-0.1,0.1-0.2,0.2-0.4,0.3c-0.3,0.2-0.7,0.1-1-0.2c-0.4-0.5-0.5-1-0.4-1.6c0.1-0.8,0.4-1.4,1-1.9c0.2-0.1,0.4-0.2,0.6-0.3
			C254,70.5,254.3,70.6,254.4,70.8z M253.5,72.9c0,0.2,0,0.4,0.2,0.5c0.1,0.1,0.3,0.1,0.3-0.1c0.1-0.3,0.2-0.6,0.2-0.9
			c0-0.2,0-0.3-0.2-0.4c-0.2-0.1-0.3,0.1-0.4,0.2C253.6,72.5,253.5,72.9,253.5,72.9z M257,72.2c0,0.2,0,0.4,0.2,0.5
			c0.1,0.1,0.3,0.1,0.3-0.1c0.1-0.3,0.2-0.6,0.2-0.9c0-0.1,0-0.3-0.2-0.3c-0.2-0.1-0.3,0-0.4,0.1C257,71.7,257,71.9,257,72.2z
			 M261.4,69.6C261.3,69.6,261.3,69.5,261.4,69.6c-0.7,0.1-1.1,0.5-1.5,1c-0.4,0.5-0.4,1.3-0.3,1.6C259.7,71,260.2,70.1,261.4,69.6z
			 M253.9,70.9C253.9,70.9,253.9,70.9,253.9,70.9c-0.1,0-0.2,0-0.3,0c-0.4,0.1-0.6,0.4-0.8,0.8c-0.3,0.4-0.4,0.8-0.4,1.3
			c0,0.1,0,0.2,0.1,0.3C252.5,72.3,252.9,71.4,253.9,70.9z M255.9,72.6c0-1.1,0.5-1.9,1.4-2.4c-0.4,0-1,0.4-1.2,0.9
			C255.8,71.7,255.7,72.4,255.9,72.6z M260.7,71.6c0.3,0,0.7-0.4,0.8-0.6c0-0.1,0-0.2,0-0.2c0,0-0.1,0-0.2,0
			c-0.3,0.1-0.5,0.4-0.6,0.7C260.6,71.5,260.7,71.6,260.7,71.6z M258,71.7c-0.2,0.5-0.3,0.9-0.5,1.4C257.8,73,258.1,72.1,258,71.7z
			 M254.1,73.8c0.3-0.1,0.6-1,0.4-1.4C254.4,72.8,254.2,73.3,254.1,73.8z M258.5,69.2c-0.1,0.4-0.3,0.8-0.4,1.3
			C258.4,70.4,258.6,69.7,258.5,69.2z M259.3,68.6c-0.2-0.1-0.8,0.1-1,0.3c0.1,0,0.2,0.1,0.2,0.1C258.7,68.8,259,68.7,259.3,68.6z
			 M261.9,72.3c-0.2-0.1-0.6,0.3-0.6,0.6C261.5,72.7,261.7,72.5,261.9,72.3z M261.7,71.1c-0.2,0.2-0.5,0.5-0.7,0.7
			C261.3,71.7,261.6,71.4,261.7,71.1z M255.2,70.8c-0.2-0.1-0.6,0.1-0.6,0.3C254.8,71.1,255,71,255.2,70.8z"/>
	</g>
	<g id="XMLID_297_">
		<path id="XMLID_298_" class="st0" d="M232.3,73.3c0.3-0.2,0.5-0.5,0.8-0.7c0.2-0.1,0.4-0.2,0.6-0.3c0.3-0.1,0.5,0,0.5,0.3
			c0,0.2,0,0.5-0.1,0.7c-0.2,0.9-0.5,1.9-0.7,2.8c0,0.1-0.1,0.3-0.1,0.4c0,0.1,0,0.2,0.1,0.2c0,0,0.1,0,0.2,0c0,0,0,0,0,0
			c0.1,0,0.1-0.1,0.2-0.1c0,0.1,0,0.2,0,0.3c-0.2,0.4-0.5,0.8-0.9,1c-0.4,0.3-0.8,0.1-0.9-0.4c-0.1-0.5,0-1,0.1-1.5
			c0.2-0.5,0.3-1.1,0.4-1.6c0-0.1,0-0.3,0-0.3c-0.1-0.1-0.2,0-0.3,0.1c0,0.1-0.1,0.1-0.1,0.2c-0.2,0.9-0.5,1.7-0.7,2.6
			c-0.1,0.3-0.1,0.6-0.1,0.8c0,0.2-0.1,0.3-0.2,0.3c-0.1,0-0.2,0.1-0.3,0.1c-0.3,0.1-0.5-0.1-0.6-0.4c-0.1-0.5-0.1-0.9,0-1.4
			c0.2-0.6,0.3-1.1,0.5-1.7c0-0.1,0-0.2,0-0.3c-0.1,0-0.2,0.1-0.3,0.1c-0.1,0.1-0.1,0.2-0.1,0.3c-0.2,0.8-0.5,1.6-0.7,2.5
			c0,0.1-0.1,0.2-0.1,0.3c0,0.1,0,0.2,0.1,0.2c0.1,0.1,0.1,0.1,0.1,0.2c-0.1,0.3-0.6,0.7-0.9,0.6c-0.1,0-0.3-0.1-0.3-0.2
			c-0.2-0.2-0.2-0.5-0.2-0.8c0-0.5,0.2-1,0.3-1.5c0.1-0.5,0.3-1.1,0.4-1.6c0-0.1,0-0.2,0-0.3c-0.1-0.3,0.1-0.6,0.3-0.8
			c0.2-0.2,0.4-0.4,0.7-0.5c0.1-0.1,0.2-0.1,0.2-0.1c0.2-0.1,0.4,0,0.4,0.3c0,0.1,0,0.3,0,0.4c0.1-0.1,0.1-0.1,0.1-0.1
			c0.3-0.3,0.6-0.6,1-0.8c0.1,0,0.1,0,0.2-0.1c0.3-0.1,0.5,0.1,0.6,0.4C232.3,73.1,232.3,73.2,232.3,73.3z M228.4,77.9
			C228.4,77.9,228.4,77.9,228.4,77.9C228.5,77.9,228.5,77.8,228.4,77.9c0.1-0.7,0.4-1.4,0.5-2c0.1-0.5,0.2-0.9,0.3-1.4
			c0-0.1,0-0.1,0-0.2c0,0,0,0,0,0c0,0.1,0,0.1-0.1,0.2c-0.1,0.6-0.3,1.2-0.4,1.7c-0.1,0.5-0.2,0.9-0.3,1.4
			C228.4,77.7,228.4,77.8,228.4,77.9z M230.3,77.5C230.3,77.5,230.3,77.5,230.3,77.5c0.1-0.3,0.2-0.5,0.2-0.8
			c0.2-0.6,0.3-1.3,0.5-1.9c0-0.1,0-0.2,0-0.2c0,0,0,0,0,0c0,0,0,0,0,0.1c-0.2,0.8-0.4,1.6-0.6,2.4
			C230.3,77.2,230.3,77.4,230.3,77.5z M232.9,74.4C232.9,74.4,232.9,74.4,232.9,74.4c-0.1,0-0.1,0.1-0.1,0.1
			c-0.1,0.3-0.2,0.5-0.2,0.8c-0.1,0.5-0.3,1-0.4,1.5c0,0.2,0,0.3,0,0.5c0,0,0.1,0,0.1,0C232.3,76.3,232.8,75.4,232.9,74.4z
			 M231.9,73c-0.4,0-1.4,0.7-1.3,1.1C231.1,73.7,231.5,73.3,231.9,73z M232.5,73.7c0.1,0,0.1,0,0.1-0.1c0.4-0.3,0.8-0.7,1.2-1
			C233.5,72.6,232.5,73.4,232.5,73.7z M229.1,74.2c0.4-0.3,0.7-0.6,1.1-1c0,0-0.1,0-0.1,0c-0.4,0.2-0.8,0.4-1,0.8
			C229.1,74,229.1,74.1,229.1,74.2z"/>
	</g>
	<g id="XMLID_284_">
		<path id="XMLID_285_" class="st0" d="M240.7,76.2c-0.2,0.2-0.3,0.4-0.5,0.5c-0.1,0.1-0.3,0.2-0.5,0.3c-0.4,0.1-0.7-0.1-0.8-0.5
			c-0.1-0.4-0.1-0.8,0-1.3c0-0.1,0.1-0.2,0.1-0.4c0,0,0-0.1,0-0.1c-0.1-0.1-0.4-0.1-0.5,0.1c-0.1,0.3-0.3,0.5-0.4,0.8
			c0,0.1-0.1,0.1-0.1,0.2c-0.1,0.1-0.3,0.1-0.3-0.1c0-0.1,0-0.3,0.1-0.4c0.1-0.2,0.2-0.5,0.3-0.7c0-0.1,0-0.2,0-0.3
			c-0.2-0.4-0.2-0.8,0-1.1c0.1-0.1,0.1-0.2,0.2-0.3c0.2-0.1,0.4-0.1,0.5,0.1c0.1,0.2,0.1,0.3,0.1,0.5c0,0.1,0,0.1,0,0.2
			c0,0.1,0,0.1,0.1,0.2c0.4,0,0.7-0.1,0.9-0.3c0.2-0.1,0.2-0.1,0.3,0.1c0.1,0.2,0.1,0.5,0.2,0.7c0.1,0.1,0.1,0.2,0,0.4
			c-0.2,0.4-0.4,0.7-0.5,1.2c0,0.1-0.1,0.3,0,0.4c0.1,0.1,0.2,0,0.4-0.1c0,0,0,0,0.1,0c0.2-0.1,0.3-0.3,0.4-0.6
			c0.1-0.5,0.3-0.9,0.4-1.3c0.1-0.2,0.1-0.5,0.1-0.7c0-0.1,0-0.1,0.1-0.2c0.2-0.3,0.5-0.4,0.8-0.6c0.4-0.2,0.6-0.1,0.6,0.4
			c0.1-0.1,0.2-0.1,0.2-0.2c0.3-0.2,0.6-0.4,1-0.5c0.3-0.1,0.4,0,0.5,0.4c0,0,0,0,0,0.1c0.1-0.1,0.1-0.1,0.2-0.2
			c0.3-0.3,0.6-0.5,1-0.6c0.1,0,0.1,0,0.2,0c0.2,0,0.3,0.1,0.3,0.3c0,0.3,0,0.5-0.1,0.8c-0.1,0.5-0.3,1-0.5,1.5
			c0,0.1-0.1,0.2-0.1,0.3c0,0.1,0.1,0.2,0.2,0.2c0.1,0,0.1-0.1,0.1-0.1c0,0,0.1,0,0.1,0c0,0,0,0.1,0,0.1c-0.2,0.5-0.6,0.8-1.1,0.9
			c-0.2,0-0.4-0.1-0.5-0.3c-0.1-0.2-0.1-0.4-0.1-0.7c0.1-0.4,0.2-0.8,0.3-1.1c0-0.1,0.1-0.1,0.1-0.2c0-0.1,0-0.2,0-0.3
			c-0.1,0-0.2,0-0.3,0.1c0,0-0.1,0.1-0.1,0.1c-0.2,0.6-0.4,1.2-0.6,1.8c0,0.1,0,0.3,0,0.5c0,0.1,0,0.2-0.1,0.2
			c-0.2,0.1-0.4,0.1-0.6,0.1c-0.3,0-0.5-0.2-0.5-0.6c0-0.3,0.1-0.5,0.1-0.8c0.1-0.3,0.2-0.7,0.3-1c0-0.1,0-0.2,0-0.2
			c-0.1,0-0.2,0-0.2,0c-0.1,0-0.2,0.1-0.2,0.2c-0.2,0.6-0.4,1.3-0.6,1.9c0,0.1,0,0.2,0.1,0.2c0.1,0.1,0.1,0.1,0,0.2
			C241.7,76.6,241.1,76.6,240.7,76.2C240.8,76.2,240.8,76.2,240.7,76.2z M241,75.9c0.1-0.2,0.1-0.4,0.2-0.6c0.1-0.5,0.3-1,0.4-1.6
			c0-0.2,0.1-0.4,0.3-0.5c0.1-0.1,0.2-0.1,0.3-0.2c0,0,0.1-0.1,0.1-0.1c0,0,0,0,0,0c-0.3,0.1-0.6,0.2-0.9,0.5c0,0,0,0.1,0,0.1
			c0,0.2,0,0.5-0.1,0.7c-0.1,0.4-0.3,0.8-0.4,1.3C240.9,75.5,240.9,75.7,241,75.9z M245,73.4C245,73.4,244.9,73.4,245,73.4
			c-0.1,0-0.1,0-0.1,0c-0.2,0.5-0.3,0.9-0.5,1.4c0,0.1-0.1,0.3,0.1,0.5C244.7,74.7,244.9,74.1,245,73.4z M243.2,73.7
			C243.2,73.7,243.2,73.7,243.2,73.7c-0.2,0.6-0.5,1.1-0.6,1.7c0,0.1,0,0.1,0,0.2c0,0,0.1,0,0.1,0c0.2-0.5,0.3-1,0.5-1.6
			C243.2,73.9,243.2,73.8,243.2,73.7z M245.7,72.4c-0.4,0-1.2,0.4-1.3,0.7C245,72.9,245.3,72.5,245.7,72.4z M239.5,74.7
			c-0.3,0.1-0.4,1.1-0.3,1.4C239.3,75.7,239.4,75.2,239.5,74.7z M242.8,73.3c0.4-0.2,0.8-0.5,1.2-0.7
			C243.7,72.5,242.9,73,242.8,73.3z M237.9,75.6c0.3-0.2,0.5-0.9,0.4-1.2C238.2,74.8,238,75.1,237.9,75.6z M238.5,73
			c-0.2,0-0.3,0.2-0.4,0.4c-0.1,0.1-0.1,0.3,0,0.4C238.3,73.6,238.4,73.3,238.5,73z M240.1,73.7c-0.2,0.1-0.4,0.2-0.6,0.4
			C239.8,74.1,240,73.9,240.1,73.7z M240.3,76.3C240.3,76.3,240.3,76.3,240.3,76.3c0.3-0.1,0.4-0.2,0.4-0.4
			C240.5,76.1,240.4,76.2,240.3,76.3z"/>
	</g>
	<g id="XMLID_274_">
		<path id="XMLID_275_" class="st0" d="M248.3,65.3C248.2,65.3,248.2,65.4,248.3,65.3c-0.3,0.4-0.4,0.7-0.5,1
			c-0.1,0.4,0.2,0.7,0.7,0.6c0.2-0.1,0.5-0.3,0.7-0.4c0.1-0.1,0.2-0.1,0.3-0.2c0,0,0.1,0,0.2,0c0,0,0.1,0.1,0.1,0.2
			c0,0.1-0.1,0.2-0.1,0.3c-0.3,0.4-0.7,0.8-1.2,1.1c-0.4,0.2-0.9,0-1.1-0.4c0-0.1-0.1-0.1-0.1-0.2c0,0.1-0.1,0.1-0.1,0.2
			c-0.2,0.3-0.5,0.6-0.9,0.7c-0.3,0.1-0.5,0.1-0.7-0.2c-0.1-0.2-0.1-0.2-0.3,0c-0.1,0.1-0.2,0.2-0.3,0.3c-0.3,0.2-0.7,0.2-1-0.1
			c-0.3-0.4-0.4-0.8-0.5-1.2c0-1,0.4-1.8,1.2-2.4c0.1-0.1,0.2-0.1,0.3-0.2c0.3-0.1,0.6-0.1,0.8,0.1c0.2-0.1,0.4-0.2,0.6-0.2
			c0.1,0,0.1,0,0.2,0c0.3,0,0.4,0.2,0.4,0.4c-0.1,0.5-0.3,1-0.4,1.6c-0.1,0.2-0.1,0.5,0,0.8c0,0.2,0.2,0.3,0.4,0.2
			c0.1-0.1,0.2-0.2,0.1-0.4c-0.2-1.1,0.4-2.4,1.3-2.9c0.1-0.1,0.3-0.1,0.4-0.2c0.5-0.2,0.9,0.1,1,0.6c0.1,0.3,0,0.7-0.1,1
			c-0.2,0.4-0.5,0.6-0.9,0.7c-0.2,0.1-0.5-0.1-0.4-0.4C248.3,65.5,248.3,65.4,248.3,65.3C248.3,65.3,248.3,65.3,248.3,65.3z
			 M245.5,66.1c0-0.2-0.1-0.4-0.2-0.4c-0.2,0-0.3,0.1-0.4,0.2c-0.2,0.3-0.2,0.6-0.1,0.9c0,0.1,0.1,0.2,0.2,0.3
			c0.1,0.1,0.2,0.1,0.3-0.1C245.3,66.7,245.4,66.4,245.5,66.1z M247,66.5C247.1,66.5,247.1,66.5,247,66.5c0.1-1.2,0.6-2.1,1.7-2.6
			c-0.7,0.1-1.1,0.5-1.3,1.1C247.2,65.4,246.9,65.9,247,66.5z M243.6,66.9c0.1-1,0.5-1.9,1.5-2.4c-0.4-0.1-0.9,0.3-1.2,0.9
			C243.6,65.9,243.4,66.4,243.6,66.9z M245.7,66c-0.1,0.5-0.3,0.9-0.4,1.4C245.6,67.3,245.8,66.4,245.7,66z M248.5,67.2
			c0.3,0,0.9-0.5,0.9-0.7C249.1,66.7,248.8,67,248.5,67.2z M246.3,64.5C246.3,64.5,246.3,64.5,246.3,64.5c-0.3-0.1-0.6,0.1-0.6,0.3
			C245.9,64.7,246.1,64.6,246.3,64.5z M248.6,65.4C248.6,65.4,248.5,65.4,248.6,65.4c-0.1,0.1-0.1,0.2-0.1,0.3
			C248.6,65.6,248.6,65.5,248.6,65.4z"/>
	</g>
	<g id="XMLID_266_">
		<path id="XMLID_267_" class="st0" d="M251.8,74.1c0,0.1,0,0.2-0.1,0.2c-0.2,0.3-0.5,0.6-0.9,0.8c-0.3,0.1-0.6,0-0.8-0.3
			c0,0,0,0,0-0.1c0,0-0.1,0.1-0.1,0.1c-0.2,0.3-0.5,0.5-0.8,0.7c-0.3,0.2-0.5,0.1-0.7-0.2c-0.1-0.2-0.1-0.2-0.3,0
			c-0.5,0.6-1.1,0.5-1.5-0.2c-0.4-0.8-0.3-1.7,0.1-2.5c0.2-0.3,0.4-0.6,0.8-0.8c0.2-0.1,0.4-0.2,0.5-0.2c0.2-0.1,0.4,0,0.5,0.1
			c0,0,0.1,0,0.2,0c0.2-0.1,0.4-0.2,0.7-0.2c0.3-0.1,0.5,0.1,0.4,0.5c-0.1,0.4-0.2,0.7-0.3,1.1c-0.1,0.3-0.1,0.6-0.2,0.9
			c0,0,0,0.1,0,0.1c0,0.3,0.1,0.4,0.2,0.4c0.1,0,0.4-0.2,0.4-0.4c0.2-0.7,0.4-1.4,0.6-2.1c0.1-0.5,0.3-1,0.4-1.5c0-0.1,0-0.3,0-0.4
			c0-0.1,0-0.1,0.1-0.2c0.3-0.3,0.6-0.6,1-0.7c0.3-0.1,0.4,0,0.4,0.3c-0.1,0.5-0.2,1.1-0.4,1.6c-0.2,0.9-0.5,1.8-0.8,2.7
			c0,0,0,0.1,0,0.1c0,0.2,0,0.2,0.2,0.2C251.5,74.1,251.6,74.1,251.8,74.1C251.7,74.1,251.7,74.1,251.8,74.1z M252.1,69.6
			C252.1,69.6,252.1,69.5,252.1,69.6c-0.3,0-0.6,0.1-0.9,0.4c0,0,0,0.1,0,0.2c0,0.1,0,0.2,0,0.3c-0.2,0.8-0.5,1.6-0.7,2.4
			c-0.1,0.5-0.2,0.9-0.3,1.4c0,0.1,0,0.1,0,0.2c0.1,0,0.1-0.1,0.1-0.1c0.2-0.8,0.5-1.6,0.7-2.4c0.2-0.5,0.3-1,0.3-1.6
			c0-0.2,0.1-0.3,0.2-0.4c0.1-0.1,0.3-0.2,0.4-0.3C251.9,69.6,252,69.6,252.1,69.6z M247.7,73.8c0,0.3,0.1,0.5,0.2,0.6
			c0.1,0.1,0.3,0.1,0.3-0.1c0.1-0.3,0.2-0.6,0.2-1c0-0.1-0.1-0.2-0.2-0.3c-0.1-0.1-0.2,0-0.3,0.1C247.7,73.3,247.7,73.6,247.7,73.8z
			 M246.6,74.3c0.1-1.1,0.4-1.9,1.4-2.4c-0.6,0.1-1,0.5-1.2,1C246.5,73.4,246.4,74.1,246.6,74.3z M248.3,74.7c0.3-0.1,0.6-1,0.4-1.4
			C248.5,73.8,248.4,74.3,248.3,74.7z M249.3,71.8C249.3,71.8,249.3,71.8,249.3,71.8c-0.3-0.1-0.6,0.1-0.6,0.3
			C248.9,72,249.1,71.9,249.3,71.8z"/>
	</g>
	<g id="XMLID_257_">
		<path id="XMLID_258_" class="st0" d="M239.4,66.3c0,0.1-0.1,0.2-0.1,0.3c-0.1,0.2-0.2,0.2-0.4,0.2c-0.2,0-0.2,0-0.3,0.2
			c-0.1,0.3-0.1,0.5-0.2,0.8c0,0.2-0.1,0.3-0.3,0.3c-0.2,0-0.4,0-0.6-0.2c-0.1-0.1-0.1-0.2-0.1-0.3c0.1-0.4,0.2-0.9,0.3-1.3
			c0-0.2,0-0.4,0-0.7c0-0.1,0-0.3,0.1-0.4c0.2-0.2,0.4-0.4,0.7-0.5c0.1,0,0.2-0.1,0.3,0c0.1,0.1,0.1,0.2,0.1,0.3
			c0,0.2-0.1,0.3-0.1,0.5c0,0,0,0.1,0,0.1c0,0,0.1,0,0.1,0c0.3-0.2,0.6-0.8,0.5-1.2c-0.1-0.3-0.2-0.4-0.5-0.3
			c-0.2,0.1-0.4,0.2-0.6,0.3c-0.4,0.4-0.8,0.7-0.9,1.3c0,0-0.1,0.1-0.1,0.1c0,0-0.1,0-0.1-0.1c-0.2-0.4-0.3-0.7-0.1-1.2
			c0.4-0.8,1.1-1.4,1.9-1.7c0.6-0.2,1.1,0.1,1.3,0.7c0.2,0.6,0.1,1.1-0.3,1.6c-0.1,0.2-0.1,0.2,0.1,0.3c0.4,0.1,0.6,0.5,0.6,0.9
			c0,0.3,0,0.6-0.2,1c-0.3,0.8-0.8,1.5-1.7,1.9c-0.6,0.2-1.2,0.3-1.8,0c-0.8-0.3-1-1.5-0.3-2c0.1,0,0.1-0.1,0.2-0.1
			c0,0.1,0,0.1,0,0.1c0.1,0.8,0.7,1.2,1.5,0.9c0.8-0.2,1-1.1,0.9-1.7C239.5,66.4,239.5,66.4,239.4,66.3
			C239.4,66.3,239.4,66.3,239.4,66.3z M237.3,65.2C237.4,65.2,237.4,65.2,237.3,65.2c0.4-1,1.2-1.4,2-1.9c-0.1,0-0.2,0-0.3,0.1
			c-0.5,0.2-0.9,0.5-1.3,0.9c-0.2,0.2-0.3,0.4-0.4,0.7C237.3,65,237.3,65.1,237.3,65.2z M238.1,65.8c-0.1,0.7-0.2,1.3-0.4,2
			C238,67.6,238.3,66.1,238.1,65.8z M239.8,66.6c-0.1,0.8-0.3,1.5-1.2,1.9C239.2,68.6,240.1,67.6,239.8,66.6z M239.9,64.7
			c0,0.6-0.5,0.9-0.7,1.4C239.6,65.9,240,65.2,239.9,64.7z M238.8,65.1c-0.3,0-0.7,0.2-0.7,0.4c0,0.1,0,0.1,0,0.2
			C238.4,65.5,238.6,65.3,238.8,65.1z M237,67.5c-0.3,0.1-0.4,0.6-0.3,0.8C236.8,68,236.9,67.8,237,67.5z"/>
	</g>
	<g id="XMLID_255_">
		<path id="XMLID_256_" class="st0" d="M254.1,85.3c0-0.1,0.1-0.3,0.1-0.4c0.3,0,0.4,0.1,0.5,0.4c0.1,0.3,0,0.5-0.2,0.7
			c0,0-0.1,0.1-0.1,0.1c-0.2,0-0.2,0.1-0.4,0.2c-0.4,0.3-0.8,0.6-1.3,0.7c-0.1,0-0.3,0-0.4,0c0,0.1,0.1,0.1,0.1,0.2
			c-0.1,0-0.2,0-0.3,0c0,0.1-0.1,0.2-0.1,0.2c-0.3,0-0.5-0.1-0.5-0.4c-0.1,0.1-0.1,0.1-0.2,0.1c-0.1,0-0.1-0.1-0.2-0.1c0,0,0,0,0,0
			c0.1,0.1,0.1,0.3,0.2,0.4c-0.2,0.1-0.4,0.3-0.6,0.4c-0.1,0.1-0.2,0-0.3-0.1c-0.2-0.2-0.2-0.2-0.3-0.2c0,0.2,0.1,0.4,0,0.5
			c-0.1,0.1-0.3,0.1-0.5,0.1c0,0.1-0.1,0.1-0.2,0.1c-0.3,0.1-0.6,0.2-1,0.2c-0.3,0.1-0.6,0.1-0.9,0.1c-0.1,0-0.1,0-0.2-0.1
			c0,0,0-0.1,0-0.1c0,0,0,0,0,0c-0.1,0.1-0.2,0.2-0.3,0.2c-0.1,0-0.2,0-0.3,0c0,0-0.1,0-0.1,0c-0.9,0.2-1.7,0.2-2.6,0.1
			c-1.1-0.1-2.2-0.3-3.3-0.6c-0.3-0.1-0.6-0.2-0.8-0.5c0.1-0.1,0.1-0.3,0.2-0.4c0.1,0,0.1,0,0.2,0c0.1,0,0.2,0,0.4,0
			c0.2,0,0.5,0,0.7,0.1c1,0.3,2,0.4,3,0.5c0.5,0,0.9,0.1,1.4,0.1c0.2,0,0.4,0,0.6-0.1c0.2-0.1,0.4,0,0.6,0.1c0.2,0.1,0.3,0,0.4-0.1
			c0,0,0.1-0.1,0.2-0.1c0.1,0,0.3,0.1,0.4,0.2c-0.1-0.1,0-0.2,0.1-0.2c0,0,0,0,0,0c0.2-0.1,0.3-0.2,0.5,0c0,0,0.1,0,0.1,0
			c0.3-0.3,0.6-0.3,1-0.3c0,0.1,0,0.3,0,0.4c0.1-0.1,0.2-0.1,0.2-0.2c0,0-0.1-0.1-0.1-0.1c0-0.3,0.2-0.4,0.4-0.4
			c0.1,0,0.2-0.1,0.3-0.1c0.1,0,0.2,0,0.3,0.1c0,0.1,0,0.2,0,0.3c0,0,0,0,0,0c0-0.1,0-0.2,0-0.3c0.1,0,0.1,0,0.2,0c0,0,0,0,0,0
			c0.2-0.2,0.5-0.4,0.8-0.5c0,0,0.1,0,0.1,0.1c0.2-0.4,0.3-0.4,0.6-0.3c0-0.1,0.1-0.1,0.1-0.2c0.1-0.1,0.1-0.2,0.3-0.2
			c0.1,0,0.2-0.1,0.3-0.2c0.1,0.1,0.1,0.1,0,0.3c0.1,0,0.1,0,0.2,0.1c0.1,0,0.2,0,0.2-0.1c0-0.2,0-0.3,0.1-0.5
			c0-0.1,0.1-0.2,0.2-0.2C253.9,85.2,254,85.2,254.1,85.3z"/>
	</g>
	<g id="XMLID_247_">
		<path id="XMLID_248_" class="st0" d="M251.9,63.5c0.2,0,0.3-0.1,0.5-0.1c0.8-0.1,1,0.3,0.8,0.9c-0.1,0.5-0.5,0.9-0.9,1.2
			c0,0-0.1,0-0.1,0.1c0,0.1-0.1,0.2-0.1,0.2c0.1,0.1,0.2,0.2,0.2,0.2c0.1,0,0.3-0.1,0.4-0.1c0.1-0.1,0.2-0.2,0.3-0.2
			c0.1,0,0.2,0,0.2,0c0,0,0.1,0.2,0,0.2c0,0.1-0.1,0.2-0.2,0.3c-0.2,0.3-0.5,0.5-0.8,0.8c-0.3,0.2-0.5,0.2-0.8,0
			c-0.1-0.1-0.2-0.2-0.4-0.3c-0.1,0.2-0.1,0.3-0.2,0.5c-0.1,0.3-0.4,0.4-0.7,0.3c-0.4-0.2-0.5-0.4-0.4-0.8c0.3-0.9,0.5-1.8,0.6-2.7
			c0-0.3,0.1-0.6,0.1-0.9c0-0.1,0-0.3-0.1-0.4c0-0.1,0-0.2,0.1-0.3c0.3-0.3,0.7-0.5,1.1-0.6c0.3-0.1,0.5,0.1,0.4,0.4
			c0,0.3-0.1,0.7-0.1,1C252,63.1,252,63.3,251.9,63.5z M250,66.8C250.1,66.8,250.1,66.8,250,66.8c0.2-0.1,0.3-0.3,0.3-0.4
			c0.1-0.5,0.3-1,0.4-1.5c0.1-0.6,0.2-1.2,0.2-1.8c0-0.1,0-0.2,0-0.3c0,0,0,0,0,0c0,0,0,0.1,0,0.1c0,0.3-0.1,0.7-0.1,1
			c-0.1,0.9-0.3,1.8-0.6,2.7C250.1,66.6,250.1,66.7,250,66.8z M252.1,64.5c0,0-0.1-0.1-0.1-0.1c-0.1,0-0.2,0.1-0.3,0.1
			c-0.1,0.1-0.1,0.3-0.1,0.4c0,0.1,0,0.2,0.2,0.1C251.9,65,252.1,64.8,252.1,64.5z M251.7,61.9C251.7,61.9,251.7,61.9,251.7,61.9
			c-0.1,0-0.1-0.1-0.2,0c-0.2,0.1-0.4,0.2-0.7,0.3c0,0-0.1,0.1-0.1,0.1c0,0,0,0.1,0,0.1c0,0,0.1,0,0.1,0c0.1-0.1,0.3-0.2,0.4-0.3
			C251.4,62.1,251.5,62,251.7,61.9z M251.8,65.4c0.4-0.1,0.7-0.6,0.6-0.9C252.2,64.8,252,65.1,251.8,65.4z M252.7,66.2
			C252.7,66.2,252.7,66.2,252.7,66.2c0.2-0.1,0.3-0.2,0.5-0.3c0,0,0,0,0-0.1C252.9,65.9,252.8,66.1,252.7,66.2z"/>
	</g>
	<g id="XMLID_240_">
		<path id="XMLID_241_" class="st0" d="M238.2,81.4c0.2-0.1,0.3-0.3,0.5-0.5c0.1-0.2,0.1-0.4,0.1-0.7c-0.1-0.2-0.2-0.3-0.4-0.3
			c-0.2,0-0.3,0.1-0.4,0.2c-0.4,0.4-0.8,0.7-1,1.3c0,0-0.1,0.1-0.1,0.1c0,0-0.1-0.1-0.1-0.1c-0.2-0.4-0.3-0.7-0.1-1.1
			c0.4-0.5,0.8-1,1.4-1.4c0.4-0.2,0.8-0.3,1.2-0.1c0.4,0.3,0.5,0.7,0.5,1.2c0,0.4-0.2,0.8-0.5,1.1c-0.2,0.2-0.4,0.4-0.5,0.6
			c0.4,0.1,0.7,0.4,1.1,0.7c0.5,0.4,1.1,0.7,1.8,0.6c0.2,0,0.5-0.1,0.7-0.1c-0.2,0.4-0.5,0.7-1,0.9c-0.7,0.3-1.3,0.1-1.9-0.4
			c-0.4-0.3-0.7-0.7-1-1.1c-0.1-0.1-0.2-0.2-0.3-0.2c-0.1,0-0.2,0.1-0.3,0.3c0,0.2-0.1,0.4-0.2,0.6c-0.1,0.2-0.2,0.3-0.6,0.2
			c-0.2,0-0.3-0.2-0.2-0.4c0.2-0.6,0.3-1.3,0.3-1.9c0-0.1,0.1-0.2,0.1-0.3c0.2-0.2,0.4-0.3,0.6-0.4c0.1,0,0.2,0,0.2,0
			c0.1,0.1,0.1,0.2,0.1,0.3C238.2,81,238.2,81.2,238.2,81.4C238.2,81.4,238.2,81.4,238.2,81.4z M236.6,80.9
			C236.6,80.9,236.7,80.9,236.6,80.9c0.4-0.9,1-1.4,1.8-1.8c0,0-0.1,0-0.1,0c-0.8,0.3-1.3,0.8-1.7,1.5
			C236.6,80.7,236.6,80.8,236.6,80.9z M237.4,81.5c-0.1,0.6-0.2,1.2-0.4,1.8C237.2,83.1,237.5,81.8,237.4,81.5z M238.3,81.6
			c0.4,0,0.8-0.8,0.7-1.2C238.9,80.9,238.6,81.3,238.3,81.6z M238.1,80.7c-0.3,0-0.8,0.4-0.7,0.6C237.6,81.1,237.8,80.9,238.1,80.7z
			"/>
	</g>
	<g id="XMLID_238_">
		<path id="XMLID_239_" class="st0" d="M244.5,58.2c-0.4,0-0.7,0-1,0c0,0-0.1,0-0.1-0.1c-0.1-0.2-0.1-0.4-0.2-0.6
			c0-0.1,0.1-0.2,0.2-0.2c0.3-0.1,0.6-0.1,0.8-0.1c0.9,0,1.8,0.1,2.6,0.1c0.9,0.1,1.8,0.2,2.6,0.5c0.3,0.1,0.5,0.2,0.8,0.3
			c0,0,0,0,0.1,0.1c0.2-0.1,0.4-0.1,0.4,0.1c0,0.1,0.1,0.2,0,0.3c0,0.1-0.2,0.1-0.3,0.2c0.2,0,0.3,0,0.4-0.2
			c0.1-0.2,0.2-0.2,0.4-0.2c0.1,0.1,0.4,0.1,0.4,0.2c0.1,0.1,0,0.3,0,0.5c0,0.1,0,0.1,0,0.2c0-0.1,0.1-0.1,0.1-0.2
			c0-0.1,0.1-0.2,0.1-0.2c0.4,0.1,0.7,0.3,1.1,0.5c0.2,0.1,0.4,0.2,0.6,0.4c0.1,0,0.1,0.1,0.1,0.1c0.1,0.1,0.1,0.2,0.2,0.3
			c0,0,0,0.1,0,0.1c0,0.1,0,0.2-0.1,0.2c0.1,0,0.1,0.1,0.2,0.1c0,0,0,0,0,0c-0.2,0.4-0.3,0.4-0.6,0.1c-0.5-0.3-1.1-0.7-1.6-1
			c0,0-0.1-0.1-0.1-0.2c0-0.1,0-0.1,0.1-0.2c0,0-0.1-0.1-0.2-0.1c0,0.1,0,0.2,0.1,0.2c-0.4,0-0.6-0.1-0.7-0.5
			c-0.2,0.1-0.4,0.1-0.7,0c-0.2-0.1-0.5-0.2-0.7-0.2c-0.3-0.1-0.3-0.1-0.2-0.4c-0.2,0-0.3-0.1-0.5-0.1c0,0-0.1,0-0.1,0
			c-0.4,0.2-0.8,0.1-1.2,0c-0.9-0.1-1.7-0.3-2.6-0.3c-0.2,0-0.5-0.1-0.8-0.1C244.5,58.1,244.5,58.1,244.5,58.2z"/>
	</g>
	<g id="XMLID_234_">
		<path id="XMLID_235_" class="st0" d="M233.7,83.6C233.7,83.6,233.7,83.5,233.7,83.6c-0.4,0-0.6-0.3-0.9-0.6
			c-0.1-0.1-0.2-0.2-0.2-0.3c-0.1-0.1,0-0.2,0.1-0.2c0.2-0.1,0.2-0.2,0.1-0.4c-0.2,0.1-0.3,0.2-0.5,0.3c-0.5-0.7-1-1.4-1.4-2.2
			c-0.1-0.2,0-0.5,0.3-0.5c0,0,0.1,0,0.1,0c0.3,0.2,0.6,0.4,0.8,0.6c0.1,0.1,0.2,0.3,0.3,0.4c0,0-0.1,0.1-0.1,0.2
			c0.1,0.1,0.3,0.1,0.4,0.2c0.1,0.1,0.1,0.2,0.1,0.3c0,0.1-0.1,0.2-0.2,0.1c0,0-0.1,0-0.1,0c0,0,0,0,0,0c0.1,0,0.1,0.1,0.2,0.1
			c0.1,0.1,0.1,0.1,0.1,0.2c0,0.1,0.1,0.1,0.1,0.2c0.1,0,0.2-0.1,0.3-0.2c0.1-0.1,0.1-0.1,0.2,0.1c0.1,0.2,0.3,0.4,0.4,0.5
			c0,0,0,0,0,0c-0.2-0.2-0.3-0.5-0.5-0.7c-0.2-0.2-0.3-0.4-0.2-0.6c-0.2-0.3-0.5-0.5-0.7-0.8c0,0,0,0,0,0c0.2,0.1,0.5,0.3,0.7,0.4
			c0,0,0,0,0,0c0,0.2,0.2,0.2,0.3,0.3c0.3,0.3,0.5,0.6,0.8,1c0,0.3,0.1,0.3,0.3,0.4c0.3,0.2,0.5,0.4,0.7,0.8c0,0,0,0.1,0.1,0.2
			c-0.2-0.1-0.4-0.1-0.7-0.2c0.1,0.1,0.1,0.1,0.1,0.2c0.6,0.7,1.3,1.3,2,1.8c0.2,0.2,0.4,0.4,0.3,0.6c0,0.1,0,0.2,0.2,0.2
			c0.3,0,0.4,0.3,0.4,0.6c-0.2,0.1-0.5,0-0.7-0.1c-0.4-0.3-0.8-0.6-1.2-0.9c-0.3-0.2-0.6-0.5-0.9-0.7c-0.2-0.1-0.3-0.3-0.3-0.6
			c-0.2,0.1-0.4,0-0.5-0.2c-0.1-0.1-0.2-0.2-0.2-0.2C233.6,83.9,233.6,83.8,233.7,83.6C233.7,83.6,233.7,83.6,233.7,83.6z
			 M234.3,82.9c-0.1-0.3-0.1-0.3-0.3-0.4C234,82.7,234.1,82.8,234.3,82.9z"/>
	</g>
	<g id="XMLID_227_">
		<path id="XMLID_228_" class="st0" d="M236.6,73.7c0.3-0.1,0.5-0.2,0.7-0.3c0.3-0.1,0.6,0.1,0.5,0.5c-0.1,0.5-0.3,1-0.4,1.5
			c-0.1,0.3-0.1,0.5,0,0.8c0,0.2,0.2,0.3,0.4,0.2c0.1-0.1,0.2-0.1,0.2-0.2c0.1-0.1,0.2,0,0.2,0.1c0,0.1,0,0.2-0.1,0.2
			c-0.2,0.4-0.6,0.7-1,1c-0.3,0.1-0.5,0.1-0.6-0.2c0,0,0-0.1-0.1-0.1c-0.1-0.1-0.1-0.1-0.2,0c-0.1,0.1-0.2,0.2-0.3,0.3
			c-0.4,0.3-0.8,0.2-1.1-0.2c-0.4-0.5-0.5-1.2-0.4-1.8c0.1-0.7,0.5-1.3,1.1-1.7c0.2-0.1,0.4-0.2,0.6-0.2
			C236.3,73.5,236.5,73.5,236.6,73.7z M236.4,75.4c0-0.2-0.1-0.3-0.2-0.4c-0.2,0-0.3,0-0.4,0.2c-0.2,0.3-0.3,0.6-0.2,0.9
			c0,0.1,0.1,0.2,0.2,0.3c0.1,0.1,0.2,0.1,0.3-0.1C236.3,76,236.4,75.7,236.4,75.4z M236.1,73.9C236,73.8,236,73.8,236.1,73.9
			c-0.2,0-0.3,0-0.4,0.1c-0.3,0.2-0.6,0.5-0.8,0.8c-0.2,0.4-0.4,0.8-0.4,1.3c0,0.1,0,0.2,0.1,0.2c0,0,0,0,0.1,0
			C234.7,75.2,235,74.3,236.1,73.9z M236.7,75.3c-0.1,0.5-0.3,0.9-0.4,1.4C236.5,76.6,236.8,75.7,236.7,75.3z M236.7,74.1
			c0.2-0.1,0.5-0.1,0.7-0.3C237,73.7,236.7,73.9,236.7,74.1z"/>
	</g>
	<g id="XMLID_225_">
		<path id="XMLID_226_" class="st0" d="M235.1,62.3c-0.2,0.1-0.3,0.3-0.5,0.4c-0.1,0.1-0.2,0.2-0.4,0.1c-0.1,0.3-0.1,0.3-0.3,0.3
			c0-0.2-0.1-0.3-0.1-0.5c0-0.2,0.1-0.5,0.2-0.7c0.1-0.1,0.2,0,0.3,0c0.2-0.2,0.3-0.6,0.6-0.6c-0.1-0.4,0.2-0.6,0.7-0.5c0,0,0,0,0,0
			c0-0.4,0.3-0.6,0.6-0.7c0.1,0,0.2-0.1,0.3-0.2c0.5-0.4,1.1-0.8,1.7-1c0,0,0,0,0.1,0c0.3,0,0.4-0.1,0.7-0.3
			c0.2-0.2,0.5-0.2,0.7-0.3c0.5-0.2,1-0.3,1.5-0.5c0.3-0.1,0.6-0.1,0.9-0.2c0.1,0.3,0.1,0.6,0.1,0.9c-0.5,0.1-0.9,0.1-1.4-0.1
			c-0.1-0.1-0.3-0.1-0.4-0.1c-0.1,0-0.2,0.1-0.2,0.2c0,0.2,0,0.4-0.1,0.6c0,0-0.1,0-0.1,0c-0.2,0-0.3-0.1-0.5-0.1
			c0.1,0.1,0.2,0.2,0.3,0.3c-0.8,0.2-1.4,0.6-2.1,1c-0.6,0.4-1.2,0.8-1.8,1.3c-0.2,0.1-0.3,0.3-0.5,0.2
			C235.3,62,235.2,62.1,235.1,62.3L235.1,62.3z"/>
	</g>
	<g id="XMLID_221_">
		<path id="XMLID_222_" class="st0" d="M255.1,61.9C255.1,61.8,255.1,61.8,255.1,61.9c-0.4-0.3-0.4-0.3-0.5-0.7
			c-0.3,0.1-0.4,0-0.3-0.3c0.1,0.1,0.2,0.2,0.3,0.2c0.1-0.2,0.1-0.4,0.2-0.5c0.2,0.1,0.1,0.3,0.2,0.5c0,0,0,0,0.1,0
			c0.3-0.2,0.5-0.1,0.7,0.2c0.1,0.1,0.1,0.1,0.2,0.2c0.1,0.1,0.1,0.2,0.1,0.3c0,0.1,0.1,0.2,0.1,0.2c0.1,0.1,0.3,0.2,0.3,0.4
			c0.4,0,0.7,0.2,1,0.5c0.3,0.5,0.7,1,1,1.5c-0.1,0.1-0.1,0.1-0.2,0.2c0.2,0,0.4,0.1,0.5,0.2c0.1,0.1,0.2,0.2,0.2,0.3
			c0.4,0.7,0.8,1.4,1,2.1c0.1,0.2,0.1,0.5-0.1,0.7c-0.2-0.1-0.4-0.2-0.7-0.2c0,0-0.1,0-0.1-0.1c-0.5-1.2-1.2-2.3-1.9-3.4
			c-0.1-0.2-0.2-0.4-0.3-0.5c0,0-0.1-0.1-0.1-0.1c-0.1-0.1-0.2-0.1-0.3-0.2c-0.3-0.3-0.6-0.7-1-1C255.4,62.2,255.3,62,255.1,61.9z
			 M255,61.3c0,0.1,0,0.1,0.1,0.1c0,0,0,0.1,0,0.1c0.1-0.2,0.1-0.2,0.3-0.2C255.4,61.2,255.2,61.4,255,61.3z"/>
	</g>
	<g id="XMLID_213_">
		<path id="XMLID_214_" class="st0" d="M252.3,80.1c0,0.1,0,0.2,0,0.2c-0.2,0.3-0.4,0.6-0.7,0.7c-0.2,0.1-0.4,0.1-0.5-0.1
			c0-0.1-0.1-0.1-0.2-0.2c-0.1,0.1-0.1,0.2-0.2,0.2c-0.3,0.3-0.7,0.3-0.9-0.1c-0.3-0.4-0.3-0.9-0.2-1.4c0.1-0.5,0.4-0.9,0.8-1.2
			c0.1-0.1,0.2-0.1,0.2-0.1c0.3-0.1,0.5-0.1,0.7,0.2c0.1-0.3,0.2-0.5,0.2-0.8c0-0.1-0.1-0.1-0.2-0.2c0,0,0-0.1,0.1-0.1
			c0.2-0.2,0.5-0.4,0.8-0.4c0.3-0.1,0.4,0.1,0.3,0.4c-0.2,0.6-0.4,1.2-0.6,1.7c-0.1,0.3-0.1,0.6-0.2,0.9c0,0,0,0.1,0,0.1
			c0,0.1,0.1,0.2,0.1,0.3c0,0,0.2-0.1,0.3-0.1C252.2,80.2,252.2,80.1,252.3,80.1C252.3,80.1,252.3,80.1,252.3,80.1z M250.4,79.9
			C250.4,79.9,250.5,79.9,250.4,79.9c0,0.2,0.1,0.3,0.2,0.4c0.1,0.1,0.2,0.1,0.2-0.1c0.1-0.2,0.1-0.5,0.2-0.7c0-0.1-0.1-0.2-0.1-0.2
			c-0.1,0-0.2,0-0.2,0.1C250.6,79.5,250.5,79.7,250.4,79.9z M249.7,80.2c0-0.8,0.4-1.4,1-1.8c-0.5,0.1-0.8,0.4-0.9,0.8
			C249.6,79.7,249.5,80,249.7,80.2z M251.2,79.5c-0.1,0.4-0.2,0.7-0.4,1C251.1,80.4,251.3,79.9,251.2,79.5z M251.3,78.6
			c0.2-0.1,0.4-0.7,0.3-1C251.5,78,251.4,78.3,251.3,78.6z M251.4,77.3c0.2,0.1,0.6-0.1,0.7-0.3C251.9,77.1,251.7,77.2,251.4,77.3z"
			/>
	</g>
	<g id="XMLID_209_">
		<path id="XMLID_210_" class="st0" d="M241.1,68c0.1-0.3,0.2-0.6,0.2-0.9c0.3-1,0.5-1.9,0.8-2.9c0-0.1,0-0.3,0-0.4
			c0-0.1,0-0.2,0.1-0.2c0.3-0.3,0.6-0.5,1-0.6c0.3-0.1,0.5,0,0.4,0.4c-0.1,0.6-0.3,1.2-0.4,1.7c-0.2,0.9-0.5,1.7-0.7,2.6
			c0,0.1,0,0.2,0,0.2c0,0,0.1,0,0.2,0c0.1,0,0.1,0,0.2,0c0,0.1,0,0.2-0.1,0.2c-0.2,0.3-0.5,0.6-0.9,0.8c-0.3,0.1-0.6,0-0.8-0.3
			C241.1,68.3,241.1,68.1,241.1,68z M241.3,68C241.3,68.1,241.4,68.1,241.3,68c0.1,0,0.1-0.1,0.1-0.1c0.2-0.8,0.5-1.5,0.7-2.3
			c0.2-0.5,0.3-1.1,0.3-1.6c0-0.2,0.1-0.3,0.2-0.4c0.1-0.1,0.3-0.2,0.4-0.3c0.1,0,0.1-0.1,0.2-0.1c-0.2,0-0.8,0.2-0.9,0.4
			c0,0,0,0.1,0,0.2c0,0.1,0,0.2,0,0.3c0,0.2-0.1,0.4-0.1,0.6c-0.3,0.9-0.5,1.8-0.8,2.7C241.4,67.6,241.4,67.8,241.3,68z"/>
	</g>
	<g id="XMLID_205_">
		<path id="XMLID_206_" class="st0" d="M252.2,82.4c0,0,0,0.1,0.1,0.1c-0.1,0.1-0.1,0.1-0.3,0.1c0.1,0.1,0.3,0.1,0.2,0.3
			c-0.2,0-0.3,0-0.5,0.1c0,0,0,0,0,0c0.1,0,0.2,0,0.4,0c0,0.1-0.1,0.3-0.3,0.3c-0.1,0-0.2,0.1-0.2,0.1c-0.3,0.1-0.5,0.3-0.8,0.4
			c-0.1,0.1-0.2,0-0.2-0.1c0-0.1-0.1-0.1-0.1-0.2c0,0.1,0,0.3,0,0.4c0,0.1,0,0.1-0.1,0.2c-0.1,0-0.1,0.1-0.2,0.1
			c-0.2,0.1-0.3,0-0.4-0.1c0-0.1-0.1-0.1-0.2-0.2c0,0,0,0,0,0.1c0.1,0,0.1,0.1,0.2,0.1c0,0.1,0,0.1,0,0.2c0,0.1-0.1,0.2-0.3,0.1
			c-0.1,0-0.1,0-0.2,0c-0.5,0.3-1,0.4-1.5,0.4c-1,0.2-2.1,0.3-3.2,0.2c-0.2,0-0.4,0-0.6-0.1c-0.2,0-0.2-0.1-0.2-0.3
			c0.1-0.4,0.1-0.4,0.5-0.4c0.1,0,0.3,0,0.4,0c0,0,0,0.1,0,0.1c1.3-0.1,2.6-0.2,4-0.3c0-0.2,0.1-0.3,0.2-0.4
			c0.4-0.2,0.9-0.3,1.4-0.3c0.1,0,0.1,0,0.2,0c-0.1-0.3,0-0.3,0.2-0.4c0.4-0.2,0.7-0.4,1.1-0.7C252,82.3,252,82.3,252.2,82.4
			L252.2,82.4z M244.1,84.9C244.1,84.9,244.1,84.9,244.1,84.9c0.2,0,0.3-0.1,0.5-0.2c0,0,0,0,0-0.1
			C244.4,84.7,244.3,84.8,244.1,84.9z"/>
	</g>
	<g id="XMLID_203_">
		<path id="XMLID_204_" class="st0" d="M231.6,66.7c0,0.2,0,0.3,0,0.5c0,0.2-0.1,0.3-0.1,0.5c0,0.2-0.2,0.3-0.2,0.4
			c-0.1,0.3-0.1,0.5-0.2,0.8c-0.2,0.7-0.4,1.5-0.6,2.2c0,0.1,0,0.1,0,0.2c0,0.3,0,0.5,0,0.8c-0.3,0-0.6,0-0.9,0c0-0.1,0-0.3,0.1-0.5
			c0.2,0.1,0.3,0.1,0.5,0.2c0,0,0,0,0,0c-0.2-0.1-0.3-0.1-0.5-0.2c0,0-0.1-0.1-0.1-0.1c0.1-1.4,0.5-2.8,1-4.1
			c0.2-0.5,0.2-0.5,0.8-0.5C231.4,66.7,231.5,66.7,231.6,66.7z"/>
	</g>
	<g id="XMLID_201_">
		<path id="XMLID_202_" class="st0" d="M256.7,83.8c0-0.1-0.1-0.2,0-0.3c0,0-0.1-0.1-0.1-0.2c0,0,0.1,0,0.1,0c0,0,0,0,0,0
			c0.2-0.3,0.3-0.7,0.7-0.9c0-0.1,0-0.2,0.1-0.3c0.1-0.1,0.2-0.1,0.3-0.2c0,0,0-0.1,0-0.1c0-0.1,0-0.3,0.2-0.3
			c0.1-0.1,0.1-0.2,0.2-0.3c0.2,0,0.2,0.1,0.2,0.3c0,0,0.1,0,0.1,0c0.2,0,0.2-0.1,0.1-0.2c0-0.1-0.1-0.2-0.1-0.4
			c-0.1-0.2,0-0.4,0.3-0.4c0-0.1,0-0.2-0.1-0.3c0-0.1,0-0.2,0-0.2c0.3-0.1,0.4-0.1,0.6,0.2c0.2,0.2,0.3,0.5,0.2,0.8
			c0,0,0,0.1-0.1,0.1c-0.2,0.1-0.2,0.2-0.3,0.4c-0.2,0.4-0.4,0.9-0.8,1.2c-0.1,0.1-0.3,0.1-0.4,0.2c0.1,0.1,0.1,0.1,0.2,0.2
			c-0.1,0-0.2,0.1-0.3,0.1c0,0.1,0,0.2,0,0.3c-0.3,0.1-0.5,0.1-0.6-0.2c0,0.2-0.1,0.3-0.3,0.2c0,0,0,0,0,0c0.1,0.1,0.2,0.2,0.4,0.3
			c-0.1,0.2-0.2,0.4-0.3,0.6c0,0,0,0-0.1,0c0-0.1-0.1-0.1-0.1-0.2c-0.1,0-0.2,0-0.2,0.1c-0.1,0-0.1,0.1-0.1,0.2
			c-0.1,0.3-0.3,0.5-0.5,0.6c-0.1,0.1-0.2,0.1-0.3,0.2c-0.1,0.1-0.2,0.1-0.3,0.1c-0.1-0.2-0.1-0.4-0.2-0.6c0.3,0.2,0.4-0.1,0.7-0.2
			c-0.1-0.1-0.2-0.1-0.3-0.1c-0.2-0.1-0.2-0.2-0.1-0.3c0.1-0.1,0.2-0.2,0.3-0.3c0,0,0.1,0,0.1,0C256.1,83.6,256.4,83.7,256.7,83.8z"
			/>
	</g>
	<g id="XMLID_193_">
		<path id="XMLID_194_" class="st0" d="M246.4,81.2c0.1-0.1,0.2-0.1,0.3-0.2c0,0,0.1,0,0.2-0.1c0,0.1,0,0.1,0,0.2
			c-0.1,0.3-0.3,0.5-0.6,0.6c-0.2,0.1-0.3,0.1-0.4,0.2c-0.4,0.3-0.7,0.2-1-0.2c-0.2-0.4-0.2-0.8-0.2-1.2c0.1-0.5,0.3-0.9,0.6-1.2
			c0.2-0.2,0.5-0.4,0.8-0.3c0.3,0.1,0.5,0.3,0.6,0.6c0.2,0.6,0.1,1.1-0.2,1.6C246.4,81.1,246.4,81.1,246.4,81.2
			C246.4,81.2,246.4,81.2,246.4,81.2z M245.9,79.2c-0.2,0-0.4,0.1-0.5,0.2c-0.4,0.5-0.6,1-0.6,1.6c0,0.1,0,0.1,0,0.2
			C245,79.9,245.1,79.7,245.9,79.2z M246,80.7c0-0.1,0-0.2-0.1-0.3c0,0-0.1-0.1-0.1-0.1c0,0-0.1,0.1-0.1,0.1c0,0.1,0,0.2,0,0.3
			c0,0.1,0.1,0.2,0.2,0.2C246,80.8,246,80.7,246,80.7z M245.5,81.5c-0.1-0.2-0.2-0.4-0.3-0.5c-0.1,0.2-0.1,0.5,0,0.6
			C245.3,81.6,245.4,81.6,245.5,81.5z M246,81.2c0.2-0.1,0.3-0.4,0.2-0.6C246.1,80.8,246.1,81,246,81.2z M245.4,81.8
			c0.3-0.1,0.3-0.1,0.3-0.3C245.6,81.6,245.5,81.7,245.4,81.8z"/>
	</g>
	<g id="XMLID_191_">
		<path id="XMLID_192_" class="st0" d="M249.4,62.1c0.1,0,0.1-0.1,0.2-0.1c0.2-0.3,0.2-0.3,0.5-0.1c-0.1,0.2-0.1,0.4-0.2,0.7
			c-0.4-0.1-0.8-0.1-1.2-0.4c-0.1-0.1-0.1-0.2-0.1-0.3c0,0,0,0,0,0c-0.7-0.1-1.3-0.1-2-0.2c-0.7,0-1.3-0.1-2-0.1c0,0,0,0,0,0.1
			c-0.3,0-0.5,0-0.7,0c0,0-0.1,0-0.1-0.1c0,0,0,0,0-0.1c-0.2-0.4-0.1-0.6,0.4-0.6c0.6,0,1.2,0,1.8,0c0.6,0,1.2,0.1,1.8,0.2
			c0.5,0.1,1,0.2,1.4,0.4c0,0,0.1,0,0.1,0c0.1-0.1,0.2,0,0.3,0.1C249.6,61.9,249.6,62,249.4,62.1C249.4,62.1,249.4,62.1,249.4,62.1
			C249.4,62.1,249.4,62.1,249.4,62.1z"/>
	</g>
	<g id="XMLID_189_">
		<path id="XMLID_190_" class="st0" d="M235.1,62.3c0.3-0.1,0.5-0.3,0.7-0.5c0.4-0.4,0.9-0.7,1.3-1c0.8-0.5,1.6-1,2.4-1.3
			c0.2-0.1,0.4-0.2,0.7-0.1c0.1,0,0.1,0,0.2-0.1c0.4-0.1,0.7-0.3,1.1-0.4c0.1,0,0.3,0,0.5,0c0,0,0-0.1,0-0.2c0.2,0,0.5-0.1,0.7-0.1
			c0.1,0,0.2,0,0.3,0.1c0.1,0.1,0.1,0.3-0.1,0.3c-0.3,0.1-0.6,0.2-0.9,0.1c-0.1,0.2-0.3,0.2-0.4,0.2c-0.4,0.1-0.8,0.2-1.2,0.3
			c0,0-0.1,0-0.1,0c-0.4,0.3-0.9,0.4-1.3,0.7c-0.6,0.4-1.3,0.8-1.9,1.2c-0.5,0.3-1,0.7-1.4,1.1c-0.1,0.1-0.2,0.2-0.4,0.2
			c-0.2,0-0.2-0.1-0.2-0.2C235,62.5,235.1,62.4,235.1,62.3L235.1,62.3z"/>
	</g>
	<g id="XMLID_184_">
		<path id="XMLID_185_" class="st0" d="M243.3,80.7c-0.2,0.3-0.4,0.6-0.3,0.9c0,0.2,0.2,0.4,0.4,0.3c0.2-0.1,0.3-0.2,0.5-0.3
			c0.1-0.1,0.2-0.2,0.3-0.2c0.1-0.1,0.2,0,0.2,0.1c0,0.1,0,0.2-0.1,0.2c-0.2,0.3-0.5,0.6-0.8,0.7c-0.4,0.2-0.7,0.1-1-0.3
			c-0.2-0.4-0.3-0.8-0.2-1.2c0.1-0.6,0.4-1.1,0.9-1.4c0.2-0.1,0.3-0.2,0.5-0.2c0.3-0.1,0.6,0.1,0.6,0.4c0.1,0.3,0.1,0.7-0.1,1
			c-0.1,0.2-0.3,0.4-0.6,0.4c-0.2,0.1-0.3,0-0.3-0.3C243.3,80.8,243.4,80.7,243.3,80.7C243.3,80.7,243.3,80.7,243.3,80.7z
			 M243.6,79.6c-0.7,0.2-1,0.7-1.2,1.3c-0.1,0.4-0.1,0.6,0,0.7C242.5,80.7,242.8,80,243.6,79.6z M244.2,81.6
			c-0.2,0.2-0.4,0.3-0.7,0.5c0,0,0,0,0,0C243.8,82,244,81.8,244.2,81.6z"/>
	</g>
	<g id="XMLID_176_">
		<path id="XMLID_177_" class="st0" d="M253.1,79.4c0,0,0.1-0.1,0.1-0.1c0.2-0.3,0.4-0.7,0.5-1c0-0.1,0-0.2,0-0.3
			c-0.1-0.2,0-0.5,0.2-0.6c0.1-0.1,0.2-0.1,0.3-0.1c0.1,0,0.1,0.2,0.1,0.3c0,0,0,0.1,0,0.1c-0.1,0.4,0,0.7,0.2,1
			c0.2,0.5,0.2,1,0,1.4c-0.2,0.5-0.6,0.8-1.1,0.8c-0.5,0-0.9-0.4-1-0.9c-0.1-0.4,0-0.7,0.2-1c0.1-0.1,0.2-0.2,0.3-0.3
			c0,0,0.1,0,0.2,0c0,0,0,0.1,0,0.2c0,0.1,0,0.2-0.1,0.4C253.1,79.3,253.1,79.3,253.1,79.4C253.1,79.4,253.1,79.4,253.1,79.4z
			 M254,78.8C253.9,78.8,253.9,78.8,254,78.8c-0.2,0.3-0.4,0.6-0.5,0.9c-0.1,0.1,0,0.2,0.1,0.1c0.1,0,0.2-0.1,0.2-0.1
			c0.2-0.2,0.2-0.5,0.2-0.8C254,78.9,254,78.8,254,78.8z M254,78.2c-0.3,0.5-0.5,1-0.8,1.5C253.5,79.5,254.1,78.5,254,78.2z
			 M253.7,80.1c0.4,0,0.8-0.7,0.6-1.2C254.2,79.4,254.2,79.9,253.7,80.1z M252.6,79.8c0.1-0.3,0.2-0.6,0.4-0.9
			C252.7,78.9,252.5,79.5,252.6,79.8z M253.9,77.9c0.1-0.1,0.1-0.2,0.2-0.4C254,77.5,253.9,77.7,253.9,77.9z"/>
	</g>
	<g id="XMLID_170_">
		<path id="XMLID_171_" class="st0" d="M241.7,81.9c0.1-0.1,0.1-0.2,0.2-0.1c0.1,0.1,0,0.2,0,0.3c-0.2,0.3-0.5,0.6-0.9,0.7
			c-0.4,0.1-0.7,0-0.9-0.4c-0.3-0.6-0.2-1.2,0.2-1.8c0.3-0.5,0.6-0.8,1.2-0.9c0.4-0.1,0.6,0.1,0.7,0.5c0.1,0.6-0.5,1.4-1.1,1.6
			c-0.2,0.1-0.2,0.1-0.2,0.3c0,0.2,0.2,0.3,0.3,0.2C241.4,82.1,241.5,82,241.7,81.9c-0.1,0.1-0.2,0.3-0.3,0.4c0,0,0,0,0,0
			c0.1-0.1,0.3-0.3,0.4-0.4c0,0,0,0,0-0.1C241.8,81.9,241.8,81.9,241.7,81.9z M241.5,79.9c-0.7,0-1.6,1.2-1.3,2
			C240.3,81,240.6,80.3,241.5,79.9z M241.6,81c0-0.1-0.1-0.2-0.2-0.1c-0.2,0.1-0.4,0.3-0.5,0.5c0,0,0.1,0.1,0.1,0.1
			C241.2,81.5,241.6,81.1,241.6,81z M241.2,81.5c0.3-0.1,0.5-0.2,0.6-0.5C241.6,81.2,241.4,81.4,241.2,81.5z"/>
	</g>
	<g id="XMLID_168_">
		<path id="XMLID_169_" class="st0" d="M255.4,66.4c-0.1,0.1-0.1,0.1-0.2,0.1c0.3,0,0.4,0.2,0.5,0.4c0.3,0.6,0.6,1.2,0.8,1.8
			c0,0,0,0.1,0,0.1c0,0-0.1,0.1-0.1,0.1c0,0.3-0.2,0.4-0.4,0.5c-0.1-0.4-0.3-0.7-0.4-1.1c-0.3-0.8-0.8-1.5-1.3-2.2
			c-0.1-0.1-0.1-0.3-0.2-0.4c0,0-0.1-0.1-0.1-0.1c-0.1-0.1-0.2-0.2-0.4-0.3c-0.1-0.1-0.2-0.2-0.3-0.3c0.1-0.2,0.2-0.4,0.3-0.6
			c0,0.1,0.1,0.2,0.1,0.2c0.2,0,0.5,0.1,0.6,0.3C254.8,65.5,255.1,66,255.4,66.4z"/>
	</g>
	<g id="XMLID_166_">
		<path id="XMLID_167_" class="st0" d="M231.9,66.6c-0.3,0-0.7-0.1-1-0.1c0-0.4,0.1-0.6,0.4-0.7c-0.1-0.2,0-0.3,0.1-0.5
			c0.1-0.2,0.2-0.4,0.3-0.5c0.1-0.2,0.3-0.4,0.5-0.5c0.1-0.1,0.2-0.1,0.2-0.3c0-0.2,0-0.4,0.2-0.6c0.3-0.3,0.5-0.6,0.7-0.9
			c0,0.1,0.1,0.1,0.1,0.2c0.1,0.2,0.1,0.4,0.1,0.5c0.1,0.3-0.1,0.6-0.2,0.9c-0.1-0.1-0.1-0.2-0.2-0.3c-0.1,0.2-0.2,0.5-0.3,0.7
			c-0.1,0.3-0.3,0.6-0.5,0.9c-0.1,0.3-0.3,0.6-0.4,0.8c0,0-0.1,0-0.2-0.1C231.9,66.3,231.9,66.5,231.9,66.6L231.9,66.6z"/>
	</g>
	<g id="XMLID_162_">
		<path id="XMLID_163_" class="st0" d="M252.4,82.2c-0.1-0.3,0.1-0.5,0.4-0.5c0,0-0.1-0.1-0.1-0.1c0.1-0.1,0.3-0.2,0.4-0.4
			c0,0,0.1,0,0.1,0c1.1,0,1.6-0.6,1.6-1.6c0,0,0-0.1,0-0.1c-0.1-0.3,0-0.5,0.2-0.7c0.4-0.6,0.7-1.3,1-2.1c0,0,0-0.1,0-0.1
			c0.3,0.1,0.4,0.3,0.5,0.6c-0.1,0-0.2,0-0.4,0.1c0,0,0,0,0,0c0.1,0,0.2,0,0.4,0c-0.1,0.2-0.1,0.5-0.2,0.7c-0.2,0.4-0.4,0.8-0.6,1.2
			c-0.1,0.2-0.3,0.4-0.5,0.4c0.1,0,0.1,0.1,0.2,0.1c-0.3,0.4-0.6,0.9-1,1.3c-0.1,0.1-0.3,0.2-0.6,0.3c0,0.1-0.1,0.2-0.2,0.3
			c0,0-0.1,0.1-0.1,0.1c0,0.2-0.1,0.3-0.2,0.4c-0.2,0.2-0.4,0.3-0.6,0.1c0,0.1-0.1,0.3-0.1,0.4c0,0,0,0,0,0
			C252.5,82.5,252.5,82.4,252.4,82.2C252.4,82.2,252.4,82.2,252.4,82.2z M252.9,81.9c0,0.1,0,0.1-0.1,0.2c0.1,0,0.2,0.1,0.3,0
			C253,82,252.9,81.9,252.9,81.9z"/>
	</g>
	<g id="XMLID_160_">
		<path id="XMLID_161_" class="st0" d="M231.9,66.6c0.1,0,0.2,0,0.3,0c0-0.5,0.2-0.9,0.6-1.3c0.1-0.1,0.2-0.3,0.2-0.4
			c0.1-0.2,0.2-0.3,0.4-0.3c0,0,0.1,0,0.1,0.1c0,0.1,0,0.3-0.1,0.4c-0.3,0.5-0.5,0.9-0.8,1.4c-0.1,0.2-0.2,0.3-0.4,0.5
			c0,0.1,0,0.2,0,0.3c-0.1,0.2-0.2,0.4-0.3,0.6c0,0,0,0.1,0,0.1c-0.2,0.6-0.3,1.2-0.5,1.8c-0.1,0.5-0.2,1-0.2,1.5
			c0,0.2-0.1,0.4-0.1,0.6c-0.1,0-0.2,0-0.3,0c-0.1-0.3-0.2-0.6-0.1-0.9c0.3-1.4,0.6-2.7,1.2-4C231.9,66.9,231.9,66.7,231.9,66.6
			C231.9,66.6,231.9,66.6,231.9,66.6z"/>
	</g>
	<g id="XMLID_152_">
		<path id="XMLID_153_" class="st0" d="M248,78.9C248,78.9,248,79,248,78.9c0,0.3,0,0.4,0.3,0.3c0.2,0,0.3-0.1,0.5-0.2
			c0.1-0.1,0.2-0.1,0.2,0.1c0.1,0.2,0.1,0.4,0.2,0.6c0,0.1,0,0.2,0,0.3c-0.1,0.3-0.3,0.6-0.4,0.9c0,0.1,0,0.2,0,0.2
			c0.1,0,0.2,0,0.2-0.1c0.1-0.1,0.2-0.1,0.3-0.2c0,0,0.1,0,0.2,0c0,0.1,0,0.1,0,0.2c-0.2,0.3-0.4,0.6-0.7,0.7
			c-0.3,0.1-0.6,0-0.7-0.4c-0.1-0.4,0-0.7,0.1-1.1c0-0.1,0-0.2,0-0.2c-0.1-0.1-0.3,0-0.3,0.1c-0.1,0.2-0.2,0.4-0.3,0.6
			c-0.1,0.1-0.1,0.2-0.3,0.2c-0.1-0.1-0.1-0.2-0.1-0.3c0.1-0.2,0.1-0.3,0.2-0.5c0.1-0.1,0.1-0.3,0-0.4c-0.1-0.2-0.1-0.5,0-0.8
			c0.1-0.2,0.2-0.3,0.4-0.3C247.9,78.5,248,78.7,248,78.9z M248.2,81C248.2,81,248.2,81,248.2,81c0.1-0.3,0.2-0.7,0.2-1
			c0,0-0.1,0-0.1,0C248.2,80.3,248.2,80.6,248.2,81z M247.6,79.8C247.6,79.7,247.6,79.7,247.6,79.8c-0.2,0.3-0.3,0.5-0.4,0.8
			c0,0,0,0,0.1,0C247.5,80.3,247.6,80.1,247.6,79.8z M247.5,79.3c0.1-0.2,0.2-0.4,0.2-0.6C247.5,78.8,247.3,79.1,247.5,79.3z
			 M248.5,79.4c0.2,0,0.4-0.1,0.4-0.3C248.7,79.3,248.6,79.3,248.5,79.4z M249.1,81.1C249.1,81.1,249.1,81.2,249.1,81.1
			c0.1,0,0.2-0.1,0.3-0.2c0,0,0,0-0.1-0.1C249.2,80.9,249.1,81,249.1,81.1z"/>
	</g>
	<g id="XMLID_150_">
		<path id="XMLID_151_" class="st0" d="M238.5,86.1c0.3-0.2,0.5-0.2,0.7-0.1c0.4,0.2,0.9,0.4,1.3,0.6c0.1,0.1,0.3,0.1,0.5,0.1
			c0.2,0,0.4,0.1,0.6,0.3c0-0.1,0.1-0.1,0.1-0.1c1.1,0.2,2.2,0.4,3.4,0.6c0.2,0,0.5,0,0.7,0c0,0,0.1,0,0.1,0
			c0.1-0.1,0.2-0.1,0.4-0.1c0.3,0,0.6,0,0.8,0c0.1,0,0.3,0,0.2,0.2c0,0,0,0.1,0,0.1c-0.5,0.2-1,0.2-1.5,0c0,0.1,0,0.1,0,0.2
			c-0.8,0.2-3.7-0.2-4.1-0.5c-0.1,0-0.2,0-0.3,0c-0.2-0.1-0.3-0.1-0.5-0.2c0,0,0,0,0,0c-0.4-0.1-0.8-0.2-1.1-0.4c0,0,0,0-0.1,0
			c-0.3-0.2-0.6-0.3-0.9-0.4C238.6,86.2,238.6,86.1,238.5,86.1z"/>
	</g>
	<g id="XMLID_148_">
		<path id="XMLID_149_" class="st0" d="M259,67.7c-0.2,0.1-0.3,0.1-0.5,0.2c0-0.1-0.1-0.1-0.1-0.2c-0.4-1.1-1-2.1-1.6-3
			c-0.5-0.7-1.1-1.3-1.6-2c0-0.1-0.1-0.1-0.2-0.1c0-0.1,0.1-0.2,0.2-0.3c0,0,0.1,0,0.1,0c1,0.9,1.9,1.9,2.5,3
			c0.4,0.7,0.8,1.4,1.1,2.2C258.9,67.6,259,67.6,259,67.7z"/>
	</g>
	<g id="XMLID_146_">
		<path id="XMLID_147_" class="st0" d="M259.6,77.1c0.1-0.3,0.2-0.5,0.2-0.8c0.1-0.4,0.1-0.8,0.2-1.2c0-0.1,0-0.2,0.1-0.1
			c0-0.3,0-0.6,0-0.8c0.3,0,0.6-0.1,0.9-0.1c0,0.2,0.1,0.4-0.1,0.6c0,0,0,0.1,0,0.1c0.1,0.6,0,1.1-0.2,1.6c-0.1,0.3-0.1,0.5-0.2,0.8
			C260.2,77.1,259.9,77.1,259.6,77.1z"/>
	</g>
	<g id="XMLID_144_">
		<path id="XMLID_145_" class="st0" d="M233.9,71.8c-0.2,0.1-0.5,0.1-0.7,0.2c0.1-0.4,0.1-0.7,0.2-1.1c0.1-0.8,0.3-1.5,0.6-2.3
			c0.1-0.3,0.2-0.4,0.5-0.4c0.3,0,0.3,0,0.3,0.3c0,0.1,0,0.3-0.1,0.4c-0.1,0.3-0.2,0.6-0.3,1C234.1,70.5,233.9,71.2,233.9,71.8z"/>
	</g>
	<g id="XMLID_142_">
		<path id="XMLID_143_" class="st0" d="M234.2,77.6c0.2,0.2,0.4,0.3,0.5,0.5c0.1,0.1,0.3,0.1,0.4,0.3c0,0,0.1,0,0.1,0
			c0.2,0.3,0.3,0.6,0.5,0.9c0.1,0.3,0.3,0.6,0.4,0.9c0,0,0.1-0.1,0.1-0.2c0.1,0.2,0.2,0.3,0.1,0.5c-0.1,0.2-0.1,0.4-0.2,0.6
			c-0.2-0.2-0.4-0.5-0.6-0.8c-0.1-0.1-0.1-0.2,0-0.3c0-0.1,0-0.2-0.1-0.2c-0.2-0.1-0.4-0.3-0.5-0.5c-0.2-0.3-0.3-0.5-0.5-0.8
			c-0.1-0.2-0.2-0.5-0.3-0.7C234.1,77.7,234.1,77.7,234.2,77.6z"/>
	</g>
	<g id="XMLID_140_">
		<path id="XMLID_141_" class="st0" d="M235.2,67.9c0,0-0.1,0-0.1-0.1c0,0.1,0,0.2,0,0.3c-0.2,0-0.5,0-0.8-0.1
			c0.1-0.2,0-0.5,0.3-0.5c0-0.1,0.1-0.2,0.1-0.3c0.1-0.2,0.2-0.3,0.3-0.5c0.1-0.1,0.2-0.3,0.4-0.4c0.1-0.1,0.2-0.1,0.1-0.2
			c0-0.2,0-0.3,0.1-0.4c0.2-0.2,0.4-0.5,0.6-0.8c0,0.1,0.1,0.1,0.1,0.2c0.1,0.3,0.2,0.7-0.1,1c0-0.1-0.1-0.1-0.1-0.2
			C235.8,66.7,235.5,67.3,235.2,67.9z"/>
	</g>
	<g id="XMLID_138_">
		<path id="XMLID_139_" class="st0" d="M246.3,58.8c0.1-0.1,0.2-0.2,0.4-0.3c0,0,0.1,0,0.1,0c0.6,0,1.2,0.1,1.7,0.3
			c0,0,0.1,0.1,0.1,0.1c0,0,0,0.1,0,0.1c0.1,0,0.1-0.1,0.2-0.1c0.3,0,0.6,0.1,0.8,0.2c0.6,0.2,1.1,0.4,1.6,0.6
			c0.1,0,0.1,0.1,0.2,0.1c-0.2,0.3-0.4,0.3-0.7,0.2c-0.4-0.2-0.9-0.4-1.3-0.5c-0.3-0.1-0.5-0.2-0.8-0.3c0,0-0.1,0-0.1,0
			c-0.5,0.1-1-0.1-1.5-0.1C246.9,58.9,246.6,58.8,246.3,58.8z"/>
	</g>
	<g id="XMLID_136_">
		<path id="XMLID_137_" class="st0" d="M234.4,72c-0.1,0-0.1-0.1-0.2-0.1c-0.2,0-0.2-0.2-0.2-0.4c0.1-0.4,0.2-0.8,0.3-1.3
			c0.2-0.7,0.4-1.3,0.7-2c0-0.1,0-0.2,0.1-0.2c0.1,0,0.1,0,0.2,0c0-0.4,0.2-0.7,0.5-1c0.1-0.1,0.1-0.2,0.1-0.3
			c0.1-0.2,0.2-0.2,0.4-0.2c0,0.1,0,0.3-0.1,0.4c-0.2,0.3-0.4,0.6-0.5,0.9c-0.1,0.1-0.2,0.3-0.3,0.4c0,0,0,0.1,0,0.1
			c0,0.3-0.1,0.5-0.2,0.7c0,0-0.1,0.1-0.1,0.1c-0.1,0.5-0.3,0.9-0.4,1.4c-0.1,0.5-0.1,0.9-0.2,1.4C234.5,71.9,234.5,72,234.4,72z"/>
	</g>
	<g id="XMLID_134_">
		<path id="XMLID_135_" class="st0" d="M239.4,62.4c0.3-0.1,0.5-0.2,0.8-0.3c0,0,0.1,0,0.1,0c0.1-0.1,0.3-0.2,0.4-0.2
			c0.5-0.2,1-0.3,1.4-0.5c0.2-0.1,0.4-0.1,0.7-0.1c0,0.2,0.1,0.5,0.1,0.7c-0.4,0-0.7,0.1-1,0c-0.1,0-0.2-0.1-0.3-0.1
			c-0.1,0-0.1,0-0.2,0.2c0,0.2,0,0.3-0.1,0.5c-0.2,0-0.3-0.1-0.5-0.1c0,0.1,0.1,0.1,0.1,0.2c-0.2,0.1-0.4,0.2-0.6,0.2
			c0,0-0.1,0-0.1,0C240.1,62.5,239.8,62.4,239.4,62.4C239.4,62.4,239.4,62.4,239.4,62.4z"/>
	</g>
	<g id="XMLID_132_">
		<path id="XMLID_133_" class="st0" d="M259.4,79.1c0.3,0,0.3-0.3,0.5-0.5c-0.1,0-0.1,0-0.2,0c-0.2,0-0.3-0.1-0.3-0.3
			c0-0.2,0.1-0.3,0.2-0.5c0.1-0.2,0.1-0.3,0.2-0.5c0-0.1,0.1-0.2,0.2-0.1c0.4,0.1,0.6,0.3,0.4,0.7c0,0.1-0.1,0.2,0,0.3
			c0.1,0.2,0,0.5-0.1,0.7c-0.1,0.2-0.2,0.3-0.3,0.5c0,0.1-0.1,0.1-0.2,0.2C259.7,79.4,259.5,79.3,259.4,79.1z"/>
	</g>
	<g id="XMLID_130_">
		<path id="XMLID_131_" class="st0" d="M239.9,87.6c-0.1,0.1-0.2,0.1-0.3,0.2c-0.4-0.2-0.9-0.4-1.4-0.6c-0.1-0.1-0.2-0.2-0.4-0.3
			c0.1-0.1,0.2-0.1,0.3-0.2c0.1,0,0.1,0.1,0.2,0.1c0-0.2-0.3-0.3-0.1-0.5c0,0-0.1,0-0.1-0.1c0,0,0,0,0,0c0.2,0,0.5,0.1,0.7,0.1
			c0.3,0.1,0.6,0.3,0.7,0.6C239.6,87.2,239.7,87.4,239.9,87.6z"/>
	</g>
	<g id="XMLID_128_">
		<path id="XMLID_129_" class="st0" d="M257.4,74.4c-0.1,0.4-0.1,0.8-0.2,1.2c-0.1,0.3-0.2,0.6-0.2,1c-0.1-0.1-0.2-0.1-0.3-0.1
			c0,0-0.1,0-0.2,0c-0.1,0-0.2,0-0.3,0c0-0.1,0-0.2,0-0.3c0.2-0.5,0.2-1,0.3-1.5c0-0.1,0.1-0.1,0.2-0.2
			C256.9,74.6,257.1,74.5,257.4,74.4z"/>
	</g>
	<g id="XMLID_126_">
		<path id="XMLID_127_" class="st0" d="M255.8,69.4c-0.2-0.1-0.4-0.2-0.4-0.5c-0.2-0.7-0.6-1.3-1-1.9c-0.2-0.2-0.3-0.5-0.5-0.7
			c0,0,0-0.1,0-0.1c0-0.1,0-0.2,0.1-0.4c0.1,0.2,0.3,0.3,0.4,0.5c0.6,0.8,1.1,1.7,1.5,2.6C255.8,69,255.8,69.1,255.8,69.4
			C255.9,69.3,255.8,69.3,255.8,69.4L255.8,69.4z"/>
	</g>
	<g id="XMLID_124_">
		<path id="XMLID_125_" class="st0" d="M237.5,85.3c-0.2,0.1-0.4,0-0.5-0.1c-0.4-0.3-0.8-0.6-1.2-0.9c-0.2-0.2-0.3-0.4-0.4-0.7
			c0.2,0,0.4,0,0.5,0.1c0.3,0.2,0.5,0.5,0.8,0.7c0.2,0.1,0.3,0.3,0.5,0.4C237.3,84.9,237.4,85,237.5,85.3z"/>
	</g>
	<g id="XMLID_122_">
		<path id="XMLID_123_" class="st0" d="M251.5,59.9c0.6,0.2,1.2,0.4,1.8,0.8c0.3,0.2,0.3,0.3,0.4,0.5c-0.2,0.2-0.3,0.1-0.6,0
			c-0.4-0.2-0.8-0.5-1.2-0.7C251.7,60.4,251.6,60.2,251.5,59.9z"/>
	</g>
	<g id="XMLID_120_">
		<path id="XMLID_121_" class="st0" d="M240.8,63.1c-0.1-0.1-0.2-0.2-0.3-0.3c0.3-0.1,0.6-0.3,0.9-0.3c0,0,0.1,0,0.1,0
			c0.2-0.1,0.4-0.2,0.6-0.3c0.2-0.1,0.4-0.1,0.6,0c0-0.1,0-0.1,0-0.2c0.2,0,0.3-0.1,0.5-0.1c0.1,0,0.1,0,0.2,0
			c0.1,0,0.1,0.1,0.1,0.1c-0.1,0.1-0.1,0.1-0.2,0.1c-0.2,0-0.4,0-0.6,0.1c0,0,0,0-0.1,0c-0.3,0.2-0.6,0.2-0.9,0.3
			c-0.2,0.1-0.4,0.1-0.6,0.2C241.1,63,240.9,63,240.8,63.1z"/>
	</g>
	<g id="XMLID_118_">
		<path id="XMLID_119_" class="st0" d="M258.5,79.2c0-0.1,0-0.3,0.1-0.4c0.2-0.5,0.4-0.9,0.6-1.4c0-0.1,0.1-0.1,0.2-0.2
			c0,0.1,0.1,0.2,0.1,0.2c0.1,0.6-0.2,1-0.5,1.5C258.8,79.1,258.7,79.1,258.5,79.2C258.5,79.2,258.5,79.2,258.5,79.2z"/>
	</g>
	<g id="XMLID_116_">
		<path id="XMLID_117_" class="st0" d="M255.8,76.8c0,0.1,0.1,0.1,0,0.2c-0.1,0.3-0.2,0.7-0.4,1c-0.2,0.4-0.4,0.7-0.6,1.1
			c-0.1-0.2-0.1-0.3-0.1-0.4c0,0,0-0.1,0-0.1c0.2-0.5,0.4-0.9,0.6-1.4C255.5,76.9,255.7,76.8,255.8,76.8L255.8,76.8z"/>
	</g>
	<g id="XMLID_114_">
		<path id="XMLID_115_" class="st0" d="M241.2,84.5c0.6-0.3,1.3-0.4,1.7-0.3c0,0.2-0.1,0.4-0.1,0.7c-0.1,0-0.1-0.1-0.1-0.1
			c0,0,0-0.1-0.1-0.2c0,0.1,0,0.1,0,0.2C242.1,84.8,241.7,84.6,241.2,84.5z"/>
	</g>
	<g id="XMLID_112_">
		<path id="XMLID_113_" class="st0" d="M255.8,76.8c-0.1-0.1-0.2-0.2-0.1-0.4c0.1-0.6,0.2-1.1,0.4-1.7c0-0.1,0-0.1,0.1-0.2
			c0.1,0,0.2,0.1,0.3,0.1c0,0.2-0.1,0.4-0.1,0.6c-0.1,0.4-0.2,0.8-0.3,1.2C256.1,76.5,256,76.7,255.8,76.8
			C255.8,76.8,255.8,76.8,255.8,76.8z"/>
	</g>
	<g id="XMLID_110_">
		<path id="XMLID_111_" class="st0" d="M243.2,58.9c0-0.1,0-0.2,0-0.2c0-0.2,0.1-0.3,0.2-0.3c0.4,0,0.7-0.1,1.1-0.1
			c0.1,0,0.3,0.1,0.3,0.2c0,0.1-0.1,0.2-0.2,0.2C244.2,58.8,243.7,58.9,243.2,58.9z"/>
	</g>
	<g id="XMLID_108_">
		<path id="XMLID_109_" class="st0" d="M231.8,78.4c0.5,0.2,0.5,0.7,0.7,1.1c0,0.1,0.1,0.2,0.1,0.4c0,0.1,0,0.2-0.1,0.1
			c-0.1-0.1-0.3-0.2-0.3-0.3c-0.2-0.3-0.3-0.6-0.5-0.9c0,0,0-0.1,0-0.2C231.7,78.5,231.7,78.5,231.8,78.4z"/>
	</g>
	<g id="XMLID_106_">
		<path id="XMLID_107_" class="st0" d="M259.3,76.9c0-0.1-0.1-0.2-0.1-0.2c0-0.1-0.1-0.2-0.1-0.4c0,0,0-0.1,0-0.1
			c0.2-0.3,0.2-0.6,0.2-0.9c0-0.2,0.1-0.3,0.3-0.3C259.8,75.6,259.7,76.3,259.3,76.9z"/>
	</g>
	<g id="XMLID_104_">
		<path id="XMLID_105_" class="st0" d="M258,81c-0.2,0-0.2,0-0.3,0.2c-0.1,0.2-0.2,0.4-0.4,0.5c-0.1,0-0.1,0-0.2,0c0,0,0-0.1,0-0.2
			c0-0.3,0.2-0.5,0.4-0.7c0.1-0.1,0.1-0.1,0.1-0.2c0-0.2,0.2-0.3,0.3-0.3c0,0,0.1,0.1,0.1,0.1C258,80.7,258,80.8,258,81z"/>
	</g>
	<g id="XMLID_102_">
		<path id="XMLID_103_" class="st0" d="M253.1,85.6c-0.1-0.1-0.2-0.1-0.3,0c-0.1,0.2-0.3,0.3-0.5,0.3c-0.1,0-0.2,0-0.2-0.1
			c0,0,0-0.1,0-0.2c0.2-0.2,0.4-0.4,0.7-0.4c0.1,0,0.1-0.1,0.2-0.1c0.1-0.2,0.3-0.2,0.4-0.1c0,0,0,0.1,0,0.1
			C253.3,85.3,253.2,85.5,253.1,85.6z"/>
	</g>
	<g id="XMLID_100_">
		<path id="XMLID_101_" class="st0" d="M254.3,84.2c0.1-0.2,0.3-0.3,0.4-0.5c0.1-0.1,0.1-0.1,0.2-0.2c0.3-0.3,0.4-0.3,0.8,0
			C255.1,84.1,254.7,84.4,254.3,84.2z"/>
	</g>
	<g id="XMLID_98_">
		<path id="XMLID_99_" class="st0" d="M234.8,63c-0.1,0.2-0.1,0.4-0.2,0.7c-0.1,0-0.1,0-0.2-0.1c-0.1,0.2-0.1,0.3-0.2,0.5
			c-0.1,0.1-0.2,0.1-0.3,0.1c0,0-0.1-0.1-0.1-0.2c0-0.1,0-0.2,0-0.2c0.1-0.2,0.2-0.3,0.4-0.3C234.3,63.1,234.4,63,234.8,63z"/>
	</g>
	<g id="XMLID_96_">
		<path id="XMLID_97_" class="st0" d="M243.1,58.4c-0.3,0-0.5,0.1-0.8,0c-0.1-0.1-0.2-0.2,0-0.3c0.1-0.1,0.2-0.2,0.3-0.2
			c0.2-0.1,0.2-0.2,0.5-0.1C243.1,57.9,243.1,58.1,243.1,58.4z"/>
	</g>
	<g id="XMLID_94_">
		<path id="XMLID_95_" class="st0" d="M236.3,79.5c-0.2,0-0.3,0-0.4-0.2c-0.1-0.2-0.2-0.3-0.3-0.4c-0.1-0.2-0.2-0.4-0.4-0.6
			c0.1,0,0.2,0,0.3,0c0,0,0.1,0.1,0.1,0.1c0.2,0.3,0.3,0.6,0.5,0.8C236.3,79.3,236.3,79.4,236.3,79.5z"/>
	</g>
	<g id="XMLID_92_">
		<path id="XMLID_93_" class="st0" d="M242.8,84.1c0,0,0-0.1,0-0.1c-0.2,0-0.4,0-0.6,0c0.1-0.3,0.3-0.4,0.6-0.2c0,0,0.1,0,0.1,0
			c0.2,0,0.4,0,0.6,0.1c0,0,0.1,0.1,0.1,0.1c0,0-0.1,0.1-0.1,0.1c-0.1,0-0.2,0-0.2,0C243.1,84.1,242.9,84.1,242.8,84.1z"/>
	</g>
	<g id="XMLID_90_">
		<path id="XMLID_91_" class="st0" d="M243.7,83.9c0.3,0,0.5,0,0.8,0.1c0.1,0,0.2,0,0.3,0c0.1,0,0.2,0,0.1,0.2
			c0,0.1-0.1,0.2-0.2,0.2c-0.2,0-0.5-0.1-0.7-0.1C243.7,84.2,243.7,84.2,243.7,83.9z"/>
	</g>
	<g id="XMLID_88_">
		<path id="XMLID_89_" class="st0" d="M243.7,62.2c0-0.3,0-0.3,0.2-0.4c0.2,0,0.5-0.1,0.7-0.1c0.1,0,0.2,0.1,0.2,0.2
			c0,0-0.1,0.1-0.1,0.2C244.5,62.1,244.1,62.2,243.7,62.2z"/>
	</g>
	<g id="XMLID_86_">
		<path id="XMLID_87_" class="st0" d="M238.4,86.1c-0.1-0.1-0.2-0.1-0.3-0.2c-0.1-0.1-0.2-0.2-0.3-0.2c-0.1,0-0.1-0.1-0.1-0.2
			c0-0.1,0.1-0.1,0.2-0.1c0.2,0,0.3,0.1,0.4,0.2C238.5,85.6,238.5,85.8,238.4,86.1z"/>
	</g>
	<g id="XMLID_84_">
		<path id="XMLID_85_" class="st0" d="M247.9,87.4c0.2-0.4,0.7-0.5,1-0.2c0,0.1-0.1,0.2-0.1,0.2c-0.2,0.1-0.3,0.1-0.5,0.1
			C248.1,87.5,248,87.4,247.9,87.4z"/>
	</g>
	<g id="XMLID_82_">
		<path id="XMLID_83_" class="st0" d="M229.4,72.6c0-0.2,0-0.4,0-0.5c0.3,0.1,0.6,0.1,0.8,0.2c0,0,0.1,0.1,0.1,0.1
			C230,72.4,229.7,72.5,229.4,72.6z"/>
	</g>
	<g id="XMLID_80_">
		<path id="XMLID_81_" class="st0" d="M243.6,61.2c0,0.2,0,0.4,0.1,0.6c-0.2,0-0.4,0-0.6-0.1c-0.1,0-0.2-0.2,0-0.3
			C243.2,61.4,243.3,61.2,243.6,61.2z"/>
	</g>
	<g id="XMLID_78_">
		<path id="XMLID_79_" class="st0" d="M243.7,84.3c0,0.2,0,0.4-0.1,0.6c-0.1,0-0.2,0-0.3-0.1c-0.1-0.1-0.2-0.1-0.3-0.2
			c-0.1-0.1-0.1-0.2,0-0.2C243.3,84.3,243.4,84.3,243.7,84.3z"/>
	</g>
	<g id="XMLID_76_">
		<path id="XMLID_77_" class="st0" d="M231.4,78.8c0.1,0.1,0.1,0.3,0.2,0.4c-0.4,0-0.7-0.2-1.1,0c0-0.1,0-0.1-0.1-0.2
			C230.8,78.9,231.1,78.9,231.4,78.8z"/>
	</g>
	<g id="XMLID_74_">
		<path id="XMLID_75_" class="st0" d="M249.7,86.9c-0.2,0.3-0.4,0.4-0.8,0.3c0.1-0.2,0.1-0.4,0.3-0.5
			C249.4,86.7,249.5,86.8,249.7,86.9z"/>
	</g>
	<g id="XMLID_72_">
		<path id="XMLID_73_" class="st0" d="M255.8,69.4c0.2,0.1,0.3,0.3,0.3,0.6c0,0.1-0.1,0.2-0.2,0.3c-0.1-0.2-0.2-0.4-0.2-0.7
			C255.7,69.5,255.7,69.4,255.8,69.4C255.8,69.4,255.8,69.4,255.8,69.4z"/>
	</g>
	<g id="XMLID_70_">
		<path id="XMLID_71_" class="st0" d="M260.1,69.3c0.1-0.3,0.1-0.6,0.2-0.9c0,0,0.1,0,0.2,0c0,0.2,0,0.4,0,0.6c0,0,0,0.1,0,0.1
			C260.3,69.1,260.2,69.2,260.1,69.3z"/>
	</g>
	<g id="XMLID_68_">
		<path id="XMLID_69_" class="st0" d="M256.2,83c0-0.4,0.2-0.6,0.5-0.6C256.8,82.6,256.6,82.9,256.2,83z"/>
	</g>
	<g id="XMLID_66_">
		<path id="XMLID_67_" class="st0" d="M249.9,86.9c0-0.2,0.1-0.5,0.4-0.5c0.1,0,0.2,0,0.2,0.1C250.4,86.9,250.3,87,249.9,86.9z"/>
	</g>
	<g id="XMLID_64_">
		<path id="XMLID_65_" class="st0" d="M251.4,86.3c-0.1,0.3-0.3,0.3-0.7,0.3C250.7,86.2,251.1,86.1,251.4,86.3z"/>
	</g>
	<g id="XMLID_62_">
		<path id="XMLID_63_" class="st0" d="M236.8,66.1c0,0.1,0,0.2-0.2,0.2c-0.1,0-0.1-0.1-0.1-0.2c0-0.1,0-0.2,0.1-0.3c0,0,0.1,0,0.1,0
			C236.7,65.9,236.8,66,236.8,66.1z"/>
	</g>
	<g id="XMLID_60_">
		<path id="XMLID_61_" class="st0" d="M230.8,72.6c-0.1-0.2-0.3-0.1-0.3-0.3c0.2,0,0.3,0,0.5,0C230.9,72.4,231,72.6,230.8,72.6z"/>
	</g>
	<g id="XMLID_58_">
		<path id="XMLID_59_" class="st0" d="M256.6,69.6c-0.1,0.1-0.3,0.2-0.4,0.3c0-0.1-0.1-0.3,0-0.4C256.3,69.5,256.4,69.6,256.6,69.6z
			"/>
	</g>
	<g id="XMLID_56_">
		<path id="XMLID_57_" class="st0" d="M247.5,87.4c0-0.2,0.2-0.3,0.4-0.3c0,0.1,0,0.2,0,0.3C247.7,87.5,247.6,87.4,247.5,87.4z"/>
	</g>
	<g id="XMLID_54_">
		<path id="XMLID_55_" class="st0" d="M256.7,82.3c-0.1-0.2,0-0.3,0.1-0.4C257,82.1,257,82.2,256.7,82.3z"/>
	</g>
	<g id="XMLID_52_">
		<path id="XMLID_53_" class="st0" d="M251.5,86.2c0-0.2,0.1-0.3,0.3-0.3C251.8,86.2,251.7,86.3,251.5,86.2z"/>
	</g>
	<g id="XMLID_50_">
		<path id="XMLID_51_" class="st0" d="M236.6,65.3c-0.1-0.2-0.1-0.6,0.1-0.8C236.6,64.8,236.6,65.1,236.6,65.3z"/>
	</g>
	<g id="XMLID_48_">
		<path id="XMLID_49_" class="st0" d="M240.9,58.6c0,0.1,0,0.1,0,0.2c-0.2,0-0.2,0-0.2-0.3C240.7,58.6,240.8,58.6,240.9,58.6z"/>
	</g>
	<g id="XMLID_46_">
		<path id="XMLID_47_" class="st0" d="M252.2,82.4C252.2,82.4,252.2,82.4,252.2,82.4c0-0.2,0.1-0.3,0.3-0.2c0,0,0,0,0,0
			C252.3,82.3,252.3,82.3,252.2,82.4C252.2,82.4,252.2,82.4,252.2,82.4z"/>
	</g>
	<g id="XMLID_44_">
		<path id="XMLID_45_" class="st0" d="M241.9,62c0,0.1,0,0.1,0,0.1c-0.2,0-0.2-0.1-0.1-0.2C241.8,61.9,241.8,62,241.9,62z"/>
	</g>
</g>
</svg>
