<?xml version="1.0" encoding="utf-8"?>
<!-- Generator: Adobe Illustrator 19.0.0, SVG Export Plug-In . SVG Version: 6.00 Build 0)  -->
<svg version="1.1" id="Livello_1" xmlns="http://www.w3.org/2000/svg" xmlns:xlink="http://www.w3.org/1999/xlink" x="0px" y="0px"
	 viewBox="0 0 215.4 215.4" style="enable-background:new 0 0 215.4 215.4;" xml:space="preserve">
<style type="text/css">
	.st0{fill:#DA232E;}
</style>
<g id="XMLID_43_">
	<g id="XMLID_306_">
		<path id="XMLID_307_" class="st0" d="M155.9,95.4c1.2-0.5,2.3-0.9,3.4-1.3c0.3-0.1,0.6-0.1,0.8-0.2c1.5-0.1,2.4,0.8,2,2.3
			c-0.5,1.8-1.1,3.6-1.5,5.5c-0.5,2.1-1.1,4.1-0.8,6.3c0.2,1.6,0.9,1.8,2.2,1c0.8-0.5,0.9-1,0.7-1.9c-1.6-5.6,0.7-12,5.6-15.2
			c2.4-1.6,4-1.5,6.2,0.5c0.1-0.1,0.3-0.2,0.3-0.4c0.4-1.3,0.8-2.6,1.1-4c0.2-1.1-0.1-1.5-1.4-2.3c0.6-0.6,1-1.2,1.6-1.6
			c1.4-0.8,2.9-1.6,4.4-2c1.9-0.6,3,0.6,2.4,2.5c-1.2,3.7-2.5,7.4-3.6,11.1c-0.7,2.4-1.1,4.9-1.6,7.3c-0.1,0.5,0,1.1,0.1,1.6
			c0.2,1.2,1,1.5,2,0.8c0.4-0.3,0.9-0.6,1.3-0.9c0.1-0.1,0.3-0.1,0.5-0.1c-0.7-3.6-0.2-7,1.6-10.2c1.8-3.2,4.2-5.6,7.9-6.6
			c3.1-0.8,5.2,0.5,5.1,3.7c-0.1,4.2-1.8,7.7-5.5,10c-0.6,0.4-1.4,0.6-2.1,0.7c-0.8,0.2-1,0.6-1,1.4c0.1,1.4,1.2,2.2,2.4,1.7
			c1.2-0.6,2.3-1.5,3.5-2.3c0.4-0.3,0.7-0.9,1.3-0.4c0.6,0.5,0.4,1.1,0.1,1.6c-1.7,2.5-3.9,4.4-6.9,5.3c-2.2,0.7-4.4-0.2-5.5-2.2
			c-0.3-0.5-0.5-1-0.8-1.6c-1.1,2.1-2.4,3.9-4.4,5.1c-0.5,0.3-0.9,0.6-1.4,0.8c-1.3,0.6-2.1,0.3-2.9-0.8c-1.2-1.8-1.1-1.5-2.4-0.2
			c-2.2,2.3-4.7,2.3-6.7-0.2c-0.1-0.1-0.2-0.2-0.4-0.4c-1.2,2.1-2.7,3.7-4.8,4.9c-2,1.2-3,1-4.2-1.1c-0.4-0.7-0.6-0.7-1.2-0.1
			c-0.6,0.6-1.3,1.3-2,1.7c-1.8,1.1-3.6,0.8-5-0.9c-2-2.4-2.6-5.3-2.3-8.4c0.3-4,2.3-7.2,5.3-9.7c0.9-0.7,2-1.2,3.1-1.6
			C153.9,94.1,155.1,94.3,155.9,95.4z M151.1,106.5c0,1,0.2,2,1.1,2.7c0.6,0.5,1.4,0.4,1.6-0.4c0.5-1.5,0.8-3.1,1.1-4.6
			c0.1-0.8-0.1-1.6-1-1.9c-0.8-0.3-1.5,0.3-1.9,0.9C151.6,104.2,151.1,106.5,151.1,106.5z M169.1,102.8c0,1.1,0.2,2,1.1,2.6
			c0.7,0.5,1.5,0.3,1.7-0.4c0.4-1.5,0.8-3.1,1.1-4.6c0.1-0.7-0.1-1.5-0.9-1.8c-0.8-0.3-1.4,0.2-1.8,0.8
			C169.3,100.3,169.1,101.6,169.1,102.8z M192,89.3c-0.1-0.1-0.2-0.3-0.3-0.4c-3.2,0.8-5.5,2.8-7.4,5.6c-1.8,2.7-2.3,6.9-1.4,8.2
			C183.4,96.5,185.9,91.7,192,89.3z M153.2,96.3c-0.1-0.1-0.1-0.2-0.2-0.2c-0.5,0.1-1,0.2-1.4,0.4c-1.9,0.8-3.2,2.3-4.3,3.9
			c-1.4,2.1-2,4.4-2.2,6.9c0,0.5,0,1.1,0.6,1.5C146,103.2,147.9,98.7,153.2,96.3z M163.7,105c0-5.7,2.4-9.9,7.5-12.6
			c-1.9-0.2-5.2,2.3-6.4,4.6C163.3,100.1,162.6,103.9,163.7,105z M188.5,99.9c1.3-0.1,3.5-1.8,3.9-3.1c0.1-0.3,0.1-0.8-0.1-1
			c-0.2-0.2-0.7-0.2-1-0.1c-1.6,0.7-2.5,2-3.1,3.5C188.2,99.4,188.4,99.7,188.5,99.9z M174.3,100.2c-0.8,2.4-1.6,4.7-2.4,7
			C173.6,107,175.2,102.5,174.3,100.2z M154.1,111c1.6-0.5,3.1-5.2,2.2-7.2C155.6,106.2,154.8,108.6,154.1,111z M177.2,87.5
			c-0.7,2.2-1.4,4.4-2.2,6.7C176.5,93.5,177.8,89.7,177.2,87.5z M181,84.1c-0.9-0.7-4,0.3-5.2,1.5c0.4,0.1,0.8,0.4,1,0.3
			C178.2,85.4,179.5,84.8,181,84.1z M194.6,103.2c-1.2-0.3-3,1.5-3.3,3C192.7,105.4,193.8,104.5,194.6,103.2z M193.6,97
			c-1.3,1.2-2.6,2.4-3.9,3.7C191.5,100.2,193.1,98.7,193.6,97z M159.8,95.7c-1.2-0.3-3.1,0.6-3.3,1.5
			C157.7,97,158.8,96.6,159.8,95.7z"/>
	</g>
	<g id="XMLID_297_">
		<path id="XMLID_298_" class="st0" d="M41,108.7c1.5-1.3,2.8-2.6,4.2-3.6c0.9-0.7,2-1.2,3-1.5c1.4-0.5,2.5,0.2,2.6,1.7
			c0.1,1.2,0,2.5-0.3,3.7c-1.2,4.9-2.5,9.7-3.8,14.6c-0.2,0.7-0.4,1.4-0.4,2.1c0,0.3,0.1,0.8,0.3,1c0.2,0.1,0.6,0,1-0.1
			c0.1,0,0.1-0.1,0.1-0.1c0.4-0.2,0.7-0.3,1.1-0.4c0,0.5,0.1,1-0.1,1.4c-0.9,2.3-2.5,4.1-4.5,5.4c-2.3,1.5-4.3,0.5-4.9-2.1
			c-0.6-2.6-0.2-5.1,0.5-7.6c0.8-2.7,1.6-5.5,2.3-8.3c0.1-0.5,0.1-1.4-0.2-1.6c-0.6-0.4-1.2,0.2-1.6,0.6c-0.2,0.3-0.5,0.6-0.6,0.9
			c-1.3,4.4-2.6,8.8-3.8,13.3c-0.4,1.4-0.3,2.9-0.4,4.3c0,0.8-0.3,1.4-1.1,1.7c-0.6,0.2-1.2,0.3-1.7,0.5c-1.6,0.3-2.7-0.3-3.2-2
			c-0.7-2.5-0.4-4.9,0.2-7.3c0.8-3,1.7-6,2.4-9c0.1-0.5-0.1-1-0.2-1.6c-0.5,0.2-1.1,0.4-1.5,0.7c-0.4,0.3-0.6,0.9-0.7,1.4
			c-1.2,4.3-2.3,8.6-3.5,12.8c-0.1,0.5-0.3,1-0.3,1.5c0,0.4,0.1,0.8,0.4,1c0.4,0.4,0.5,0.7,0.4,1.2c-0.4,1.6-3,3.4-4.6,3.2
			c-0.6-0.1-1.3-0.6-1.7-1.1c-1-1.2-1.1-2.7-1.1-4.1c-0.1-2.6,0.8-5.1,1.5-7.6c0.8-2.8,1.4-5.7,2.1-8.6c0.1-0.5,0.2-1.1,0.1-1.5
			c-0.4-1.7,0.4-3,1.6-4.1c1-1,2.2-1.9,3.4-2.7c0.4-0.3,0.8-0.4,1.3-0.5c1.2-0.3,1.9,0.2,2,1.5c0,0.7,0,1.4,0,2.3
			c0.3-0.3,0.5-0.5,0.7-0.7c1.5-1.5,3.1-3,5.2-3.9c0.3-0.1,0.5-0.2,0.8-0.3c1.7-0.5,2.8,0.3,2.9,2.1C41.1,107.8,41,108.2,41,108.7z
			 M20.7,132.4c0.1,0,0.1,0,0.2,0c0-0.1,0.1-0.2,0.1-0.2c0.4-3.5,1.6-6.8,2.5-10.2c0.6-2.4,1-4.8,1.4-7.2c0.1-0.4-0.1-0.8-0.1-1.2
			c-0.1,0-0.2,0-0.3,0c-0.1,0.3-0.3,0.7-0.3,1c-0.4,3.1-1.4,6.1-2.3,9c-0.7,2.3-1,4.8-1.5,7.2C20.3,131.3,20.6,131.9,20.7,132.4z
			 M30.4,130.6c0.1,0,0.2,0,0.3,0c0.3-1.4,0.6-2.7,1-4.1c0.8-3.3,1.6-6.6,2.4-9.9c0.1-0.4,0-0.8,0-1.2c-0.1,0-0.2,0-0.3,0
			c-0.1,0.1-0.1,0.2-0.2,0.3c-1.1,4.1-2.2,8.3-3.2,12.5C30.2,128.9,30.4,129.8,30.4,130.6z M44,114.2c-0.1,0-0.1-0.1-0.2-0.1
			c-0.1,0.3-0.3,0.5-0.3,0.8c-0.4,1.3-0.9,2.7-1.3,4c-0.7,2.5-1.4,5.1-2,7.6c-0.2,0.9,0,1.8,0.1,2.7c0.1,0,0.3,0,0.4,0
			C40.8,124,43.5,119.3,44,114.2z M38.9,106.8c-2.1-0.2-7.1,3.8-6.8,5.5C34.3,110.5,36.6,108.7,38.9,106.8z M41.7,110.8
			c0.3-0.1,0.5-0.1,0.7-0.3c2.1-1.7,4.2-3.5,6.2-5.2C47,105,41.6,109.1,41.7,110.8z M24.3,113.1c1.9-1.7,3.7-3.3,5.5-5
			c-0.1,0-0.3-0.1-0.4-0.1c-2.2,0.8-3.9,2.1-5.1,4.1C24.1,112.4,24.3,112.8,24.3,113.1z"/>
	</g>
	<g id="XMLID_284_">
		<path id="XMLID_285_" class="st0" d="M84.7,123.5c-0.9,0.9-1.6,1.9-2.6,2.7c-0.7,0.6-1.6,1.1-2.5,1.3c-2,0.5-3.6-0.5-4.2-2.4
			c-0.6-2.2-0.3-4.4,0.3-6.5c0.2-0.6,0.4-1.3,0.6-1.9c0.1-0.2,0-0.5-0.1-0.7c-0.5-0.5-2.2-0.3-2.6,0.4c-0.8,1.4-1.5,2.8-2.2,4.2
			c-0.2,0.4-0.4,0.8-0.7,1c-0.7,0.7-1.6,0.4-1.7-0.6c-0.1-0.6,0.1-1.3,0.3-1.9c0.5-1.3,1.1-2.5,1.5-3.7c0.2-0.5,0.2-1.2,0-1.7
			c-0.8-2-1-4,0-6c0.3-0.5,0.7-1.1,1.1-1.5c0.9-0.8,2.1-0.6,2.6,0.5c0.4,0.8,0.4,1.7,0.6,2.6c0.1,0.3-0.1,0.7-0.1,1
			c0,0.5,0.2,0.8,0.7,0.8c1.9,0.3,3.5-0.5,4.9-1.7c0.9-0.7,1.1-0.6,1.4,0.6c0.3,1.2,0.7,2.4,1.2,3.5c0.3,0.7,0.3,1.2-0.1,1.9
			c-1.2,1.9-2.2,3.9-2.7,6.1c-0.1,0.7-0.5,1.4,0.2,1.9c0.7,0.5,1.3-0.2,1.8-0.5c0.1-0.1,0.2-0.1,0.3-0.2c1-0.7,1.7-1.5,1.9-2.9
			c0.4-2.3,1.4-4.6,2-6.9c0.3-1.2,0.3-2.5,0.4-3.7c0-0.3,0.2-0.7,0.4-1c1.1-1.4,2.5-2.3,4.1-3.1c2.2-1,3-0.6,3.2,2
			c0.4-0.3,0.8-0.6,1.2-0.9c1.6-1.2,3.2-2.3,5.2-2.7c1.8-0.3,2.3,0.1,2.4,1.9c0,0.1,0,0.2,0,0.5c0.4-0.3,0.7-0.6,1-0.8
			c1.6-1.3,3.3-2.5,5.4-3c0.4-0.1,0.7-0.2,1.1-0.2c0.9,0,1.6,0.4,1.5,1.4c0,1.4-0.1,2.8-0.5,4.1c-0.7,2.7-1.6,5.3-2.5,8
			c-0.2,0.5-0.3,1-0.4,1.5c-0.1,0.7,0.3,1,1,0.8c0.3-0.1,0.5-0.3,0.8-0.4c0.2-0.1,0.5-0.1,0.7-0.1c0,0.2,0.1,0.5,0,0.7
			c-1.3,2.4-3.1,4-5.8,4.5c-1.1,0.2-2.3-0.6-2.8-1.7c-0.5-1.1-0.6-2.3-0.3-3.5c0.6-2,1.2-4,1.8-5.9c0.1-0.4,0.3-0.8,0.3-1.2
			c0-0.4-0.1-0.9-0.1-1.3c-0.5,0.1-1,0.2-1.5,0.4c-0.2,0.1-0.4,0.4-0.5,0.7c-1,3.2-2.1,6.3-3.1,9.5c-0.2,0.8-0.1,1.6-0.1,2.5
			c0,0.5,0,1.1-0.6,1.2c-1,0.3-2.1,0.6-3.1,0.6c-1.4,0-2.4-1.3-2.4-3c0-1.4,0.4-2.7,0.7-4c0.5-1.7,1.1-3.4,1.6-5.2
			c0.1-0.3,0.1-0.9-0.1-1c-0.3-0.1-0.8-0.1-1.1,0.1c-0.4,0.2-0.8,0.6-1,1c-1,3.3-2,6.6-3,9.9c-0.1,0.3,0.1,0.8,0.3,0.9
			c0.6,0.4,0.5,0.8,0.2,1.2c-1.4,2.3-4.9,2.5-6.4,0.2C84.9,123.6,84.8,123.5,84.7,123.5z M85.8,122c0.4-1.2,0.7-2.2,0.9-3.3
			c0.7-2.7,1.5-5.4,2.1-8.1c0.3-1.2,0.8-2.1,1.8-2.7c0.6-0.4,1.2-0.7,1.8-1c0.2-0.1,0.4-0.4,0.6-0.6c-0.1-0.1-0.1-0.1-0.2-0.2
			c-1.7,0.4-3.3,1.3-4.5,2.6c-0.1,0.1-0.1,0.5-0.2,0.7c-0.1,1.2,0,2.4-0.3,3.5c-0.6,2.2-1.4,4.3-2.2,6.5
			C85.5,120.2,85.3,121,85.8,122z M106.8,109.2c-0.1-0.1-0.3-0.2-0.4-0.2c0,0.1-0.1,0.2-0.1,0.3c-0.8,2.5-1.7,4.9-2.5,7.4
			c-0.2,0.7-0.4,1.6,0.3,2.5C105.2,115.7,106.2,112.5,106.8,109.2z M97.6,110.6c-0.1,0-0.2,0-0.3-0.1c-0.9,3-2.4,5.9-2.6,9.1
			c0,0.3,0.1,0.6,0.2,0.9c0.2-0.1,0.3-0.2,0.3-0.2c0.8-2.7,1.6-5.4,2.4-8.1C97.6,111.7,97.5,111.1,97.6,110.6z M110.7,103.6
			c-1.8-0.2-6.1,2.2-6.5,3.8C106.6,106.5,108.3,104.5,110.7,103.6z M78,116c-1.3,0.8-2.2,5.8-1.5,7.5C77,121,77.5,118.6,78,116z
			 M95.6,108.7c2-1.2,4-2.4,6-3.7C100.1,104.7,95.8,107.2,95.6,108.7z M70,120.3c1.3-1,2.8-4.9,2.3-6.1
			C71.4,116.3,70.4,118.2,70,120.3z M73.1,107.2c-1.1,0.2-1.5,1.1-1.9,1.9c-0.4,0.7-0.4,1.5,0.2,2.2C72,110,72.5,108.7,73.1,107.2z
			 M81.2,110.7c-1.2,0.4-2.1,0.9-2.9,1.9C79.8,112.6,81.1,111.8,81.2,110.7z M82.3,124.2c0.1,0.1,0.1,0.1,0.2,0.2
			c1.5-0.9,2-1.4,1.8-2.2C83.6,122.9,82.9,123.6,82.3,124.2z"/>
	</g>
	<g id="XMLID_274_">
		<path id="XMLID_275_" class="st0" d="M123.9,67.1c-0.2,0.1-0.4,0.3-0.5,0.4c-1,1.5-1.8,3-2.1,4.8c-0.3,2.3,1.3,3.7,3.4,2.9
			c1.3-0.5,2.4-1.4,3.6-2.1c0.5-0.3,0.9-0.8,1.5-1c0.3-0.1,0.8-0.2,0.9-0.1c0.2,0.2,0.4,0.7,0.3,1c-0.1,0.5-0.3,1.1-0.6,1.5
			c-1.7,2.3-3.7,4.3-6.4,5.5c-2.2,0.9-4.5,0.2-5.9-1.9c-0.2-0.3-0.4-0.6-0.6-1c-0.3,0.3-0.5,0.6-0.7,0.9c-1.1,1.7-2.7,2.9-4.4,3.8
			c-1.4,0.7-2.6,0.4-3.4-1.1c-0.7-1.2-0.7-1.2-1.6-0.2c-0.5,0.5-1,1-1.6,1.4c-1.8,1.1-3.6,0.9-5-0.7c-1.6-1.8-2.3-4.1-2.4-6.5
			c-0.2-5.2,2-9.2,6.1-12.3c0.5-0.4,1-0.6,1.6-0.8c1.5-0.5,2.9-0.7,4,0.7c1.2-0.4,2.2-0.9,3.3-1.3c0.3-0.1,0.6-0.1,0.9-0.2
			c1.4-0.2,2.3,0.9,2,2.2c-0.7,2.7-1.5,5.4-2,8.1c-0.3,1.3-0.3,2.7-0.2,4c0.1,1.3,0.9,1.5,2,0.8c0.7-0.5,0.9-0.9,0.8-1.9
			c-1-5.5,2-12.3,6.7-15.2c0.7-0.4,1.4-0.7,2.2-1c2.7-0.8,4.9,0.5,5.4,3.3c0.3,1.8,0.3,3.6-0.5,5.3c-0.9,2-2.4,3.2-4.5,3.8
			c-1.3,0.3-2.6-0.6-2-2c0.1-0.3,0.1-0.8,0.1-1.1C124,67.1,123.9,67.1,123.9,67.1z M109.2,71.2c-0.2-1.1-0.6-1.9-1.2-2
			c-0.9-0.2-1.4,0.3-1.9,1c-0.9,1.4-1.3,3-0.8,4.7c0.2,0.5,0.6,1,1,1.3c0.6,0.5,1.3,0.3,1.5-0.4C108.4,74.2,108.8,72.7,109.2,71.2z
			 M117.5,73.2c0.1,0,0.3,0.1,0.4,0.1c0.1-6.2,2.5-10.9,8.2-13.8c-3.5,0.5-5.5,2.8-6.8,5.7C118.1,67.7,116.8,70.3,117.5,73.2z
			 M99.5,75.5c0.5-5.4,2.4-9.9,7.8-12.4c-1.8-0.4-4.8,1.7-6.4,4.8C99.6,70.3,98.7,72.8,99.5,75.5z M110.4,70.7
			c-0.8,2.5-1.5,4.9-2.2,7.3C109.8,77.2,111.3,72.7,110.4,70.7z M125,76.9c1.5,0,4.6-2.4,4.8-3.6C128.2,74.5,126.6,75.7,125,76.9z
			 M113.8,62.9c0-0.1-0.1-0.2-0.1-0.3c-1.3-0.2-3.2,0.8-3,1.7C111.7,63.8,112.7,63.3,113.8,62.9z M125.5,67.3c-0.1,0-0.2,0-0.3-0.1
			c-0.1,0.5-0.3,1-0.4,1.7C125.7,68.5,125.9,68.1,125.5,67.3z"/>
	</g>
	<g id="XMLID_266_">
		<path id="XMLID_267_" class="st0" d="M142,112.7c-0.2,0.4-0.2,0.8-0.4,1.1c-1.1,1.8-2.6,3.2-4.6,4c-1.7,0.7-3.1,0.1-3.9-1.6
			c-0.1-0.1-0.1-0.3-0.2-0.5c-0.2,0.3-0.4,0.4-0.6,0.7c-1.1,1.5-2.5,2.6-4.1,3.4c-1.5,0.8-2.6,0.4-3.5-1c-0.6-1.1-0.7-1.2-1.6-0.2
			c-2.8,3.1-5.9,2.8-7.8-0.8c-2.2-4.3-1.8-8.7,0.6-12.8c1-1.7,2.3-3.2,3.9-4.3c0.8-0.6,1.8-1,2.8-1.2c1-0.3,2-0.1,2.8,0.7
			c0.1,0.1,0.6,0.1,0.8,0.1c1.2-0.4,2.3-0.9,3.5-1.2c1.6-0.4,2.6,0.7,2.1,2.4c-0.5,1.9-1.1,3.7-1.5,5.6c-0.4,1.6-0.6,3.2-0.8,4.7
			c0,0.2,0,0.4,0,0.6c0,1.3,0.4,2.1,1,2.2c0.7,0.1,2-1.1,2.3-2c1-3.6,2.1-7.3,3.1-10.9c0.7-2.5,1.3-5,1.9-7.6c0.1-0.6,0-1.4,0-2
			c0-0.3,0.1-0.8,0.3-1c1.3-1.7,3.1-2.9,5.2-3.5c1.5-0.4,2.3,0.2,2,1.7c-0.5,2.8-1.2,5.7-1.9,8.4c-1.2,4.7-2.6,9.3-3.9,14
			c0,0.2-0.1,0.3-0.1,0.5c-0.2,0.9,0.2,1.2,1.1,0.9c0.4-0.1,0.7-0.3,1.1-0.5C141.7,112.6,141.8,112.6,142,112.7z M143.7,89.2
			c0-0.1-0.1-0.2-0.1-0.2c-1.6,0.4-3.2,0.9-4.4,2.2c-0.2,0.2-0.1,0.5-0.1,0.8c0,0.6,0.2,1.2,0.1,1.7c-1.1,4.2-2.4,8.3-3.5,12.5
			c-0.6,2.3-1.2,4.7-1.7,7.1c-0.1,0.3,0,0.7,0,1.1c0.3-0.2,0.4-0.5,0.5-0.7c1.2-4.1,2.5-8.3,3.7-12.4c0.8-2.6,1.5-5.3,1.6-8.1
			c0-0.9,0.3-1.6,1-2.1c0.7-0.5,1.4-0.9,2.1-1.4C143,89.6,143.3,89.4,143.7,89.2z M120.9,111.2c0,1.5,0.4,2.4,1.1,2.9
			c0.6,0.4,1.3,0.3,1.6-0.3c0.7-1.6,1.2-3.3,1.1-5.1c0-0.5-0.5-1.2-0.9-1.5c-0.6-0.4-1.2,0.1-1.6,0.5
			C121.2,108.8,121,110.1,120.9,111.2z M115.5,113.7c0.3-5.6,2.2-10,7.4-12.6c-3.2,0.5-5,2.7-6.4,5.3
			C114.8,109.2,114.4,112.5,115.5,113.7z M123.9,115.9c1.7-0.6,3.2-5.2,2.2-7.2C125.3,111.2,124.6,113.5,123.9,115.9z M129.5,100.9
			c0-0.1-0.1-0.2-0.1-0.3c-1.2-0.2-2.9,0.6-3.2,1.7C127.4,101.9,128.4,101.4,129.5,100.9z"/>
	</g>
	<g id="XMLID_257_">
		<path id="XMLID_258_" class="st0" d="M77.7,72.3c-0.1,0.5-0.3,1-0.4,1.4c-0.3,1-0.9,1.3-1.8,1.1c-0.9-0.2-1.1-0.1-1.3,0.8
			c-0.3,1.3-0.6,2.6-1,3.9c-0.2,0.8-0.6,1.6-1.5,1.7c-1.1,0.1-2.2,0.1-2.9-0.8c-0.3-0.4-0.4-1.1-0.3-1.6c0.4-2.2,1-4.5,1.4-6.7
			c0.2-1.1,0.2-2.3,0.2-3.4c0-0.8,0.1-1.5,0.7-1.9c1.1-0.9,2.2-1.8,3.4-2.6c0.4-0.2,1.2-0.3,1.5-0.1c0.3,0.3,0.4,1,0.4,1.5
			c-0.1,0.9-0.3,1.7-0.4,2.6c0,0.2,0.1,0.5,0.2,0.6c0.1,0.1,0.4,0,0.6-0.1c1.8-1.1,2.9-4.1,2.4-6.1c-0.4-1.4-1.3-2-2.6-1.6
			c-1.1,0.4-2.2,1-3,1.7c-2,1.8-3.9,3.9-4.7,6.6C68.3,69.7,68,70,67.9,70c-0.2,0-0.5-0.2-0.7-0.4c-1.1-1.9-1.8-3.9-0.7-6
			c2.2-4.1,5.5-7.1,10-8.6c3-1,5.9,0.5,6.8,3.6c0.9,3,0.5,5.7-1.5,8.2c-0.8,0.9-0.7,1.1,0.3,1.5c2.1,0.8,2.9,2.4,3.1,4.5
			c0.1,1.7-0.2,3.4-0.9,5c-1.8,4.3-4.4,7.8-8.8,9.7c-3.1,1.3-6.2,1.6-9.4,0.2c-4.1-1.8-5-7.6-1.6-10.6c0.3-0.2,0.7-0.4,1.1-0.7
			c0.1,0.3,0.2,0.5,0.2,0.7c0.7,4.4,3.6,6.1,7.8,4.9c4-1.1,5.4-5.7,4.7-8.8c-0.1-0.4-0.4-0.7-0.6-1C77.9,72.3,77.8,72.3,77.7,72.3z
			 M67,66.3c0.1,0,0.3,0,0.4,0.1c1.5-5,5.6-7.5,9.8-9.9c-0.5,0-1,0.1-1.4,0.3c-2.6,1-4.7,2.7-6.5,4.8c-0.9,1-1.6,2.3-2.2,3.4
			C66.9,65.3,67,65.9,67,66.3z M71.2,69.3c-0.6,3.4-1.3,6.8-1.9,10.3C70.7,78.9,72.1,71.4,71.2,69.3z M80,74c-0.4,4.3-1.6,8-6.1,9.7
			C76.9,84.1,81.4,79,80,74z M80.1,63.6c-0.2,2.9-2.3,4.7-3.7,7.1C78.9,70.3,80.9,66.5,80.1,63.6z M74.8,65.8
			c-1.4-0.1-3.4,1.1-3.7,2.2c-0.1,0.3,0.1,0.7,0.1,1.1C72.5,68,73.5,67,74.8,65.8z M65.4,78.3c-1.5,0.7-2.3,3.3-1.4,4.2
			C64.4,81.1,64.8,79.8,65.4,78.3z"/>
	</g>
	<g id="XMLID_255_">
		<path id="XMLID_256_" class="st0" d="M154.2,170.9c0.2-0.7,0.5-1.5,0.8-2.3c1.6,0.2,2.1,0.7,2.4,2.1c0.3,1.4,0.1,2.7-0.9,3.7
			c-0.2,0.2-0.5,0.4-0.7,0.4c-0.9-0.1-1.3,0.6-1.9,1.1c-2,1.7-4.2,3.1-6.7,3.7c-0.6,0.2-1.3,0-2.1,0c0.2,0.3,0.4,0.7,0.7,1.3
			c-0.6,0-1.1-0.1-1.6-0.1c-0.2,0.4-0.3,0.8-0.5,1.2c-1.4-0.1-2.4-0.6-2.4-2.3c-0.4,0.3-0.7,0.5-1,0.7c-0.3-0.2-0.7-0.3-1-0.5
			c-0.1,0-0.1,0.1-0.2,0.1c0.3,0.7,0.7,1.4,1.1,2.2c-1.1,0.7-2.1,1.4-3.1,2.1c-0.6,0.4-1,0.2-1.4-0.5c-0.8-1.3-0.8-1.3-1.7-1.2
			c0,0.9,0.3,2-0.1,2.5c-0.4,0.5-1.6,0.5-2.5,0.7c0,0.6-0.5,0.6-1.1,0.7c-1.7,0.3-3.3,0.8-5,1.1c-1.5,0.3-3.1,0.5-4.6,0.7
			c-0.3,0-0.7-0.2-1-0.3c0.1-0.2,0.1-0.4,0.2-0.7c-0.1,0-0.2,0-0.2,0.1c-0.6,0.4-1.1,0.9-1.8,1.2c-0.4,0.2-1,0-1.5,0
			c-0.2,0-0.4-0.1-0.6,0c-4.5,1.2-9.1,1-13.7,0.5c-5.9-0.6-11.7-1.7-17.4-3.2c-1.7-0.5-3.3-1.1-4.1-2.7c0.3-0.6,0.7-1.3,1.1-2.1
			c0.3,0,0.7,0.1,1.2,0.2c0.6,0,1.2,0,1.9,0c1.2,0.1,2.5,0.2,3.7,0.5c5.1,1.6,10.3,2,15.5,2.5c2.4,0.2,4.9,0.3,7.3,0.3
			c1,0,1.9-0.2,2.9-0.4c1.1-0.3,2.2,0.1,3.2,0.4c1.1,0.4,1.4,0.2,2-0.7c0.1-0.2,0.6-0.4,0.8-0.4c0.7,0.2,1.5,0.6,2.2,0.9
			c-0.3-0.6,0.1-0.9,0.7-1c0.1,0,0.2,0,0.2-0.1c0.8-0.8,1.7-0.8,2.6-0.3c0.1,0.1,0.4-0.1,0.5-0.2c1.5-1.3,3.2-1.5,5.1-1.4
			c0,0.8,0,1.4,0,2.1c0.4-0.4,0.8-0.7,1.2-1.2c-0.2-0.1-0.4-0.3-0.5-0.4c-0.1-1.7,1.2-1.9,2.3-2.3c0.5-0.2,0.9-0.4,1.5-0.6
			c0.4,0.1,0.8,0.2,1.4,0.3c0,0.4,0,0.9,0,1.4c0.1,0,0.2,0,0.3,0c0-0.5,0-1,0-1.5c0.3,0,0.6,0,0.8,0.1c0-0.1-0.1-0.1-0.1-0.2
			c1.3-1.1,2.7-1.9,4.3-2.7c0.2,0.1,0.5,0.2,0.8,0.4c1.1-1.8,1.3-2,2.9-1.5c0.1-0.3,0.3-0.7,0.4-1c0.3-0.6,0.7-0.9,1.4-1
			c0.6-0.1,1.1-0.6,1.7-1c0.7,0.5,0.8,0.7,0.2,1.7c0.3,0.1,0.6,0.3,0.9,0.3c0.6,0.1,0.9-0.1,0.9-0.7c0.1-0.8,0.1-1.7,0.3-2.5
			c0.1-0.4,0.5-1,0.8-1.1C153.2,170.4,153.7,170.7,154.2,170.9z"/>
	</g>
	<g id="XMLID_247_">
		<path id="XMLID_248_" class="st0" d="M143,57.4c0.9-0.2,1.6-0.3,2.4-0.4c4-0.7,5.2,1.4,4.3,4.8c-0.7,2.8-2.6,4.8-4.9,6.5
			c-0.2,0.1-0.4,0.2-0.6,0.4c-0.2,0.3-0.7,0.9-0.5,1.1c0.3,0.4,0.8,0.8,1.2,0.8c0.7,0,1.4-0.4,2-0.7c0.6-0.3,1.1-0.9,1.7-1.1
			c0.3-0.2,1-0.2,1.2,0c0.2,0.2,0.3,0.8,0.2,1.2c-0.2,0.5-0.6,1-0.9,1.4c-1.3,1.3-2.6,2.7-4,3.9c-1.5,1.3-2.9,1.2-4.4,0
			c-0.6-0.5-1.2-1.1-1.9-1.7c-0.4,0.8-0.7,1.6-1.1,2.4c-0.7,1.6-1.9,2.1-3.5,1.3c-2-0.9-2.7-2.2-2-4.2c1.6-4.6,2.5-9.4,3.2-14.1
			c0.2-1.5,0.4-3.1,0.5-4.6c0-0.7-0.1-1.5-0.3-2.2c-0.2-0.6-0.1-1.1,0.3-1.6c1.6-1.6,3.4-2.7,5.6-3.1c1.4-0.3,2.3,0.5,2.3,1.9
			c-0.1,1.7-0.4,3.4-0.6,5.1C143.3,55.4,143.1,56.3,143,57.4z M133.1,74.6c0.1,0,0.2,0.1,0.3,0.1c0.7-0.6,1-1.5,1.2-2.3
			c0.7-2.6,1.4-5.3,1.8-7.9c0.5-3.2,0.9-6.4,1.3-9.5c0.1-0.5-0.1-1-0.2-1.5c-0.1,0-0.2,0-0.2,0c0,0.2-0.1,0.4-0.1,0.6
			c-0.2,1.7-0.3,3.5-0.6,5.2c-0.7,4.8-1.8,9.5-3.3,14C133.2,73.7,133.2,74.2,133.1,74.6z M143.8,63c-0.1-0.1-0.4-0.7-0.6-0.7
			c-0.5,0.1-1.1,0.3-1.4,0.7c-0.4,0.7-0.6,1.5-0.7,2.3c-0.1,0.7,0.2,0.9,0.9,0.7C142.9,65.5,143.8,64.1,143.8,63z M141.6,49.3
			c0-0.1-0.1-0.1-0.1-0.2c-0.2,0-0.5-0.1-0.7,0c-1.2,0.5-2.3,1.1-3.4,1.7c-0.2,0.1-0.3,0.3-0.4,0.4c-0.1,0.2-0.1,0.5,0,0.6
			c0.1,0.1,0.4,0.1,0.6,0c0.7-0.4,1.4-0.9,2.1-1.3C140.3,50.1,140.9,49.7,141.6,49.3z M142.2,67.7c2.1-0.4,3.7-3,3.1-4.5
			C144.3,64.6,143.3,66.1,142.2,67.7z M146.7,71.7c0.1,0.1,0.1,0.1,0.2,0.2c0.8-0.7,1.5-1.3,2.3-2c-0.1-0.1-0.2-0.2-0.2-0.3
			C147.9,70,147.4,70.9,146.7,71.7z"/>
	</g>
	<g id="XMLID_240_">
		<path id="XMLID_241_" class="st0" d="M71.6,150.6c1.1-0.6,1.8-1.5,2.3-2.6c0.5-1.1,0.7-2.2,0.3-3.4c-0.4-1.1-1.2-1.6-2.3-1.3
			c-0.8,0.2-1.6,0.5-2.2,1c-2.2,1.8-4.1,3.9-5.1,6.7c-0.1,0.3-0.3,0.5-0.5,0.7c-0.2-0.2-0.6-0.3-0.7-0.5c-1.1-1.8-1.5-3.8-0.3-5.7
			c1.8-2.9,4.1-5.3,7.1-7c2-1.1,4.1-1.6,6.1-0.3c2.2,1.5,2.8,3.7,2.6,6.2c-0.2,2.2-1.2,4.1-2.7,5.7c-1,1.1-1.9,2.2-2.7,3.2
			c2,0.5,3.7,2.3,5.6,3.8c2.8,2.2,5.9,3.5,9.5,3.4c1.3-0.1,2.5-0.5,3.9-0.7c-1.1,2.1-2.6,3.8-5,4.7c-3.7,1.4-7,0.5-9.8-2
			c-1.9-1.7-3.5-3.7-5.2-5.6c-0.4-0.5-0.8-1-1.5-0.8c-0.7,0.2-1.2,0.7-1.3,1.5c-0.3,1.1-0.6,2.2-0.9,3.3c-0.4,1.2-1.3,1.4-3,1.1
			c-1.1-0.3-1.5-1-1.2-2.2c0.8-3.3,1.4-6.6,1.6-9.9c0-0.5,0.3-1.1,0.7-1.5c0.9-0.8,2-1.6,3-2.2c0.3-0.2,1-0.2,1.2,0
			c0.3,0.3,0.4,0.9,0.3,1.3c-0.1,1-0.3,2.1-0.5,3.1C71.4,150.5,71.5,150.5,71.6,150.6z M63.3,148c0.1,0,0.2,0,0.3,0
			c1.7-4.5,5-7.3,9.3-9.3c-0.2-0.1-0.4-0.1-0.5,0c-4,1.5-6.7,4.4-8.8,7.9C63.3,147.1,63.4,147.6,63.3,148z M67.3,151.1
			c-0.6,3.1-1.2,6.2-1.8,9.3C66.6,159.5,67.9,152.7,67.3,151.1z M71.9,151.8c2.2-0.1,4.3-4.1,3.5-6.3
			C75.2,148.1,73.8,150,71.9,151.8z M70.9,147.2c-1.7,0.1-4,2.1-3.6,3C68.4,149.3,69.6,148.2,70.9,147.2z"/>
	</g>
	<g id="XMLID_238_">
		<path id="XMLID_239_" class="st0" d="M104.4,30.2c-1.9,0-3.6,0.1-5.3,0.1c-0.1,0-0.3-0.2-0.4-0.3c-0.3-1.1-0.6-2.2-0.8-3.3
			c0-0.3,0.5-1,0.9-1c1.4-0.3,2.9-0.7,4.4-0.6c4.6,0.1,9.2,0.3,13.7,0.6c4.6,0.3,9.2,1,13.7,2.4c1.4,0.5,2.8,1.1,4.1,1.6
			c0.1,0,0.2,0.2,0.3,0.4c1.3-0.5,2-0.4,2.3,0.3c0.2,0.5,0.4,1.2,0.2,1.7c-0.2,0.4-0.8,0.7-1.4,1.1c0.9-0.1,1.6-0.1,1.9-1.1
			c0.4-1,1.2-1.2,2.2-0.8c0.8,0.3,1.8,0.4,2.2,1c0.4,0.6,0.1,1.7,0.1,2.5c0,0.3,0,0.6,0.1,1c0.2-0.4,0.5-0.8,0.7-1.2
			c0.2-0.4,0.4-0.8,0.7-1.2c2,0.5,3.8,1.5,5.6,2.6c1.1,0.7,2.2,1.2,3.2,1.9c0.3,0.2,0.4,0.5,0.6,0.8c0.4,0.5,0.8,1,1.1,1.6
			c0.1,0.2,0.1,0.4,0.1,0.6c-0.1,0.4-0.3,0.8-0.4,1.2c0.3,0.2,0.7,0.5,1,0.7c0,0.1,0,0.1,0,0.2c-1.1,2-1.5,2-3.3,0.7
			c-2.7-1.8-5.5-3.4-8.3-5.2c-0.2-0.1-0.4-0.6-0.4-0.8c0-0.3,0.2-0.6,0.3-1c-0.2-0.1-0.5-0.3-0.9-0.5c0.1,0.5,0.2,0.8,0.3,1.1
			c-2,0.1-3.3-0.7-3.6-2.4c-1.2,0.5-2.3,0.4-3.5-0.1c-1.2-0.5-2.5-0.8-3.7-1.3c-1.3-0.5-1.3-0.6-1-1.9c-0.9-0.2-1.7-0.4-2.6-0.6
			c-0.2,0-0.5-0.1-0.7,0c-2.1,0.9-4.3,0.4-6.4,0.1c-4.5-0.6-9-1.4-13.6-1.5c-1.3,0-2.6-0.4-3.9-0.5C104,29.4,104.1,29.6,104.4,30.2z
			"/>
	</g>
	<g id="XMLID_234_">
		<path id="XMLID_235_" class="st0" d="M48,162C48,161.9,48,161.9,48,162c-2.3-0.1-3.3-1.8-4.4-3.3c-0.4-0.6-0.8-1.2-1.2-1.8
			c-0.3-0.4-0.2-0.9,0.3-1.1c1-0.3,0.8-1.1,0.8-2c-0.9,0.5-1.7,0.9-2.5,1.3c-2.7-3.6-5.3-7.3-7-11.5c-0.4-1,0.2-2.4,1.3-2.7
			c0.2-0.1,0.5,0,0.7,0.2c1.5,1,3,2,4.4,3.2c0.6,0.5,0.9,1.4,1.4,2.2c-0.2,0.2-0.4,0.6-0.7,0.8c0.6,0.4,1.3,0.7,1.8,1.2
			c0.3,0.3,0.5,1,0.5,1.4c-0.1,0.5-0.5,0.9-1.2,0.5c-0.2-0.1-0.4,0-0.6-0.1c0,0.1,0,0.2,0,0.3c0.4,0.2,0.7,0.4,1,0.7
			c0.3,0.3,0.8,0.4,0.5,1.1c-0.1,0.3,0.4,0.8,0.6,1.2c0.4-0.2,0.9-0.5,1.4-0.8c0.5-0.3,0.7-0.3,1.1,0.3c0.6,1,1.5,1.9,2.3,2.8
			c0.1-0.1,0.1-0.1,0.2-0.2c-0.8-1.2-1.6-2.5-2.6-3.6c-0.9-1-1.7-1.9-1.2-3c-1.3-1.5-2.4-2.7-3.5-4c0.1-0.1,0.1-0.1,0.2-0.2
			c1.2,0.7,2.4,1.5,3.6,2.2c0.1,0,0.2,0.1,0.2,0.2c-0.1,1,0.9,1.1,1.4,1.6c1.4,1.6,2.6,3.4,3.9,5.1c-0.2,1.4,0.7,1.8,1.7,2.3
			c1.6,0.9,2.7,2.2,3.5,3.9c0.1,0.2,0.2,0.5,0.3,1c-1.2-0.3-2.3-0.6-3.5-0.9c0.3,0.3,0.5,0.6,0.7,0.8c3,3.7,6.6,6.6,10.5,9.2
			c1.2,0.8,1.9,1.8,1.8,3.4c-0.1,0.7,0.2,1.1,1,1.2c1.3,0.2,2.1,1.7,1.8,3.2c-1.3,0.4-2.4,0.1-3.5-0.7c-2.1-1.5-4.2-3-6.2-4.5
			c-1.7-1.2-3.3-2.5-4.9-3.8c-0.9-0.7-1.8-1.4-1.5-2.9c-1.3,0.4-2.1-0.3-2.8-1c-0.4-0.4-0.8-0.8-1.3-1.1c-0.8-0.5-1-1.2-0.6-2
			C48,162.2,48,162.1,48,162z M51,158.6c-0.5-1.8-0.5-1.8-1.7-1.8C49.9,157.3,50.3,157.9,51,158.6z"/>
	</g>
	<g id="XMLID_227_">
		<path id="XMLID_228_" class="st0" d="M63.1,110.6c1.3-0.5,2.5-1,3.8-1.4c1.8-0.5,3,0.7,2.5,2.4c-0.8,2.5-1.4,5.1-2,7.6
			c-0.3,1.3-0.3,2.8-0.3,4.2c0.1,1.2,0.9,1.5,1.9,0.8c0.4-0.3,0.8-0.6,1.2-0.9c0.5-0.3,0.8-0.2,0.8,0.4c0,0.4-0.1,0.9-0.3,1.2
			c-1.2,2.2-3,3.9-5.3,5c-1.3,0.7-2.5,0.3-3.3-1c-0.1-0.2-0.2-0.4-0.3-0.5c-0.3-0.5-0.6-0.6-1.1-0.1c-0.5,0.6-1,1.1-1.6,1.5
			c-2,1.5-4.2,1.2-5.7-0.8c-2.1-2.8-2.5-6.1-1.9-9.4c0.7-3.7,2.7-6.6,5.7-8.8c0.9-0.6,2-1,3-1.3C61.4,109.4,62.4,109.7,63.1,110.6z
			 M62.4,119.4c-0.2-1-0.6-1.7-1.2-1.9c-0.9-0.2-1.5,0.2-1.9,0.9c-1,1.4-1.3,3-0.8,4.7c0.2,0.5,0.6,1,1,1.3c0.6,0.5,1.3,0.3,1.5-0.4
			C61.6,122.5,62,120.9,62.4,119.4z M60.3,111.5c-0.1-0.1-0.1-0.2-0.2-0.3c-0.7,0.2-1.3,0.4-1.9,0.7c-1.7,0.9-3,2.3-3.9,4
			c-1.2,2-1.9,4.3-2,6.7c0,0.4,0.2,0.9,0.3,1.3c0.1,0,0.2,0,0.3-0.1C53.2,118.3,55.1,113.9,60.3,111.5z M63.5,119
			c-0.8,2.4-1.5,4.8-2.2,7.2C62.9,125.6,64.4,120.9,63.5,119z M63.6,112.5c1.3-0.4,2.4-0.7,3.4-1.7
			C65.5,110.7,63.9,111.5,63.6,112.5z"/>
	</g>
	<g id="XMLID_225_">
		<path id="XMLID_226_" class="st0" d="M55.5,51.3c-0.8,0.7-1.6,1.3-2.4,2.1c-0.6,0.6-1.3,0.9-2.1,0.5c-0.5,1.5-0.5,1.5-1.8,1.7
			c-0.2-0.9-0.4-1.8-0.5-2.7c-0.2-1.3,0.3-2.4,0.9-3.4c0.4-0.7,1-0.2,1.5,0.1c0.8-1.3,1.3-2.9,3.2-2.9c-0.4-2.1,1.2-3.3,3.4-2.8
			c0,0,0.1,0,0.1-0.1c0.2-2,1.5-3.1,3.3-3.8c0.6-0.2,1.2-0.7,1.7-1.1c2.8-2.1,5.7-4,8.9-5.2c0.1,0,0.2-0.1,0.3-0.1
			c1.3-0.2,2.3-0.7,3.4-1.6c1-0.8,2.4-1,3.6-1.4c2.6-0.9,5.1-1.8,7.7-2.6c1.5-0.4,3-0.6,4.6-0.8c0.3,1.7,0.5,3.2,0.7,4.8
			c-2.5,0.3-4.8,0.6-7.2-0.4c-0.6-0.3-1.4-0.4-2.1-0.6c-0.7-0.1-1.1,0.3-0.9,1c0.2,1.1-0.2,2-0.7,2.9c-0.1,0.1-0.4,0.2-0.6,0.2
			c-0.8-0.1-1.7-0.3-2.7-0.6c0.6,0.5,1.1,0.9,1.6,1.4c-4,1.2-7.5,3.1-10.9,5.3c-3.2,2.1-6.3,4.4-9.4,6.6c-0.8,0.6-1.6,1.3-2.6,1.1
			C56.3,49.7,55.9,50.5,55.5,51.3L55.5,51.3z"/>
	</g>
	<g id="XMLID_221_">
		<path id="XMLID_222_" class="st0" d="M159.3,49c0,0,0.1-0.3,0.1-0.5c-2.4-1-2.4-1-2.7-3.2c-1.4,0.5-1.8,0.1-1.6-1.5
			c0.5,0.4,1.1,0.8,1.7,1.3c0.3-1,0.6-1.9,0.9-2.8c1.2,0.5,0.7,1.7,1.2,2.5c0.1,0,0.2,0,0.3-0.1c1.5-1,2.7-0.6,3.8,0.8
			c0.3,0.4,0.7,0.7,1.1,1c0.4,0.4,0.7,0.8,0.7,1.5c0,0.4,0.3,0.9,0.6,1.1c0.8,0.6,1.3,1.2,1.4,2.3c2.2,0.1,3.8,1.2,5,2.8
			c1.8,2.5,3.5,5.1,5.3,7.7c-0.4,0.3-0.8,0.6-1.3,1c1.2-0.2,1.9,0.3,2.6,1c0.5,0.5,0.9,1.1,1.3,1.7c2,3.5,4,7.1,5.2,11
			c0.4,1.3,0.7,2.5-0.3,3.6c-1-0.6-2.2-1.2-3.7-1c-0.1,0-0.4-0.2-0.5-0.4c-2.4-6.4-6.1-12-9.8-17.6c-0.6-0.9-0.9-1.9-1.3-2.9
			c-0.1-0.2-0.4-0.4-0.6-0.5c-0.5-0.4-1.1-0.6-1.5-1.1c-1.7-1.8-3.3-3.7-5-5.4C161.2,50.7,160.3,50,159.3,49z M159.1,46.3
			c0.2,0.4,0.3,0.6,0.3,0.8c0.1,0.2,0.2,0.4,0.3,0.6c0.8-1.1,0.8-1.1,1.6-0.9C160.8,45.6,159.9,46.5,159.1,46.3z"/>
	</g>
	<g id="XMLID_213_">
		<path id="XMLID_214_" class="st0" d="M144.9,144c0,0.4,0,0.9-0.2,1.2c-0.9,1.6-2.1,2.9-3.7,3.8c-1.2,0.7-1.9,0.5-2.7-0.6
			c-0.2-0.3-0.4-0.5-0.9-1c-0.3,0.5-0.6,0.9-0.9,1.2c-1.6,1.6-3.6,1.5-4.9-0.3c-1.6-2.1-1.7-4.6-1.3-7.1c0.5-2.6,1.9-4.7,4-6.3
			c0.4-0.3,0.8-0.6,1.2-0.8c1.6-0.7,2.4-0.5,3.9,0.9c0.5-1.4,1.2-2.7,0.9-4.1c-0.1-0.4-0.5-0.6-0.8-1.1c0.1-0.1,0.2-0.3,0.3-0.5
			c1.1-1.1,2.5-1.9,4.1-2.2c1.5-0.3,2.2,0.5,1.8,1.9c-1,3-2,6-2.9,9.1c-0.5,1.5-0.7,3.1-1,4.7c0,0.2-0.1,0.4,0,0.5
			c0.2,0.5,0.3,1.2,0.7,1.5c0.2,0.2,0.9-0.3,1.4-0.5c0.3-0.1,0.5-0.3,0.7-0.4C144.7,144,144.8,144,144.9,144z M135.1,142.7
			c0.1,0,0.1,0.1,0.2,0.1c0,0.8,0.2,1.5,0.8,2c0.5,0.3,1,0.3,1.2-0.3c0.4-1.2,0.6-2.5,0.8-3.8c0-0.4-0.4-1-0.7-1.1
			c-0.3-0.1-1,0.2-1.2,0.5C135.8,140.9,135.5,141.8,135.1,142.7z M131.3,144.3c0-4.2,1.9-7.3,5.4-9.5c-2.4,0.7-4,2.2-4.9,4.4
			C130.7,142,130.5,143.5,131.3,144.3z M139.3,140.8c-0.6,1.8-1.2,3.6-1.9,5.4C138.9,145.4,139.8,142.8,139.3,140.8z M139.8,136.2
			c1.1-0.5,2.2-3.6,1.6-5C140.9,132.9,140.4,134.5,139.8,136.2z M140.4,129.6c0.9,0.6,3.2-0.3,3.7-1.3
			C142.8,128.4,141.7,129,140.4,129.6z"/>
	</g>
	<g id="XMLID_209_">
		<path id="XMLID_210_" class="st0" d="M86.5,80.8c0.4-1.4,0.8-3,1.2-4.5c1.4-5.1,2.8-10.1,4.1-15.2c0.2-0.7,0-1.5,0-2.3
			c0-0.4,0.1-0.8,0.3-1.1c1.3-1.6,3-2.7,5-3.4c1.6-0.5,2.5,0.2,2.2,1.8c-0.6,3-1.3,6-2.1,9c-1.2,4.5-2.5,9-3.8,13.6
			c-0.1,0.3-0.1,0.9,0.1,1.1c0.2,0.2,0.7,0,1.1,0c0.4-0.1,0.8-0.2,1.2-0.2c-0.1,0.4-0.1,0.9-0.3,1.2c-1.1,1.7-2.6,3.1-4.6,3.9
			c-1.7,0.7-3.3,0-4-1.7C86.8,82.3,86.7,81.6,86.5,80.8z M87.7,81.3c0.1,0,0.3,0.1,0.4,0.1c0.1-0.3,0.2-0.5,0.3-0.8
			c1.2-4,2.4-8,3.6-11.9c0.9-2.8,1.6-5.6,1.7-8.6c0-0.8,0.3-1.5,0.9-2c0.7-0.5,1.5-1,2.2-1.5c0.3-0.2,0.6-0.3,1-0.6
			c-1.3-0.2-4.2,1.2-4.6,2.1C93,58.4,93,58.7,93,59c0,0.4,0.2,0.9,0.1,1.3c-0.2,1-0.4,2.1-0.7,3.1c-1.4,4.8-2.8,9.5-4.1,14.3
			C88,78.8,87.9,80.1,87.7,81.3z"/>
	</g>
	<g id="XMLID_205_">
		<path id="XMLID_206_" class="st0" d="M144.1,155.9c0.1,0.2,0.2,0.5,0.3,0.7c-0.4,0.5-0.4,0.5-1.7,0.5c0.7,0.3,1.6,0.5,1.2,1.6
			c-0.8,0.1-1.6,0.2-2.5,0.4c0,0.1,0,0.1,0,0.2c0.6,0,1.3-0.1,1.9-0.1c-0.2,0.7-0.4,1.4-1.4,1.5c-0.4,0.1-0.8,0.5-1.2,0.7
			c-1.4,0.8-2.8,1.5-4.2,2.3c-0.6,0.3-0.9,0.1-1.1-0.4c-0.2-0.4-0.4-0.8-0.8-1.1c0,0.7,0,1.4,0,2c0,0.5-0.1,0.8-0.6,0.9
			c-0.4,0.1-0.7,0.3-1.1,0.4c-0.9,0.4-1.4,0.2-1.9-0.7c-0.2-0.3-0.6-0.5-0.9-0.8c-0.1,0.1-0.1,0.2-0.2,0.3c0.3,0.2,0.6,0.3,0.9,0.5
			c0,0.4-0.1,0.8-0.2,1.2c-0.1,0.6-0.7,0.9-1.3,0.7c-0.3-0.1-0.6-0.1-0.8,0.1c-2.4,1.3-5,1.9-7.6,2.3c-5.5,0.9-11,1.4-16.5,1.3
			c-1,0-2-0.2-3-0.4c-1-0.2-1.2-0.7-1-1.6c0.4-2,0.6-2.2,2.6-2.1c0.7,0,1.4,0.1,2.2,0.2c-0.1,0.3-0.1,0.4-0.1,0.5
			c6.9-0.5,13.8-1,20.7-1.5c-0.2-1.2,0.5-1.8,1.3-2.2c2.3-1.1,4.8-1.6,7.3-1.7c0.3,0,0.6-0.1,0.9-0.1c-0.3-1.3-0.1-1.4,0.9-2.1
			c1.9-1.1,3.9-2.3,5.8-3.6C143.2,155.2,143.2,155.2,144.1,155.9L144.1,155.9z M102.3,168.7c0.1,0.1,0.1,0.2,0.2,0.3
			c0.8-0.4,1.5-0.8,2.3-1.2c-0.1-0.1-0.1-0.2-0.2-0.3C103.8,167.9,103.1,168.3,102.3,168.7z"/>
	</g>
	<g id="XMLID_203_">
		<path id="XMLID_204_" class="st0" d="M37.1,74.4c-0.1,0.9-0.1,1.7-0.2,2.5c-0.1,0.8-0.4,1.6-0.5,2.4c0,0.9-0.8,1.5-1,2.2
			c-0.4,1.3-0.7,2.6-1.1,4c-1,3.8-2,7.6-2.9,11.5c-0.1,0.3-0.1,0.6-0.1,0.9c0,1.4,0,2.7,0,4c-1.4,0-3,0-4.6,0
			c0.1-0.7,0.2-1.5,0.3-2.4c0.9,0.3,1.7,0.6,2.4,0.8c0,0,0-0.1,0.1-0.1c-0.8-0.4-1.6-0.7-2.4-1.1c-0.2-0.1-0.5-0.5-0.4-0.7
			c0.7-7.3,2.5-14.4,5.1-21.3c0.9-2.5,1-2.5,4-2.7C36,74.3,36.4,74.4,37.1,74.4z"/>
	</g>
	<g id="XMLID_201_">
		<path id="XMLID_202_" class="st0" d="M167.9,163c-0.1-0.6-0.7-1-0.2-1.7c0.1-0.1-0.4-0.7-0.7-1.2c0.2-0.1,0.5-0.2,0.7-0.3
			c-0.1,0-0.1-0.1-0.2-0.1c1.1-1.6,1.5-3.7,3.6-4.7c0.1-0.4,0-1.1,0.3-1.5c0.3-0.4,0.9-0.6,1.6-1c0-0.1,0-0.4,0-0.7
			c0-0.8,0.2-1.3,0.9-1.8c0.4-0.3,0.6-1,1-1.6c0.9,0.2,1.1,0.4,1,1.5c0.3,0,0.5,0,0.7,0c0.8-0.1,1-0.5,0.7-1.2
			c-0.2-0.6-0.5-1.3-0.7-1.9c-0.5-1.3-0.2-2.3,1.7-1.9c-0.1-0.4-0.2-0.9-0.3-1.3c0-0.4,0-0.8,0-1.2c1.3-0.5,2.1-0.3,3,0.8
			c0.9,1.2,1.4,2.5,0.8,4c-0.1,0.2-0.2,0.5-0.4,0.6c-0.9,0.3-1,1.2-1.3,1.9c-1,2.3-2.3,4.4-4.3,6.1c-0.6,0.5-1.4,0.7-2.1,1.1
			c0.4,0.3,0.8,0.5,1.3,0.9c-0.6,0.2-1,0.4-1.5,0.6c0,0.4,0,0.9,0.1,1.4c-1.3,0.5-2.4,0.4-3.3-1.1c-0.1,1.2-0.7,1.5-1.6,1.2
			c0,0.1,0,0.2,0,0.2c0.6,0.5,1.2,0.9,1.9,1.4c-0.5,1.1-1.1,2.2-1.6,3.3c-0.1,0-0.2,0-0.3-0.1c-0.2-0.4-0.3-0.7-0.5-1
			c-0.4,0.1-0.8,0.2-1.1,0.4c-0.3,0.2-0.7,0.6-0.8,0.9c-0.4,1.5-1.4,2.5-2.8,3.2c-0.6,0.3-1.1,0.8-1.6,1.1c-0.4,0.3-0.9,0.5-1.4,0.8
			c-0.3-1.1-0.6-2-0.8-3c1.5,1,2.2-0.7,3.5-1.1c-0.7-0.3-1.1-0.4-1.6-0.6c-0.9-0.4-1.1-0.9-0.5-1.7c0.4-0.6,0.9-1.1,1.4-1.6
			c0.1-0.1,0.4-0.2,0.6-0.1C164.8,162.3,166.3,162.7,167.9,163z"/>
	</g>
	<g id="XMLID_193_">
		<path id="XMLID_194_" class="st0" d="M114,149.9c0.5-0.4,1-0.8,1.4-1.1c0.2-0.2,0.5-0.2,0.8-0.4c0.1,0.3,0.2,0.7,0.1,0.9
			c-0.4,1.6-1.7,2.4-3.1,2.9c-0.8,0.3-1.6,0.7-2.2,1.2c-2,1.5-3.7,1.2-5-1c-1.2-2-1.3-4.3-0.8-6.5c0.5-2.4,1.3-4.6,2.9-6.4
			c1.1-1.3,2.5-2.1,4.3-1.8c1.7,0.3,2.6,1.5,3,3c0.8,2.9,0.4,5.6-1.1,8.2c-0.1,0.2-0.2,0.3-0.3,0.5C113.9,149.6,114,149.6,114,149.9
			z M111.4,139c-1.3,0-2.1,0.4-2.8,1.2c-2,2.3-2.9,5.1-2.9,8.2c0,0.4,0.2,0.8,0.2,1.1C107,142.8,107.4,142.1,111.4,139z M112.3,147
			c-0.1-0.7-0.2-1.2-0.4-1.6c-0.1-0.2-0.5-0.5-0.7-0.4c-0.2,0-0.5,0.4-0.5,0.6c0,0.5,0,1,0.2,1.4c0.2,0.5,0.5,0.9,0.8,1.3
			C111.9,147.8,112.1,147.3,112.3,147z M109.4,151.3c-0.5-0.9-0.9-1.9-1.4-2.8c-0.7,1.2-0.6,2.4,0.1,3
			C108.6,151.9,109,151.7,109.4,151.3z M112.1,149.5c1.1-0.6,1.5-1.9,1.1-3C112.8,147.5,112.4,148.5,112.1,149.5z M109.2,152.8
			c1.4-0.3,1.7-0.7,1.4-1.7C110.1,151.7,109.7,152.2,109.2,152.8z"/>
	</g>
	<g id="XMLID_191_">
		<path id="XMLID_192_" class="st0" d="M130,50.6c0.3-0.2,0.7-0.3,0.9-0.6c0.8-1.3,1.1-1.4,2.4-0.6c-0.3,1.1-0.6,2.2-0.9,3.5
			c-2-0.3-4.2-0.7-6.1-2c-0.4-0.3-0.5-0.9-0.7-1.3c0-0.1,0.1-0.2,0.1-0.2c-3.4-0.3-6.9-0.6-10.3-0.9c-3.4-0.3-6.8-0.5-10.3-0.7
			c0,0,0,0.2,0.1,0.6c-1.3,0-2.6,0.1-3.8,0.1c-0.1,0-0.3-0.2-0.4-0.3c-0.1-0.1-0.1-0.3-0.2-0.4c-0.9-2.3-0.6-3,1.9-3.1
			c3.1-0.1,6.2-0.1,9.3,0.1c3.2,0.2,6.4,0.6,9.5,1.2c2.5,0.4,5,1,7.2,2.3c0.1,0.1,0.3,0.1,0.4,0c0.7-0.5,1.2-0.1,1.5,0.5
			c0.4,0.8,0.2,1.3-0.5,1.7c0,0-0.1,0.1-0.1,0.1C130,50.4,130,50.5,130,50.6z"/>
	</g>
	<g id="XMLID_189_">
		<path id="XMLID_190_" class="st0" d="M55.5,51.3c1.3-0.6,2.4-1.6,3.5-2.6c2.1-1.9,4.5-3.7,6.9-5.3c4-2.7,8.2-5,12.7-6.9
			c1.1-0.5,2.3-1,3.6-0.7c0.3,0.1,0.6-0.3,0.9-0.4c1.8-0.7,3.6-1.5,5.5-2.2c0.7-0.2,1.5,0,2.4,0.1c0-0.2,0.1-0.6,0.1-0.9
			c1.2-0.2,2.5-0.4,3.8-0.4c0.5,0,1.1,0.2,1.5,0.5c0.6,0.5,0.4,1.4-0.4,1.5c-1.6,0.3-3.2,1-4.9,0.3c-0.4,1.1-1.4,1-2.3,1.3
			c-2.1,0.5-4.1,1-6.2,1.5c-0.2,0-0.3,0.1-0.5,0.2c-2.1,1.7-4.7,2.3-7,3.6c-3.4,1.9-6.6,4-10,6.1c-2.7,1.7-5.1,3.7-7.3,6
			c-0.6,0.7-1.3,1.3-2.3,1.3c-0.8,0-1.3-0.3-1-1.1C54.8,52.5,55.2,51.9,55.5,51.3L55.5,51.3z"/>
	</g>
	<g id="XMLID_184_">
		<path id="XMLID_185_" class="st0" d="M98,146.9c-1,1.4-1.9,2.9-1.7,4.7c0.1,1.3,1.1,1.9,2.3,1.5c0.9-0.3,1.7-0.8,2.5-1.3
			c0.6-0.3,1-0.8,1.6-1.2c0.5-0.3,1,0,0.9,0.6c-0.1,0.4-0.2,0.9-0.5,1.3c-1.2,1.6-2.5,3-4.3,3.9c-1.9,1-3.8,0.5-5-1.4
			c-1.2-2-1.4-4.2-1-6.4c0.6-3,2-5.6,4.5-7.4c0.8-0.6,1.8-1,2.8-1.3c1.5-0.4,2.9,0.4,3.4,1.9c0.6,1.8,0.4,3.6-0.5,5.2
			c-0.7,1.1-1.7,1.9-3,2.2c-1.2,0.3-1.8-0.2-1.6-1.4c0-0.3,0.1-0.6,0.1-0.9C98.2,147,98.1,147,98,146.9z M99.8,141.2
			c-3.6,0.8-5,3.6-6,6.6c-0.7,2.1-0.7,3.1,0,3.7C93.8,147,95.6,143.4,99.8,141.2z M102.6,151.7c-1.2,0.9-2.3,1.7-3.5,2.6
			c0.1,0.1,0.1,0.1,0.2,0.2C100.7,154,101.7,152.9,102.6,151.7z"/>
	</g>
	<g id="XMLID_176_">
		<path id="XMLID_177_" class="st0" d="M149.2,140.4c0.2-0.2,0.4-0.4,0.5-0.6c0.9-1.7,1.9-3.4,2.8-5.1c0.2-0.4,0.1-0.9,0-1.4
			c-0.3-1.3-0.2-2.4,0.8-3.3c0.4-0.3,1.1-0.6,1.6-0.5c0.3,0.1,0.5,0.9,0.7,1.4c0.1,0.1,0,0.3,0,0.4c-0.6,1.9,0.2,3.6,0.8,5.3
			c1,2.4,1,5,0.2,7.5c-0.9,2.7-3.1,4.1-5.9,4c-2.4-0.1-4.5-2-5.1-4.5c-0.4-1.9-0.2-3.7,0.9-5.4c0.4-0.6,1-1.1,1.6-1.5
			c0.2-0.2,0.7-0.2,0.9,0c0.2,0.1,0.2,0.6,0.2,0.8c-0.1,0.7-0.2,1.3-0.3,2c0,0.3,0,0.6,0.1,0.9C149,140.3,149.1,140.4,149.2,140.4z
			 M153.6,137.2c-0.1,0.1-0.3,0.2-0.3,0.3c-0.8,1.5-1.5,3.1-2.3,4.6c-0.3,0.6,0.2,0.8,0.6,0.7c0.4-0.1,0.9-0.4,1.2-0.7
			c1.2-1.2,1.3-2.8,1.1-4.3C153.8,137.6,153.7,137.4,153.6,137.2z M153.8,133.9c-1.4,2.6-2.8,5.1-4.2,7.8
			C151.2,140.8,154.1,135.4,153.8,133.9z M152,144c2.3,0,4-3.7,2.9-6.2C154.5,140.2,154.5,142.7,152,144z M146.4,142.5
			c0.6-1.6,1.2-3.3,1.9-4.9C147,137.8,145.8,141,146.4,142.5z M153.4,132.5c0.4-0.7,0.8-1.3,1.1-1.9
			C153.5,130.6,153,131.4,153.4,132.5z"/>
	</g>
	<g id="XMLID_170_">
		<path id="XMLID_171_" class="st0" d="M89.7,153.4c0.4-0.3,0.7-1,1.2-0.6c0.6,0.4,0.2,1-0.1,1.5c-1.2,1.6-2.7,2.9-4.6,3.6
			c-2.1,0.7-3.8,0-4.7-2c-1.4-3.3-0.9-6.4,0.8-9.4c1.4-2.3,3.2-4.2,6-4.8c2.1-0.5,3.4,0.4,3.6,2.6c0.4,3.2-2.4,7.4-5.5,8.3
			c-0.9,0.3-1.2,0.6-1,1.4c0.2,0.8,0.9,1.3,1.7,1C88.1,154.5,88.8,153.9,89.7,153.4c-0.5,0.7-1,1.4-1.5,2.1c0.1,0.1,0.2,0.2,0.3,0.2
			c0.8-0.7,1.6-1.4,2.3-2.1c-0.1-0.1-0.1-0.2-0.2-0.3C90.3,153.4,90,153.4,89.7,153.4z M88.6,142.9c-3.9-0.2-8.2,6.4-6.8,10.2
			C82.2,148.5,84.2,144.9,88.6,142.9z M89.1,148.5c0.1-0.6-0.3-0.9-0.8-0.7c-1.2,0.5-1.9,1.5-2.4,2.6c0,0.1,0.3,0.5,0.4,0.5
			C87.2,151,89,149.3,89.1,148.5z M87.1,151.5c1.3-0.4,2.4-1.2,2.9-2.7C89,149.7,88,150.6,87.1,151.5z"/>
	</g>
	<g id="XMLID_168_">
		<path id="XMLID_169_" class="st0" d="M160.9,72.6c-0.3,0.3-0.5,0.5-0.8,0.7c1.5,0.2,2.2,1.2,2.8,2.3c1.8,3,3.4,6.1,4.2,9.5
			c0,0.2,0,0.4,0,0.6c-0.1,0.2-0.3,0.5-0.3,0.7c-0.1,1.5-1.2,2-2.2,2.6c-0.7-1.8-1.4-3.7-2.1-5.5c-1.7-4-4.2-7.6-6.5-11.3
			c-0.4-0.6-0.7-1.4-1-2.1c-0.1-0.2-0.3-0.4-0.5-0.5c-0.6-0.6-1.3-1.2-1.9-1.8c-0.5-0.5-1-1-1.5-1.6c0.4-0.9,0.9-1.9,1.4-3
			c0.2,0.5,0.4,0.9,0.6,1.3c1.2,0,2.4,0.5,3.1,1.5C157.8,68.2,159.3,70.4,160.9,72.6z"/>
	</g>
	<g id="XMLID_166_">
		<path id="XMLID_167_" class="st0" d="M38.9,73.7c-1.7-0.2-3.4-0.3-5.1-0.5c0-2,0.6-3.1,2.1-3.6c-0.4-1,0.2-1.7,0.7-2.5
			c0.5-0.9,1.1-1.8,1.6-2.8c0.6-1.1,1.5-2,2.7-2.5c0.6-0.3,1-0.6,0.8-1.4c-0.2-1.2,0.2-2.3,1-3.2c1.3-1.6,2.5-3.2,3.8-4.9
			c0.2,0.4,0.5,0.8,0.7,1.2c0.3,0.9,0.5,1.9,0.7,2.8c0.5,1.7-0.3,3.1-1.2,4.5c-0.4-0.5-0.7-0.9-1.2-1.4c-0.5,1.2-0.8,2.4-1.3,3.5
			c-0.8,1.6-1.7,3.2-2.5,4.7c-0.7,1.4-1.5,2.9-2.2,4.4c-0.2-0.1-0.4-0.2-0.8-0.4C38.9,72.4,38.9,73.1,38.9,73.7L38.9,73.7z"/>
	</g>
	<g id="XMLID_162_">
		<path id="XMLID_163_" class="st0" d="M145.6,155c-0.4-1.7,0.6-2.4,2.3-2.4c-0.2-0.2-0.3-0.4-0.4-0.6c0.7-0.7,1.4-1.3,2.1-1.9
			c0.2-0.1,0.4-0.2,0.6-0.2c5.5-0.1,8.4-3.1,8.5-8.6c0-0.3,0.1-0.5,0-0.8c-0.4-1.4,0.2-2.5,0.9-3.6c2.1-3.4,3.8-7,5-10.8
			c0-0.2,0.1-0.3,0.2-0.5c1.6,0.5,2.3,1.7,2.4,3.4c-0.6,0.1-1.2,0.2-1.8,0.3c0,0,0,0.1,0,0.1c0.6,0,1.2,0,2,0
			c-0.4,1.3-0.7,2.5-1.2,3.6c-1,2.1-2.1,4.2-3.3,6.2c-0.6,1-1.3,1.9-2.7,2.1c0.3,0.3,0.5,0.4,0.8,0.8c-1.6,2.3-3.2,4.6-5,6.8
			c-0.6,0.7-1.8,1-2.9,1.6c-0.2,0.3-0.7,0.8-1.1,1.4c-0.2,0.2-0.4,0.4-0.4,0.6c0.1,1-0.7,1.5-1.3,2.1c-0.9,1.1-1.9,1.6-3.1,0.6
			c-0.3,0.8-0.5,1.4-0.7,2c-0.1,0-0.2,0-0.3,0C146.1,156.4,145.8,155.7,145.6,155C145.6,155,145.6,155,145.6,155z M147.8,153.2
			c-0.1,0.3-0.2,0.5-0.4,0.9c0.6-0.2,1.1,0.5,1.5-0.1C148.5,153.7,148.2,153.5,147.8,153.2z"/>
	</g>
	<g id="XMLID_160_">
		<path id="XMLID_161_" class="st0" d="M38.9,73.7c0.5,0,1,0,1.5,0c0-2.7,1.2-4.8,3-6.7c0.5-0.5,0.8-1.4,1.1-2.1
			c0.3-1,1-1.6,2.1-1.7c0.2,0,0.6,0.2,0.6,0.3c0,0.7,0,1.5-0.3,2.1c-1.3,2.4-2.8,4.8-4.2,7.2c-0.6,0.9-1.3,1.7-2,2.7
			c0,0.3,0.1,0.9-0.1,1.4c-0.5,1.1-1.1,2.2-1.7,3.4c-0.1,0.2-0.2,0.3-0.3,0.5c-0.8,3.1-1.8,6.2-2.5,9.3c-0.6,2.6-0.8,5.2-1.2,7.8
			c-0.2,1.1-0.4,2.2-0.6,3.2c-0.5,0-1,0-1.5,0c-0.7-1.5-0.8-3.2-0.4-4.8c1.7-7,3.1-14.2,6.2-20.8C38.9,75,38.8,74.4,38.9,73.7
			C38.9,73.7,38.9,73.7,38.9,73.7z"/>
	</g>
	<g id="XMLID_152_">
		<path id="XMLID_153_" class="st0" d="M122.4,137.8c0,0.1,0,0.2,0,0.3c-0.1,1.4,0.2,1.8,1.6,1.4c0.9-0.3,1.8-0.7,2.6-1.3
			c0.6-0.4,0.8-0.4,1,0.3c0.3,1,0.7,2,1,3c0.1,0.4-0.1,0.9-0.3,1.4c-0.6,1.6-1.3,3.1-1.9,4.7c-0.1,0.3,0.1,0.8,0.2,1.3
			c0.4-0.1,0.9-0.2,1.2-0.4c0.5-0.3,0.9-0.7,1.4-1c0.2-0.1,0.5-0.1,0.8-0.1c0,0.3,0.2,0.6,0,0.8c-1,1.5-2,3-3.8,3.7
			c-1.8,0.6-3.2-0.2-3.6-2c-0.4-1.9,0-3.7,0.5-5.5c0.1-0.3,0.1-0.9-0.1-1.1c-0.5-0.4-1.5-0.2-1.8,0.3c-0.6,1.1-1.2,2.2-1.8,3.2
			c-0.3,0.5-0.6,1.2-1.3,1c-0.8-0.3-0.6-1.1-0.4-1.7c0.3-0.9,0.7-1.8,1.2-2.7c0.3-0.7,0.4-1.5,0-2.2c-0.6-1.3-0.5-2.6,0-3.9
			c0.5-1.2,1.3-1.7,2.1-1.6C121.9,135.7,122.5,136.7,122.4,137.8z M123.4,148.6c0.1,0,0.1,0,0.2,0c0.4-1.8,0.7-3.5,1.1-5.3
			c-0.1,0-0.3-0.1-0.4-0.1C123.5,145,123.3,146.8,123.4,148.6z M120.6,142.1c-0.1,0-0.2-0.1-0.4-0.1c-0.6,1.5-1.2,2.9-1.8,4.4
			c0.1,0,0.2,0.1,0.3,0.1C119.7,145.2,120.3,143.7,120.6,142.1z M119.7,139.7c0.5-1.1,0.9-2.1,1.3-3.1
			C119.7,137.1,119,138.5,119.7,139.7z M124.9,140.5c1.2,0.1,2-0.4,2.1-1.4C126.2,139.6,125.6,140,124.9,140.5z M128,149.3
			c0.1,0.1,0.1,0.2,0.2,0.2c0.5-0.5,1-1,1.5-1.4c-0.1-0.1-0.2-0.2-0.3-0.3C128.9,148.3,128.4,148.8,128,149.3z"/>
	</g>
	<g id="XMLID_150_">
		<path id="XMLID_151_" class="st0" d="M73.2,175c1.3-0.9,2.4-0.8,3.5-0.3c2.3,1,4.6,2.1,6.9,3c0.8,0.3,1.6,0.5,2.4,0.7
			c1.2,0.2,2.2,0.7,3,1.7c0.2-0.3,0.3-0.6,0.4-0.8c5.9,1.1,11.7,2.2,17.6,2.9c1.2,0.1,2.3,0.1,3.5,0.1c0.1,0,0.3,0,0.4-0.1
			c0.4-0.7,1.2-0.7,1.8-0.7c1.5-0.1,2.9-0.1,4.4-0.2c0.8,0,1.4,0.1,1,1.1c-0.1,0.2,0,0.3,0,0.5c-2.5,1.2-5,0.9-7.5,0.1
			c0,0.3-0.1,0.6-0.1,0.8c-4.4,0.9-19.3-1.1-21.2-2.7c-0.6,0-1.1,0.2-1.4,0c-0.9-0.3-1.7-0.7-2.6-1.1c-0.1,0-0.1-0.1-0.2-0.1
			c-2-0.6-4-1.3-5.9-1.9c-0.1,0-0.2,0-0.3-0.1c-1.5-1-3.3-1.4-4.8-2.3C73.8,175.5,73.6,175.2,73.2,175z"/>
	</g>
	<g id="XMLID_148_">
		<path id="XMLID_149_" class="st0" d="M179.6,79.6c-0.8,0.3-1.5,0.5-2.3,0.8c-0.1-0.3-0.3-0.5-0.4-0.8c-1.9-5.7-5-10.8-8.6-15.5
			c-2.7-3.5-5.6-6.9-8.4-10.4c-0.2-0.3-0.7-0.4-1.3-0.7c0.2-0.4,0.5-1.1,0.9-1.7c0.1-0.1,0.6-0.1,0.7,0.1c5.4,4.5,9.7,9.8,13.3,15.8
			c2.1,3.6,4.2,7.2,5.6,11.2C179.4,78.8,179.5,79.1,179.6,79.6z"/>
	</g>
	<g id="XMLID_146_">
		<path id="XMLID_147_" class="st0" d="M182.9,128.3c0.4-1.4,0.8-2.7,1.1-4.1c0.4-2.1,0.6-4.1,0.9-6.2c0.1-0.5,0.2-0.9,0.8-0.7
			c0-1.5,0-3,0-4.3c1.6-0.2,3.1-0.5,4.7-0.7c-0.2,1,0.3,2.1-0.7,3c-0.1,0.1-0.1,0.4-0.1,0.6c0.5,2.9-0.1,5.7-0.8,8.5
			c-0.3,1.4-0.7,2.8-1,4.1C186,128.3,184.4,128.3,182.9,128.3z"/>
	</g>
	<g id="XMLID_144_">
		<path id="XMLID_145_" class="st0" d="M49.3,100.8c-1.2,0.3-2.4,0.6-3.7,0.9c0.3-1.9,0.5-3.8,0.8-5.7c0.7-4,1.8-8,3.2-11.8
			c0.5-1.4,1.3-1.9,2.7-2c1.4-0.1,1.7,0.1,1.4,1.6c-0.2,0.8-0.2,1.5-0.5,2.3c-0.6,1.7-1.2,3.4-1.8,5.1
			C50.4,94.2,49.4,97.5,49.3,100.8z"/>
	</g>
	<g id="XMLID_142_">
		<path id="XMLID_143_" class="st0" d="M50.5,130.8c1,0.9,1.8,1.7,2.7,2.5c0.6,0.6,1.7,0.4,2.2,1.3c0,0,0.4-0.1,0.6-0.1
			c0.8,1.6,1.6,3.2,2.4,4.8c0.8,1.5,1.5,3.1,2.3,4.6c0.2-0.2,0.5-0.5,0.8-0.8c0.6,0.8,1,1.5,0.4,2.6c-0.5,1-0.6,2.3-0.9,3.3
			c-0.9-1.2-2.1-2.6-3-4c-0.3-0.4-0.3-1.1-0.3-1.6c0-0.5,0-0.8-0.5-1c-1.2-0.5-1.9-1.4-2.5-2.5c-0.8-1.4-1.7-2.7-2.5-4.1
			c-0.7-1.2-1.3-2.4-1.8-3.7C50.1,131.7,50.4,131.2,50.5,130.8z"/>
	</g>
	<g id="XMLID_140_">
		<path id="XMLID_141_" class="st0" d="M55.8,80.3c-0.2-0.1-0.4-0.2-0.6-0.3c0,0.5,0,0.9,0,1.5c-1.3-0.1-2.6-0.2-3.9-0.3
			c0.3-1.2,0.2-2.4,1.5-2.7c0.2-0.7,0.4-1.2,0.6-1.7c0.4-0.8,0.8-1.7,1.4-2.4c0.6-0.7,1.2-1.3,2-1.9c0.5-0.3,0.8-0.6,0.7-1.3
			c-0.2-0.8,0.1-1.5,0.6-2.1c1-1.3,2-2.6,3.1-4c0.2,0.4,0.5,0.8,0.5,1.2c0.4,1.8,1.3,3.6-0.5,5.2c-0.2-0.3-0.5-0.6-0.7-0.8
			C58.9,74,57.3,77.1,55.8,80.3z"/>
	</g>
	<g id="XMLID_138_">
		<path id="XMLID_139_" class="st0" d="M113.9,33.1c0.7-0.6,1.2-1.1,1.9-1.6c0.2-0.1,0.5-0.2,0.7-0.2c3.1,0,6,0.5,8.9,1.6
			c0.2,0.1,0.3,0.3,0.4,0.5c0.1,0.2,0.1,0.4,0.1,0.4c0.4-0.1,0.7-0.3,0.9-0.3c1.5,0.2,3,0.4,4.4,0.9c2.9,0.9,5.7,2,8.5,3.1
			c0.4,0.1,0.7,0.3,1.1,0.4c-0.9,1.4-2,1.8-3.5,1.1c-2.3-1-4.6-2-7-2.6c-1.4-0.4-2.7-1.2-4.1-1.7c-0.2-0.1-0.4-0.2-0.5-0.2
			c-2.6,0.3-5.1-0.3-7.6-0.8C116.8,33.5,115.4,33.3,113.9,33.1z"/>
	</g>
	<g id="XMLID_136_">
		<path id="XMLID_137_" class="st0" d="M52,101.9c-0.4-0.2-0.6-0.4-0.9-0.5c-1.2-0.2-1.2-1.1-1-1.9c0.5-2.2,1-4.3,1.5-6.5
			c0.8-3.5,1.8-6.9,3.4-10.2c0.2-0.4,0.3-0.8,0.4-1.2c0.3,0,0.6,0,0.9,0c0.1-2.1,1-3.8,2.5-5.3c0.4-0.4,0.5-1,0.7-1.5
			c0.4-0.9,0.9-1.2,2-1.2c0.1,0.8,0.1,1.5-0.4,2.2c-1,1.5-1.8,3.1-2.8,4.6c-0.5,0.8-1.1,1.5-1.6,2.2c-0.1,0.1-0.2,0.3-0.2,0.4
			c0.1,1.3-0.6,2.4-1.2,3.4c-0.1,0.2-0.3,0.4-0.4,0.7c-0.6,2.3-1.4,4.7-1.9,7c-0.5,2.3-0.7,4.8-1,7.1C52,101.4,52,101.6,52,101.9z"
			/>
	</g>
	<g id="XMLID_134_">
		<path id="XMLID_135_" class="st0" d="M77.7,51.8c1.4-0.4,2.7-0.9,4.1-1.3c0.2-0.1,0.4-0.1,0.6-0.3c0.7-0.4,1.3-1,2.1-1.3
			c2.5-0.9,5-1.7,7.5-2.5c1.1-0.3,2.3-0.4,3.5-0.6c0.2,1.3,0.4,2.4,0.6,3.6c-1.9,0.2-3.6,0.5-5.4-0.2c-0.5-0.2-1.1-0.4-1.6-0.5
			c-0.6-0.1-0.8,0.2-0.8,0.8c0,0.8-0.3,1.6-0.4,2.5c-0.9-0.2-1.6-0.3-2.3-0.4c0.3,0.3,0.5,0.6,0.8,0.9c-1,0.4-1.9,0.8-2.9,1.2
			c-0.2,0.1-0.4,0-0.5-0.1c-1.5-1-3.2-1.4-5-1.4C77.8,52.1,77.7,51.9,77.7,51.8z"/>
	</g>
	<g id="XMLID_132_">
		<path id="XMLID_133_" class="st0" d="M181.8,138.9c1.8,0.2,1.7-1.6,2.5-2.6c-0.4,0-0.8,0.1-1.1,0.1c-1.3,0.1-1.8-0.3-1.5-1.6
			c0.2-0.8,0.7-1.6,1-2.4c0.4-0.9,0.7-1.8,1-2.7c0.2-0.7,0.6-0.8,1.2-0.7c2.1,0.3,2.9,1.7,2.1,3.6c-0.2,0.5-0.3,1-0.2,1.5
			c0.3,1.3-0.1,2.4-0.7,3.5c-0.5,0.8-0.9,1.7-1.4,2.5c-0.2,0.4-0.6,0.7-0.9,1C183.1,140.4,182.4,139.7,181.8,138.9z"/>
	</g>
	<g id="XMLID_130_">
		<path id="XMLID_131_" class="st0" d="M80.1,183.1c-0.6,0.4-1,0.7-1.5,1c-2.3-1-4.7-2-7-3c-0.7-0.3-1.3-1-2-1.5
			c0.6-0.5,0.9-0.8,1.3-1.1c0.3,0.2,0.6,0.4,0.9,0.7c-0.2-0.9-1.3-1.5-0.5-2.5c-0.2-0.1-0.3-0.2-0.5-0.3c0.1-0.1,0.2-0.2,0.3-0.2
			c1.2,0.2,2.3,0.4,3.5,0.8c1.7,0.5,3,1.5,3.8,3.1C79,181.1,79.6,182.1,80.1,183.1z"/>
	</g>
	<g id="XMLID_128_">
		<path id="XMLID_129_" class="st0" d="M171.2,114.5c-0.4,2.2-0.5,4.4-1.1,6.5c-0.5,1.6-1.1,3.2-1.1,5.3c-0.6-0.3-0.9-0.6-1.3-0.7
			c-0.3-0.1-0.6,0-0.8,0c-0.6,0-1.1,0-1.7,0.1c0-0.6-0.1-1.2,0.1-1.7c1.1-2.5,1.3-5.1,1.7-7.8c0.1-0.5,0.3-0.7,0.8-0.8
			C168.8,115.1,169.9,114.8,171.2,114.5z"/>
	</g>
	<g id="XMLID_126_">
		<path id="XMLID_127_" class="st0" d="M163,88.1c-1.2-0.4-1.9-1.2-2.3-2.4c-1.2-3.7-3.3-6.9-5.4-10.1c-0.8-1.2-1.6-2.5-2.4-3.8
			c-0.1-0.2-0.1-0.4-0.1-0.6c0.1-0.6,0.2-1.2,0.3-1.9c0.7,0.9,1.3,1.7,1.9,2.5c3.1,4.3,5.8,8.7,7.6,13.7c0.3,0.7,0.4,1.5,0.6,2.2
			C163.3,87.8,163.1,87.9,163,88.1L163,88.1z"/>
	</g>
	<g id="XMLID_124_">
		<path id="XMLID_125_" class="st0" d="M67.6,170.8c-1,0.4-2,0.2-2.8-0.4c-2.2-1.6-4.4-3.1-6.4-4.9c-0.9-0.8-1.4-2.2-2.2-3.4
			c1.1-0.1,1.9-0.2,2.7,0.5c1.4,1.3,2.8,2.5,4.3,3.7c0.9,0.7,1.8,1.4,2.7,1.9C66.9,168.8,67.5,169.6,67.6,170.8z"/>
	</g>
	<g id="XMLID_122_">
		<path id="XMLID_123_" class="st0" d="M141,39c3.2,1.1,6.4,2,9.1,3.9c1.3,1,1.7,1.5,2,2.5c-1.1,0.8-1.8,0.7-2.9,0
			c-1.9-1.3-3.9-2.4-6-3.5C141.9,41.3,141.3,40.5,141,39z"/>
	</g>
	<g id="XMLID_120_">
		<path id="XMLID_121_" class="st0" d="M84.9,55.6c-0.5-0.6-0.9-1-1.4-1.6c1.5-0.6,2.9-1.6,4.6-1.5c0.2,0,0.5-0.1,0.7-0.2
			c1-0.4,2.1-0.9,3.1-1.4c1-0.4,1.9-0.8,3-0.1c0.1-0.4,0.2-0.6,0.2-0.9c0.9-0.1,1.7-0.3,2.5-0.4c0.3,0,0.7,0,0.9,0.1
			c0.3,0.2,0.5,0.5,0.8,0.7c-0.3,0.3-0.5,0.7-0.8,0.8c-1.1,0.2-2.1,0.2-3.2,0.3c-0.1,0-0.3,0-0.3,0c-1.3,1.3-3.2,1.1-4.8,1.6
			c-1,0.3-2.1,0.5-3,1.2C86.7,54.9,85.8,55.2,84.9,55.6z"/>
	</g>
	<g id="XMLID_118_">
		<path id="XMLID_119_" class="st0" d="M177,139.1c0.1-0.7,0-1.4,0.3-2c1-2.4,2.1-4.8,3.1-7.1c0.2-0.3,0.6-0.6,0.9-0.9
			c0.2,0.4,0.4,0.8,0.5,1.2c0.4,2.9-0.9,5.4-2.5,7.6c-0.5,0.6-1.4,1-2.1,1.4C177.2,139.3,177.1,139.2,177,139.1z"/>
	</g>
	<g id="XMLID_116_">
		<path id="XMLID_117_" class="st0" d="M163.2,126.6c0.1,0.3,0.3,0.6,0.2,0.9c-0.6,1.7-1.1,3.5-1.9,5.1c-0.9,1.9-2,3.7-3,5.7
			c-0.3-0.9-0.5-1.5-0.7-2.2c-0.1-0.2,0-0.5,0.1-0.7c1.1-2.4,2.2-4.7,3.3-7.1C161.6,127.3,162.4,127,163.2,126.6L163.2,126.6z"/>
	</g>
	<g id="XMLID_114_">
		<path id="XMLID_115_" class="st0" d="M87.2,166.7c3.4-1.5,6.6-2,9-1.3c-0.2,1.1-0.3,2.2-0.6,3.6c-0.3-0.2-0.6-0.3-0.8-0.5
			c-0.2-0.2-0.2-0.6-0.5-0.8c0,0.4,0.1,0.7,0.1,1.2C91.9,168.5,89.7,167.4,87.2,166.7z"/>
	</g>
	<g id="XMLID_112_">
		<path id="XMLID_113_" class="st0" d="M163.2,126.6c-0.7-0.5-0.8-1.1-0.6-1.9c0.7-2.9,1.3-5.8,1.9-8.6c0.1-0.4,0.2-0.8,0.3-1.2
			c0.6,0.2,1.1,0.3,1.7,0.5c-0.2,1-0.3,2.1-0.6,3.1c-0.4,2-0.9,4-1.4,6C164.4,125.3,164.1,126.1,163.2,126.6
			C163.2,126.6,163.2,126.6,163.2,126.6z"/>
	</g>
	<g id="XMLID_110_">
		<path id="XMLID_111_" class="st0" d="M97.7,33.8c-0.1-0.5-0.1-0.8-0.1-1c0-0.8,0.4-1.3,1.2-1.4c1.9-0.2,3.8-0.4,5.7-0.7
			c0.6-0.1,1.3,0.5,1.5,1.2c0.2,0.7-0.3,1-0.9,1.1C102.6,33.2,100.2,33.5,97.7,33.8z"/>
	</g>
	<g id="XMLID_108_">
		<path id="XMLID_109_" class="st0" d="M38.1,135.1c2.4,1.1,2.7,3.6,3.6,5.6c0.2,0.6,0.4,1.2,0.5,1.8c0.1,0.6-0.2,0.9-0.7,0.5
			c-0.7-0.5-1.3-1-1.8-1.7c-0.9-1.4-1.6-2.9-2.4-4.5c-0.1-0.2,0-0.6,0.2-0.9C37.6,135.7,37.9,135.4,38.1,135.1z"/>
	</g>
	<g id="XMLID_106_">
		<path id="XMLID_107_" class="st0" d="M181.4,127.4c-0.2-0.5-0.3-0.9-0.4-1.3c-0.2-0.6-0.4-1.2-0.6-1.9c0-0.2,0-0.5,0.1-0.6
			c0.8-1.5,1-3.2,1.2-4.9c0.1-0.9,0.5-1.6,1.5-1.7C183.9,120.6,183.5,124,181.4,127.4z"/>
	</g>
	<g id="XMLID_104_">
		<path id="XMLID_105_" class="st0" d="M174.4,148.8c-0.9-0.1-1.2,0.2-1.4,1c-0.3,1.2-0.9,2.2-2,2.8c-0.3,0.2-0.8,0.2-1,0.1
			c-0.2-0.1-0.3-0.6-0.2-0.9c0.2-1.5,0.8-2.7,2-3.7c0.4-0.3,0.6-0.5,0.6-1.1c-0.1-0.8,1-1.6,1.8-1.3c0.2,0.1,0.4,0.4,0.4,0.6
			C174.5,147,174.5,147.8,174.4,148.8z"/>
	</g>
	<g id="XMLID_102_">
		<path id="XMLID_103_" class="st0" d="M148.9,172.8c-0.7-0.7-1.1-0.4-1.6,0.2c-0.7,0.9-1.7,1.5-2.9,1.6c-0.4,0-0.9-0.1-1.1-0.3
			c-0.1-0.2,0-0.8,0.2-1.1c0.8-1.2,1.9-2,3.4-2.3c0.3-0.1,0.7-0.4,0.8-0.7c0.5-0.9,1.4-0.9,2.2-0.4c0.1,0.1,0.2,0.5,0.1,0.7
			C149.8,171.2,149.4,171.9,148.9,172.8z"/>
	</g>
	<g id="XMLID_100_">
		<path id="XMLID_101_" class="st0" d="M155.4,165.3c0.7-0.9,1.4-1.7,2.1-2.5c0.3-0.3,0.7-0.6,1-0.9c1.6-1.4,2.1-1.4,3.9-0.1
			C159.7,164.8,157.5,166.2,155.4,165.3z"/>
	</g>
	<g id="XMLID_98_">
		<path id="XMLID_99_" class="st0" d="M53.6,55.1c-0.3,1.2-0.6,2.3-0.9,3.5c-0.4-0.1-0.8-0.2-0.9-0.3c-0.4,0.9-0.8,1.7-1.1,2.5
			c-0.3,0.7-1,0.5-1.6,0.4c-0.2,0-0.3-0.7-0.3-1.1c0-0.4,0.1-0.8,0.2-1.2c0.3-1.3,1-1.7,2.2-1.5C51,55.6,51.6,54.9,53.6,55.1z"/>
	</g>
	<g id="XMLID_96_">
		<path id="XMLID_97_" class="st0" d="M97.1,31c-1.4,0-2.7,0.5-4-0.2c-0.8-0.5-0.9-1.1-0.2-1.7c0.5-0.4,0.9-0.9,1.4-1.3
			c0.8-0.7,1-0.8,2.4-0.7C96.8,28.3,96.9,29.6,97.1,31z"/>
	</g>
	<g id="XMLID_94_">
		<path id="XMLID_95_" class="st0" d="M61.6,141.1c-1,0.1-1.6-0.2-1.9-1c-0.4-0.8-0.9-1.5-1.4-2.3c-0.6-1.1-1.2-2.1-2-3.4
			c0.7-0.1,1.2-0.2,1.6-0.2c0.2,0,0.5,0.3,0.6,0.5c0.9,1.4,1.7,2.9,2.6,4.2C61.7,139.6,61.8,140.3,61.6,141.1z"/>
	</g>
	<g id="XMLID_92_">
		<path id="XMLID_93_" class="st0" d="M95.3,164.7c-0.1-0.3-0.1-0.5-0.1-0.6c-1.1-0.1-2.1-0.2-3.1-0.2c0.7-1.8,1.8-1.9,3-0.9
			c0.1,0.1,0.3,0.2,0.5,0.2c1.1,0.1,2.2,0.2,3.3,0.3c0.3,0,0.6,0.4,0.6,0.7c0,0.2-0.3,0.6-0.6,0.7c-0.4,0.1-0.8,0.1-1.3,0.1
			C96.9,165,96.2,164.8,95.3,164.7z"/>
	</g>
	<g id="XMLID_90_">
		<path id="XMLID_91_" class="st0" d="M100.4,163.8c1.4,0.1,2.8,0.3,4.2,0.4c0.5,0,0.9,0.1,1.4,0.2c0.4,0.1,0.9,0.2,0.8,0.8
			c-0.1,0.5-0.5,1-1.1,0.9c-1.3-0.1-2.5-0.3-3.8-0.5C100.3,165.5,100.2,165.4,100.4,163.8z"/>
	</g>
	<g id="XMLID_88_">
		<path id="XMLID_89_" class="st0" d="M100.2,51c-0.2-1.6,0-1.8,1.3-1.9c1.3-0.1,2.5-0.3,3.8-0.4c0.7-0.1,1.1,0.3,1.1,0.9
			c0,0.2-0.4,0.8-0.6,0.8C104,50.6,102.2,50.7,100.2,51z"/>
	</g>
	<g id="XMLID_86_">
		<path id="XMLID_87_" class="st0" d="M72.5,175c-0.5-0.3-0.9-0.6-1.4-0.9c-0.6-0.4-1.1-0.8-1.7-1.1c-0.6-0.3-0.8-0.7-0.6-1.1
			c0.1-0.3,0.7-0.7,1-0.6c0.8,0.2,1.7,0.5,2.3,0.9C73.1,172.7,73.1,173.7,72.5,175z"/>
	</g>
	<g id="XMLID_84_">
		<path id="XMLID_85_" class="st0" d="M121.8,182c1.1-2.3,3.8-2.7,5-1c-0.2,0.3-0.4,0.8-0.8,0.9c-0.8,0.3-1.8,0.5-2.6,0.5
			C122.9,182.5,122.4,182.2,121.8,182z"/>
	</g>
	<g id="XMLID_82_">
		<path id="XMLID_83_" class="st0" d="M25.7,105.1c0-0.9,0-1.8,0-2.9c1.5,0.3,2.9,0.5,4.3,0.8c0.2,0,0.4,0.4,0.5,0.5
			C28.9,104.1,27.4,104.6,25.7,105.1z"/>
	</g>
	<g id="XMLID_80_">
		<path id="XMLID_81_" class="st0" d="M99.4,45.9c0.1,1,0.2,1.9,0.4,3.1c-1-0.1-2-0.1-2.9-0.3c-0.8-0.2-0.8-0.8-0.2-1.4
			C97.4,46.7,98,45.6,99.4,45.9z"/>
	</g>
	<g id="XMLID_78_">
		<path id="XMLID_79_" class="st0" d="M99.9,165.7c-0.1,1.2-0.3,2.2-0.4,3.3c-0.5-0.2-1.1-0.2-1.5-0.5c-0.5-0.3-0.9-0.8-1.4-1.2
			c-0.5-0.5-0.5-1.1,0.2-1.3C97.8,165.8,98.8,165.8,99.9,165.7z"/>
	</g>
	<g id="XMLID_76_">
		<path id="XMLID_77_" class="st0" d="M36.4,137.2c0.4,0.7,0.8,1.4,1.2,2.3c-1.9-0.2-3.6-1.2-5.5-0.2c-0.1-0.3-0.3-0.7-0.4-1
			C33.3,137.9,34.7,137.5,36.4,137.2z"/>
	</g>
	<g id="XMLID_74_">
		<path id="XMLID_75_" class="st0" d="M131.1,179.5c-0.9,1.4-2.2,1.8-4.1,1.4c0.4-0.9,0.7-2,1.8-2.4
			C129.8,178.2,130.4,178.9,131.1,179.5z"/>
	</g>
	<g id="XMLID_72_">
		<path id="XMLID_73_" class="st0" d="M163,88.1c1.2,0.6,1.5,1.8,1.6,2.9c0.1,0.5-0.6,1-1.1,1.5c-0.7-1.2-1.2-2.3-1.2-3.5
			C162.4,88.7,162.8,88.4,163,88.1C163,88.1,163,88.1,163,88.1z"/>
	</g>
	<g id="XMLID_70_">
		<path id="XMLID_71_" class="st0" d="M185.3,87.8c0.3-1.6,0.7-3,1-4.7c0.2,0,0.5-0.1,0.9-0.1c0.1,1.1,0.1,2,0.2,3
			c0,0.2-0.1,0.4-0.2,0.5C186.5,87,185.9,87.3,185.3,87.8z"/>
	</g>
	<g id="XMLID_68_">
		<path id="XMLID_69_" class="st0" d="M165,158.9c0.1-2.3,0.9-3.2,2.8-3C168.2,157.2,167.2,158.3,165,158.9z"/>
	</g>
	<g id="XMLID_66_">
		<path id="XMLID_67_" class="st0" d="M132.3,179.6c0-1.3,0.7-2.4,1.9-2.8c0.6-0.2,0.8,0,0.8,0.6C135,179.3,134.5,179.7,132.3,179.6
			z"/>
	</g>
	<g id="XMLID_64_">
		<path id="XMLID_65_" class="st0" d="M140.1,176.2c-0.5,1.3-1.4,1.7-3.8,1.4C136.8,175.8,138.6,175.1,140.1,176.2z"/>
	</g>
	<g id="XMLID_62_">
		<path id="XMLID_63_" class="st0" d="M64.3,71.1c0,0.7-0.2,0.9-0.9,0.9c-0.7,0-0.7-0.4-0.6-0.8c0.1-0.5,0.2-1,0.3-1.5
			c0-0.1,0.5-0.2,0.6-0.2C63.9,70.1,64.1,70.7,64.3,71.1z"/>
	</g>
	<g id="XMLID_60_">
		<path id="XMLID_61_" class="st0" d="M33,105.1c-0.3-0.8-1.7-0.5-1.8-1.8c0.9,0.1,1.6,0.1,2.5,0.2C33.6,104.1,34,104.8,33,105.1z"
			/>
	</g>
	<g id="XMLID_58_">
		<path id="XMLID_59_" class="st0" d="M167.2,89.4c-0.7,0.5-1.4,1-2.3,1.7c0-0.8-0.3-1.7,0-1.9C165.6,88.6,166.4,89.2,167.2,89.4z"
			/>
	</g>
	<g id="XMLID_56_">
		<path id="XMLID_57_" class="st0" d="M119.8,182.1c0.2-1.1,0.8-1.5,1.9-1.4c0,0.5-0.1,1-0.2,1.6C121,182.2,120.4,182.1,119.8,182.1
			z"/>
	</g>
	<g id="XMLID_54_">
		<path id="XMLID_55_" class="st0" d="M168,155.3c-0.5-0.9,0-1.5,0.6-2C169.5,154.3,169.3,154.9,168,155.3z"/>
	</g>
	<g id="XMLID_52_">
		<path id="XMLID_53_" class="st0" d="M140.4,175.7c-0.1-1.1,0.7-1.3,1.4-1.5C142.1,175.5,141.8,176,140.4,175.7z"/>
	</g>
	<g id="XMLID_50_">
		<path id="XMLID_51_" class="st0" d="M62.9,67c-0.3-1.2-0.7-2.9,0.6-4.3C63.4,64.3,63.1,65.8,62.9,67z"/>
	</g>
	<g id="XMLID_48_">
		<path id="XMLID_49_" class="st0" d="M85.4,32.3c-0.1,0.4-0.1,0.7-0.2,1c-1.2-0.2-1.1,0-1-1.7C84.6,31.9,85,32.1,85.4,32.3z"/>
	</g>
	<g id="XMLID_46_">
		<path id="XMLID_47_" class="st0" d="M144.2,156c0-0.1,0.1-0.2,0.1-0.3c0-1,0.4-1.1,1.4-0.6c0,0,0,0,0,0
			C145.1,155.3,144.6,155.6,144.2,156C144.1,155.9,144.2,156,144.2,156z"/>
	</g>
	<g id="XMLID_44_">
		<path id="XMLID_45_" class="st0" d="M90.8,49.8c-0.1,0.3-0.1,0.5-0.2,0.7c-0.9,0-0.8-0.5-0.7-1.2C90.2,49.5,90.4,49.7,90.8,49.8z"
			/>
	</g>
</g>
</svg>
