<?xml version="1.0" encoding="utf-8"?>
<!-- Generator: Adobe Illustrator 19.0.0, SVG Export Plug-In . SVG Version: 6.00 Build 0)  -->
<svg version="1.1" id="Livello_1" xmlns="http://www.w3.org/2000/svg" xmlns:xlink="http://www.w3.org/1999/xlink" x="0px" y="0px"
	 viewBox="0 0 159 151.5" style="enable-background:new 0 0 159 151.5;" xml:space="preserve">
<style type="text/css">
	.st0{fill:#DA232E;}
</style>
<path id="XMLID_415_" d="M89,8.4C51.9,2.1,16.6,27.1,10.3,64.3c-6.3,37.2,18.7,72.5,55.9,78.8c37.2,6.3,72.5-18.7,78.8-55.9
	C151.2,50,126.2,14.7,89,8.4z M125.8,115.8c-12.1,14.1-29.7,22.1-48.2,22.1c-18.3,0-35.6-8-47.6-21.8c-0.2-0.2-0.2-0.6,0.1-0.8
	c0.2-0.2,0.6-0.2,0.8,0.1c11.8,13.6,28.8,21.4,46.8,21.4c18.2,0,35.5-7.9,47.3-21.7c0.2-0.2,0.6-0.3,0.8-0.1
	C126,115.3,126,115.6,125.8,115.8z M82.9,46.3c16.3,2.8,27.2,18.2,24.4,34.5c-2.8,16.3-18.2,27.2-34.5,24.4
	C56.6,102.5,45.6,87,48.4,70.8C51.2,54.5,66.6,43.6,82.9,46.3z M51.2,53.2c6.7-7.6,16.5-12,26.6-12c10.4,0,20.2,4.6,26.9,12.5
	c0.2,0.2,0.2,0.6-0.1,0.8c-0.1,0.1-0.2,0.1-0.4,0.1c-0.2,0-0.3-0.1-0.4-0.2c-6.5-7.7-16-12.1-26-12.1c-9.9,0-19.3,4.2-25.8,11.6
	c-0.2,0.2-0.6,0.3-0.8,0C51.1,53.8,51,53.4,51.2,53.2z M104.7,97.7c-6.8,7.9-16.6,12.4-27,12.3c-10.2,0-19.9-4.4-26.6-12.1
	c-0.2-0.2-0.2-0.6,0.1-0.8c0.2-0.2,0.6-0.2,0.8,0.1c6.5,7.4,15.9,11.7,25.7,11.7c10,0,19.6-4.3,26.1-11.9c0.2-0.2,0.6-0.3,0.8-0.1
	C104.8,97.1,104.9,97.5,104.7,97.7z M77.7,114.5c11.7,0,22.7-5,30.3-13.9c0.2-0.2,0.6-0.3,0.8-0.1c0.2,0.2,0.3,0.6,0.1,0.8
	c-7.8,9.1-19.2,14.3-31.2,14.3c-11.8,0-23-5.2-30.8-14.1c-0.2-0.2-0.2-0.6,0.1-0.8c0.2-0.2,0.6-0.2,0.8,0.1
	C55.3,109.5,66.2,114.5,77.7,114.5z M109,50.9c-0.1,0.1-0.2,0.1-0.4,0.1c-0.2,0-0.3-0.1-0.4-0.2c-7.6-8.9-18.6-14-30.3-14.1
	c-11.5,0-22.4,4.9-30,13.5c-0.2,0.2-0.6,0.3-0.8,0.1c-0.2-0.2-0.3-0.6-0.1-0.8c7.8-8.9,19.1-13.9,30.9-13.9c12,0,23.3,5.3,31.1,14.4
	C109.2,50.3,109.2,50.7,109,50.9z M77.9,31.2c-13.1,0-25.6,5.6-34.2,15.4c-0.2,0.2-0.6,0.3-0.8,0.1c-0.2-0.2-0.3-0.6-0.1-0.8
	C51.7,35.8,64.5,30,77.9,30c13.6,0,26.5,6,35.4,16.4c0.2,0.2,0.2,0.6-0.1,0.8c-0.1,0.1-0.2,0.1-0.4,0.1c-0.2,0-0.3-0.1-0.4-0.2
	C103.8,37,91.2,31.2,77.9,31.2z M42.7,104.4c0.2-0.2,0.6-0.2,0.8,0.1c8.6,9.9,21.1,15.6,34.2,15.6c13.3,0,25.9-5.7,34.6-15.8
	c0.2-0.2,0.6-0.3,0.8-0.1s0.3,0.6,0.1,0.8c-8.9,10.4-21.8,16.3-35.5,16.2c-13.4,0-26.2-5.9-35-16C42.5,105,42.5,104.6,42.7,104.4z
	 M77.7,125.6c14.9,0,29.1-6.4,38.8-17.8c0.2-0.2,0.6-0.3,0.8-0.1c0.2,0.2,0.3,0.6,0.1,0.8c-10,11.6-24.4,18.2-39.7,18.2
	c-15,0-29.3-6.6-39.2-17.9c-0.2-0.2-0.2-0.6,0.1-0.8c0.2-0.2,0.6-0.2,0.8,0.1C49,119.2,63,125.6,77.7,125.6z M117.5,43.7
	c-0.1,0.1-0.2,0.1-0.4,0.1c-0.2,0-0.3-0.1-0.4-0.2c-9.7-11.4-23.8-18-38.8-18c-14.7,0-28.7,6.3-38.5,17.3c-0.2,0.2-0.6,0.3-0.8,0.1
	c-0.2-0.2-0.3-0.6-0.1-0.8c9.9-11.3,24.3-17.8,39.3-17.7c15.3,0,29.7,6.7,39.6,18.4C117.7,43.1,117.7,43.5,117.5,43.7z M77.9,20
	c-16.3,0-31.9,7-42.7,19.3c-0.2,0.2-0.6,0.3-0.8,0.1c-0.2-0.2-0.3-0.6-0.1-0.8c11-12.5,26.9-19.7,43.5-19.6
	c16.9,0,32.9,7.5,43.8,20.4c0.2,0.2,0.2,0.6-0.1,0.8c-0.1,0.1-0.2,0.1-0.4,0.1c-0.2,0-0.3-0.1-0.4-0.2C110.2,27.3,94.5,20.1,77.9,20
	z M34.3,111.7c0.2-0.2,0.6-0.2,0.8,0.1c10.7,12.3,26.2,19.4,42.6,19.5c16.6,0,32.3-7.1,43.1-19.7c0.2-0.2,0.6-0.3,0.8-0.1
	c0.2,0.2,0.3,0.6,0.1,0.8c-11,12.8-27,20.2-43.9,20.1c-16.7,0-32.5-7.3-43.4-19.9C34,112.2,34,111.9,34.3,111.7z M126,36.5
	c-0.1,0.1-0.2,0.1-0.4,0.1c-0.2,0-0.3-0.1-0.4-0.2c-11.8-13.9-29-21.9-47.2-21.9c-18,0-35,7.7-46.9,21.2c-0.2,0.2-0.6,0.3-0.8,0.1
	c-0.2-0.2-0.3-0.6-0.1-0.8C42.3,21.1,59.7,13.3,78,13.3c18.5,0,36.1,8.2,48.1,22.3C126.2,35.9,126.2,36.2,126,36.5z"/>
<g id="XMLID_346_">
	<g id="XMLID_673_">
		<path id="XMLID_674_" class="st0" d="M92.8,71.9c0.4-0.1,0.7-0.3,1.1-0.4c0.1,0,0.2,0,0.3,0c0.5,0,0.7,0.3,0.6,0.7
			c-0.2,0.6-0.3,1.2-0.5,1.7c-0.2,0.7-0.3,1.3-0.3,2c0.1,0.5,0.3,0.6,0.7,0.3c0.2-0.2,0.3-0.3,0.2-0.6c-0.5-1.8,0.2-3.8,1.8-4.8
			c0.8-0.5,1.3-0.5,2,0.1c0,0,0.1-0.1,0.1-0.1c0.1-0.4,0.3-0.8,0.3-1.3c0.1-0.4,0-0.5-0.4-0.7c0.2-0.2,0.3-0.4,0.5-0.5
			c0.5-0.2,0.9-0.5,1.4-0.6c0.6-0.2,0.9,0.2,0.8,0.8c-0.4,1.2-0.8,2.3-1.1,3.5c-0.2,0.8-0.3,1.5-0.5,2.3c0,0.2,0,0.3,0,0.5
			c0.1,0.4,0.3,0.5,0.6,0.3c0.1-0.1,0.3-0.2,0.4-0.3c0,0,0.1,0,0.2,0c-0.2-1.1-0.1-2.2,0.5-3.2c0.6-1,1.3-1.8,2.5-2.1
			c1-0.3,1.6,0.2,1.6,1.2c0,1.3-0.6,2.4-1.7,3.2c-0.2,0.1-0.4,0.2-0.7,0.2c-0.3,0.1-0.3,0.2-0.3,0.4c0,0.4,0.4,0.7,0.8,0.5
			c0.4-0.2,0.7-0.5,1.1-0.7c0.1-0.1,0.2-0.3,0.4-0.1c0.2,0.1,0.1,0.3,0,0.5c-0.5,0.8-1.2,1.4-2.2,1.7c-0.7,0.2-1.4-0.1-1.7-0.7
			c-0.1-0.2-0.2-0.3-0.2-0.5c-0.3,0.7-0.8,1.2-1.4,1.6c-0.1,0.1-0.3,0.2-0.4,0.3c-0.4,0.2-0.7,0.1-0.9-0.3c-0.4-0.6-0.4-0.5-0.7-0.1
			c-0.7,0.7-1.5,0.7-2.1-0.1c0,0-0.1-0.1-0.1-0.1c-0.4,0.7-0.9,1.2-1.5,1.6c-0.6,0.4-1,0.3-1.3-0.3c-0.1-0.2-0.2-0.2-0.4,0
			c-0.2,0.2-0.4,0.4-0.6,0.6c-0.6,0.4-1.2,0.2-1.6-0.3c-0.6-0.8-0.8-1.7-0.7-2.7c0.1-1.3,0.7-2.3,1.7-3.1c0.3-0.2,0.6-0.4,1-0.5
			C92.2,71.5,92.6,71.6,92.8,71.9z M91.3,75.5c0,0.3,0.1,0.6,0.4,0.8c0.2,0.2,0.4,0.1,0.5-0.1c0.1-0.5,0.3-1,0.4-1.5
			c0-0.2,0-0.5-0.3-0.6c-0.3-0.1-0.5,0.1-0.6,0.3C91.5,74.7,91.3,75.4,91.3,75.5z M97,74.3c0,0.3,0.1,0.6,0.4,0.8
			c0.2,0.2,0.5,0.1,0.5-0.1c0.1-0.5,0.2-1,0.3-1.5c0-0.2,0-0.5-0.3-0.6c-0.3-0.1-0.4,0.1-0.6,0.2C97.1,73.5,97,73.9,97,74.3z
			 M104.3,70c0,0-0.1-0.1-0.1-0.1c-1,0.3-1.8,0.9-2.3,1.8c-0.6,0.9-0.7,2.2-0.5,2.6C101.5,72.3,102.4,70.8,104.3,70z M92,72.2
			C91.9,72.2,91.9,72.2,92,72.2c-0.2,0-0.4,0-0.5,0c-0.6,0.2-1,0.7-1.4,1.2c-0.4,0.7-0.6,1.4-0.7,2.2c0,0.2,0,0.4,0.2,0.5
			C89.7,74.4,90.3,73,92,72.2z M95.3,75c0-1.8,0.8-3.1,2.4-4c-0.6-0.1-1.6,0.7-2,1.5C95.2,73.4,95,74.6,95.3,75z M103.2,73.3
			c0.4,0,1.1-0.6,1.2-1c0-0.1,0-0.3,0-0.3c-0.1-0.1-0.2-0.1-0.3,0c-0.5,0.2-0.8,0.6-1,1.1C103.1,73.2,103.1,73.3,103.2,73.3z
			 M98.7,73.5c-0.3,0.7-0.5,1.5-0.8,2.2C98.4,75.6,98.9,74.2,98.7,73.5z M92.3,76.9c0.5-0.2,1-1.6,0.7-2.3
			C92.7,75.4,92.5,76.1,92.3,76.9z M99.6,69.4c-0.2,0.7-0.4,1.4-0.7,2.1C99.4,71.3,99.8,70.1,99.6,69.4z M100.8,68.4
			c-0.3-0.2-1.3,0.1-1.6,0.5c0.1,0,0.3,0.1,0.3,0.1C99.9,68.8,100.3,68.6,100.8,68.4z M105.1,74.4c-0.4-0.1-1,0.5-1,1
			C104.5,75.1,104.9,74.8,105.1,74.4z M104.8,72.4c-0.4,0.4-0.8,0.8-1.2,1.2C104.1,73.5,104.6,73,104.8,72.4z M94.1,72
			c-0.4-0.1-1,0.2-1,0.5C93.4,72.4,93.7,72.3,94.1,72z"/>
	</g>
	<g id="XMLID_664_">
		<path id="XMLID_665_" class="st0" d="M56.4,76.2c0.5-0.4,0.9-0.8,1.3-1.2c0.3-0.2,0.6-0.4,1-0.5c0.4-0.1,0.8,0.1,0.8,0.5
			c0,0.4,0,0.8-0.1,1.2c-0.4,1.5-0.8,3.1-1.2,4.6c-0.1,0.2-0.1,0.4-0.1,0.7c0,0.1,0,0.3,0.1,0.3c0.1,0,0.2,0,0.3,0c0,0,0,0,0,0
			c0.1,0,0.2-0.1,0.4-0.1c0,0.1,0,0.3,0,0.4c-0.3,0.7-0.8,1.3-1.4,1.7c-0.7,0.5-1.4,0.2-1.6-0.7c-0.2-0.8-0.1-1.6,0.2-2.4
			c0.3-0.9,0.5-1.7,0.7-2.6c0-0.2,0-0.4-0.1-0.5c-0.2-0.1-0.4,0.1-0.5,0.2C56.1,77.9,56,78,56,78.1c-0.4,1.4-0.8,2.8-1.2,4.2
			c-0.1,0.4-0.1,0.9-0.1,1.4c0,0.3-0.1,0.4-0.3,0.5c-0.2,0.1-0.4,0.1-0.6,0.1c-0.5,0.1-0.9-0.1-1-0.6c-0.2-0.8-0.1-1.5,0.1-2.3
			c0.3-0.9,0.5-1.9,0.8-2.8c0-0.2,0-0.3-0.1-0.5c-0.2,0.1-0.4,0.1-0.5,0.2c-0.1,0.1-0.2,0.3-0.2,0.4c-0.4,1.4-0.7,2.7-1.1,4.1
			c0,0.2-0.1,0.3-0.1,0.5c0,0.1,0,0.3,0.1,0.3c0.1,0.1,0.2,0.2,0.1,0.4c-0.1,0.5-0.9,1.1-1.5,1c-0.2,0-0.4-0.2-0.6-0.3
			c-0.3-0.4-0.3-0.8-0.4-1.3c0-0.8,0.3-1.6,0.5-2.4c0.2-0.9,0.5-1.8,0.7-2.7c0-0.2,0.1-0.3,0-0.5c-0.1-0.5,0.1-0.9,0.5-1.3
			c0.3-0.3,0.7-0.6,1.1-0.9c0.1-0.1,0.3-0.1,0.4-0.2c0.4-0.1,0.6,0.1,0.6,0.5c0,0.2,0,0.4,0,0.7c0.1-0.1,0.2-0.2,0.2-0.2
			c0.5-0.5,1-1,1.6-1.2c0.1,0,0.2-0.1,0.3-0.1c0.5-0.1,0.9,0.1,0.9,0.7C56.4,75.9,56.4,76,56.4,76.2z M49.9,83.7
			C50,83.7,50,83.7,49.9,83.7C50,83.6,50,83.6,49.9,83.7c0.2-1.2,0.6-2.2,0.9-3.3c0.2-0.7,0.3-1.5,0.4-2.3c0-0.1,0-0.2,0-0.4
			c0,0-0.1,0-0.1,0c0,0.1-0.1,0.2-0.1,0.3c-0.1,1-0.4,1.9-0.7,2.9c-0.2,0.7-0.3,1.5-0.5,2.3C49.8,83.3,49.9,83.5,49.9,83.7z
			 M53,83.1c0,0,0.1,0,0.1,0c0.1-0.4,0.2-0.9,0.3-1.3c0.3-1,0.5-2.1,0.8-3.1c0-0.1,0-0.3,0-0.4c0,0-0.1,0-0.1,0c0,0,0,0.1-0.1,0.1
			c-0.3,1.3-0.7,2.6-1,4C53,82.6,53,82.8,53,83.1z M57.3,77.9C57.3,77.9,57.3,77.9,57.3,77.9c-0.1,0.1-0.2,0.1-0.2,0.2
			c-0.1,0.4-0.3,0.8-0.4,1.3c-0.2,0.8-0.5,1.6-0.6,2.4c-0.1,0.3,0,0.6,0,0.9c0,0,0.1,0,0.1,0C56.3,81,57.2,79.5,57.3,77.9z
			 M55.7,75.6c-0.7,0-2.2,1.2-2.2,1.7C54.3,76.7,55,76.1,55.7,75.6z M56.6,76.8c0.1,0,0.2,0,0.2-0.1c0.7-0.6,1.3-1.1,2-1.7
			C58.3,75,56.6,76.3,56.6,76.8z M51.1,77.5c0.6-0.5,1.2-1.1,1.8-1.6c0,0-0.1,0-0.1,0c-0.7,0.3-1.2,0.7-1.6,1.3
			C51,77.3,51.1,77.4,51.1,77.5z"/>
	</g>
	<g id="XMLID_651_">
		<path id="XMLID_652_" class="st0" d="M70.3,80.8c-0.3,0.3-0.5,0.6-0.8,0.8c-0.2,0.2-0.5,0.3-0.8,0.4c-0.6,0.2-1.1-0.1-1.3-0.8
			c-0.2-0.7-0.1-1.4,0.1-2.1c0.1-0.2,0.1-0.4,0.2-0.6c0-0.1,0-0.2,0-0.2c-0.2-0.2-0.7-0.1-0.8,0.1c-0.2,0.4-0.5,0.9-0.7,1.3
			c-0.1,0.1-0.1,0.2-0.2,0.3c-0.2,0.2-0.5,0.1-0.5-0.2c0-0.2,0-0.4,0.1-0.6c0.1-0.4,0.3-0.8,0.5-1.2c0.1-0.2,0.1-0.4,0-0.5
			c-0.3-0.6-0.3-1.3,0-1.9c0.1-0.2,0.2-0.3,0.4-0.5c0.3-0.2,0.7-0.2,0.8,0.1c0.1,0.3,0.1,0.6,0.2,0.8c0,0.1,0,0.2,0,0.3
			c0,0.2,0.1,0.2,0.2,0.3c0.6,0.1,1.1-0.2,1.6-0.5c0.3-0.2,0.4-0.2,0.5,0.2c0.1,0.4,0.2,0.7,0.4,1.1c0.1,0.2,0.1,0.4,0,0.6
			c-0.4,0.6-0.7,1.2-0.9,1.9c0,0.2-0.1,0.5,0.1,0.6c0.2,0.2,0.4-0.1,0.6-0.2c0,0,0.1,0,0.1-0.1c0.3-0.2,0.5-0.5,0.6-0.9
			c0.1-0.7,0.5-1.5,0.6-2.2c0.1-0.4,0.1-0.8,0.1-1.2c0-0.1,0.1-0.2,0.1-0.3c0.3-0.4,0.8-0.7,1.3-1c0.7-0.3,1-0.2,1,0.6
			c0.1-0.1,0.3-0.2,0.4-0.3c0.5-0.4,1-0.7,1.7-0.9c0.6-0.1,0.7,0,0.8,0.6c0,0,0,0.1,0,0.2c0.1-0.1,0.2-0.2,0.3-0.3
			c0.5-0.4,1-0.8,1.7-1c0.1,0,0.2-0.1,0.3-0.1c0.3,0,0.5,0.1,0.5,0.4c0,0.4,0,0.9-0.2,1.3c-0.2,0.8-0.5,1.7-0.8,2.5
			c0,0.2-0.1,0.3-0.1,0.5c0,0.2,0.1,0.3,0.3,0.3c0.1,0,0.2-0.1,0.2-0.1c0.1,0,0.1,0,0.2,0c0,0.1,0,0.2,0,0.2c-0.4,0.8-1,1.3-1.8,1.4
			c-0.4,0.1-0.7-0.2-0.9-0.5c-0.2-0.4-0.2-0.7-0.1-1.1c0.2-0.6,0.4-1.3,0.6-1.9c0-0.1,0.1-0.2,0.1-0.4c0-0.1,0-0.3,0-0.4
			c-0.2,0-0.3,0.1-0.5,0.1c-0.1,0-0.1,0.1-0.2,0.2c-0.3,1-0.7,2-1,3c-0.1,0.2,0,0.5,0,0.8c0,0.2,0,0.3-0.2,0.4
			c-0.3,0.1-0.7,0.2-1,0.2c-0.5,0-0.8-0.4-0.7-0.9c0-0.4,0.1-0.9,0.2-1.3c0.1-0.6,0.3-1.1,0.5-1.6c0-0.1,0-0.3,0-0.3
			c-0.1,0-0.3,0-0.3,0c-0.1,0.1-0.3,0.2-0.3,0.3c-0.3,1-0.6,2.1-0.9,3.1c0,0.1,0,0.2,0.1,0.3c0.2,0.1,0.2,0.2,0.1,0.4
			C71.9,81.6,70.8,81.6,70.3,80.8C70.3,80.9,70.3,80.9,70.3,80.8z M70.6,80.4c0.1-0.4,0.2-0.7,0.3-1c0.2-0.9,0.5-1.7,0.7-2.6
			c0.1-0.4,0.2-0.7,0.6-0.8c0.2-0.1,0.4-0.2,0.6-0.3c0.1,0,0.1-0.1,0.2-0.2c0,0,0,0-0.1-0.1c-0.5,0.1-1,0.4-1.4,0.8c0,0,0,0.1,0,0.2
			c0,0.4,0,0.8-0.1,1.1c-0.2,0.7-0.5,1.4-0.7,2.1C70.5,79.8,70.4,80.1,70.6,80.4z M77.3,76.3c0,0-0.1-0.1-0.1-0.1c0,0,0,0.1,0,0.1
			c-0.3,0.8-0.5,1.6-0.8,2.3c-0.1,0.2-0.1,0.5,0.1,0.8C76.7,78.4,77.1,77.4,77.3,76.3z M74.3,76.8c0,0-0.1,0-0.1,0
			c-0.3,1-0.8,1.9-0.8,2.9c0,0.1,0,0.2,0.1,0.3c0.1,0,0.1-0.1,0.1-0.1c0.3-0.9,0.5-1.7,0.8-2.6C74.3,77.1,74.3,76.9,74.3,76.8z
			 M78.5,74.5c-0.6-0.1-1.9,0.7-2.1,1.2C77.2,75.4,77.7,74.8,78.5,74.5z M68.1,78.5c-0.4,0.2-0.7,1.8-0.5,2.4
			C67.8,80.1,68,79.3,68.1,78.5z M73.7,76.2c0.6-0.4,1.3-0.8,1.9-1.2C75.2,74.9,73.8,75.7,73.7,76.2z M65.6,79.8
			c0.4-0.3,0.9-1.6,0.7-1.9C66,78.6,65.7,79.2,65.6,79.8z M66.6,75.7c-0.3,0.1-0.5,0.3-0.6,0.6c-0.1,0.2-0.1,0.5,0.1,0.7
			C66.2,76.6,66.4,76.1,66.6,75.7z M69.1,76.8c-0.4,0.1-0.7,0.3-0.9,0.6C68.7,77.4,69.1,77.1,69.1,76.8z M69.5,81.1
			C69.5,81.1,69.5,81.1,69.5,81.1c0.5-0.2,0.7-0.4,0.6-0.7C69.9,80.7,69.7,80.9,69.5,81.1z"/>
	</g>
	<g id="XMLID_641_">
		<path id="XMLID_642_" class="st0" d="M82.7,63c-0.1,0-0.1,0.1-0.2,0.1c-0.3,0.5-0.6,1-0.7,1.5c-0.1,0.7,0.4,1.2,1.1,0.9
			c0.4-0.1,0.8-0.4,1.1-0.7c0.2-0.1,0.3-0.2,0.5-0.3c0.1,0,0.2-0.1,0.3,0c0.1,0.1,0.1,0.2,0.1,0.3c0,0.2-0.1,0.3-0.2,0.5
			c-0.5,0.7-1.2,1.4-2,1.7c-0.7,0.3-1.4,0.1-1.9-0.6c-0.1-0.1-0.1-0.2-0.2-0.3c-0.1,0.1-0.2,0.2-0.2,0.3c-0.4,0.5-0.8,0.9-1.4,1.2
			c-0.5,0.2-0.8,0.1-1.1-0.3c-0.2-0.4-0.2-0.4-0.5-0.1c-0.2,0.2-0.3,0.3-0.5,0.4c-0.6,0.4-1.1,0.3-1.6-0.2c-0.5-0.6-0.7-1.3-0.8-2.1
			c-0.1-1.7,0.6-2.9,1.9-3.9c0.1-0.1,0.3-0.2,0.5-0.3c0.5-0.2,0.9-0.2,1.3,0.2c0.4-0.1,0.7-0.3,1.1-0.4c0.1,0,0.2,0,0.3-0.1
			c0.4-0.1,0.7,0.3,0.6,0.7c-0.2,0.9-0.5,1.7-0.6,2.6c-0.1,0.4-0.1,0.8-0.1,1.3c0,0.4,0.3,0.5,0.6,0.3c0.2-0.2,0.3-0.3,0.2-0.6
			c-0.3-1.7,0.6-3.9,2.1-4.8c0.2-0.1,0.5-0.2,0.7-0.3c0.9-0.3,1.6,0.2,1.7,1c0.1,0.6,0.1,1.1-0.1,1.7c-0.3,0.6-0.8,1-1.4,1.2
			c-0.4,0.1-0.8-0.2-0.6-0.6C82.7,63.2,82.7,63.1,82.7,63C82.7,63,82.7,63,82.7,63z M78,64.3c-0.1-0.3-0.2-0.6-0.4-0.6
			c-0.3-0.1-0.5,0.1-0.6,0.3c-0.3,0.5-0.4,1-0.2,1.5c0.1,0.2,0.2,0.3,0.3,0.4c0.2,0.1,0.4,0.1,0.5-0.1C77.8,65.2,77.9,64.7,78,64.3z
			 M80.7,64.9c0,0,0.1,0,0.1,0c0-2,0.8-3.5,2.6-4.4c-1.1,0.2-1.7,0.9-2.2,1.8C80.8,63.1,80.4,64,80.7,64.9z M75,65.6
			c0.1-1.7,0.8-3.1,2.5-3.9c-0.6-0.1-1.5,0.5-2,1.5C75,64,74.7,64.8,75,65.6z M78.4,64.1c-0.2,0.8-0.5,1.6-0.7,2.3
			C78.2,66.2,78.7,64.7,78.4,64.1z M83,66.1c0.5,0,1.4-0.8,1.5-1.1C84,65.3,83.5,65.7,83,66.1z M79.5,61.6
			C79.5,61.6,79.4,61.6,79.5,61.6c-0.5-0.1-1,0.2-1,0.5C78.8,61.9,79.1,61.8,79.5,61.6z M83.2,63C83.2,63,83.1,63,83.2,63
			c-0.1,0.1-0.2,0.3-0.2,0.5C83.3,63.4,83.3,63.3,83.2,63z"/>
	</g>
	<g id="XMLID_633_">
		<path id="XMLID_634_" class="st0" d="M88.4,77.4c0,0.1-0.1,0.3-0.1,0.4c-0.4,0.6-0.8,1-1.5,1.3c-0.5,0.2-1,0-1.2-0.5
			c0,0,0-0.1-0.1-0.2c-0.1,0.1-0.1,0.1-0.2,0.2c-0.3,0.5-0.8,0.8-1.3,1.1c-0.5,0.3-0.8,0.1-1.1-0.3c-0.2-0.4-0.2-0.4-0.5-0.1
			c-0.9,1-1.9,0.9-2.5-0.3c-0.7-1.4-0.6-2.7,0.2-4.1c0.3-0.5,0.7-1,1.2-1.4c0.3-0.2,0.6-0.3,0.9-0.4c0.3-0.1,0.6,0,0.9,0.2
			c0,0,0.2,0,0.3,0c0.4-0.1,0.7-0.3,1.1-0.4c0.5-0.1,0.8,0.2,0.7,0.8c-0.2,0.6-0.3,1.2-0.5,1.8c-0.1,0.5-0.2,1-0.3,1.5
			c0,0.1,0,0.1,0,0.2c0,0.4,0.1,0.7,0.3,0.7c0.2,0,0.6-0.4,0.7-0.6c0.3-1.2,0.7-2.3,1-3.5c0.2-0.8,0.4-1.6,0.6-2.4
			c0-0.2,0-0.4,0-0.6c0-0.1,0-0.2,0.1-0.3c0.4-0.5,1-0.9,1.6-1.1c0.5-0.1,0.7,0.1,0.6,0.6c-0.2,0.9-0.4,1.8-0.6,2.7
			c-0.4,1.5-0.8,3-1.2,4.4c0,0.1,0,0.1,0,0.2c-0.1,0.3,0.1,0.4,0.3,0.3c0.1,0,0.2-0.1,0.3-0.1C88.3,77.4,88.3,77.4,88.4,77.4z
			 M88.9,70C88.9,69.9,88.9,69.9,88.9,70c-0.6,0.1-1.1,0.2-1.4,0.6c0,0.1,0,0.2,0,0.3c0,0.2,0.1,0.4,0,0.6c-0.4,1.3-0.8,2.6-1.1,4
			c-0.2,0.7-0.4,1.5-0.5,2.2c0,0.1,0,0.2,0,0.3c0.1-0.1,0.1-0.1,0.1-0.2c0.4-1.3,0.8-2.6,1.2-3.9c0.3-0.8,0.5-1.7,0.5-2.6
			c0-0.3,0.1-0.5,0.3-0.7c0.2-0.2,0.4-0.3,0.7-0.4C88.8,70.1,88.9,70,88.9,70z M81.7,76.9c0,0.5,0.1,0.8,0.3,0.9
			c0.2,0.1,0.4,0.1,0.5-0.1c0.2-0.5,0.4-1,0.4-1.6c0-0.2-0.1-0.4-0.3-0.5c-0.2-0.1-0.4,0-0.5,0.2C81.8,76.2,81.8,76.6,81.7,76.9z
			 M80,77.7c0.1-1.8,0.7-3.2,2.3-4c-1,0.2-1.6,0.9-2,1.7C79.8,76.3,79.7,77.4,80,77.7z M82.7,78.4c0.5-0.2,1-1.7,0.7-2.3
			C83.1,76.9,82.9,77.7,82.7,78.4z M84.4,73.7C84.4,73.7,84.4,73.6,84.4,73.7c-0.4-0.1-1,0.1-1,0.5C83.8,74,84.1,73.8,84.4,73.7z"/>
	</g>
	<g id="XMLID_624_">
		<path id="XMLID_625_" class="st0" d="M68,64.6c0,0.2-0.1,0.3-0.1,0.5c-0.1,0.3-0.3,0.4-0.6,0.3c-0.3-0.1-0.3,0-0.4,0.3
			c-0.1,0.4-0.2,0.8-0.3,1.2c-0.1,0.3-0.2,0.5-0.5,0.5c-0.3,0-0.7,0-0.9-0.3c-0.1-0.1-0.1-0.3-0.1-0.5c0.1-0.7,0.3-1.4,0.5-2.1
			c0.1-0.4,0.1-0.7,0.1-1.1c0-0.2,0-0.5,0.2-0.6c0.4-0.3,0.7-0.6,1.1-0.8c0.1-0.1,0.4-0.1,0.5,0c0.1,0.1,0.1,0.3,0.1,0.5
			c0,0.3-0.1,0.6-0.1,0.8c0,0.1,0,0.2,0.1,0.2c0,0,0.1,0,0.2,0c0.6-0.4,0.9-1.3,0.8-1.9c-0.1-0.4-0.4-0.6-0.8-0.5
			c-0.3,0.1-0.7,0.3-1,0.5c-0.6,0.6-1.2,1.2-1.5,2.1c0,0.1-0.1,0.2-0.2,0.2c-0.1,0-0.2-0.1-0.2-0.1c-0.3-0.6-0.6-1.2-0.2-1.9
			c0.7-1.3,1.8-2.2,3.2-2.7c1-0.3,1.9,0.2,2.2,1.1c0.3,0.9,0.2,1.8-0.5,2.6c-0.2,0.3-0.2,0.4,0.1,0.5c0.7,0.2,0.9,0.8,1,1.4
			c0,0.5-0.1,1.1-0.3,1.6c-0.6,1.4-1.4,2.5-2.8,3.1c-1,0.4-2,0.5-3,0.1c-1.3-0.6-1.6-2.4-0.5-3.3c0.1-0.1,0.2-0.1,0.3-0.2
			c0,0.1,0.1,0.2,0.1,0.2c0.2,1.4,1.1,1.9,2.5,1.6c1.3-0.4,1.7-1.8,1.5-2.8c0-0.1-0.1-0.2-0.2-0.3C68.1,64.6,68.1,64.6,68,64.6z
			 M64.6,62.7c0,0,0.1,0,0.1,0c0.5-1.6,1.8-2.4,3.1-3.1c-0.2,0-0.3,0-0.5,0.1c-0.8,0.3-1.5,0.9-2.1,1.5c-0.3,0.3-0.5,0.7-0.7,1.1
			C64.6,62.4,64.6,62.6,64.6,62.7z M66,63.7c-0.2,1.1-0.4,2.1-0.6,3.3C65.8,66.7,66.3,64.3,66,63.7z M68.7,65.1
			c-0.1,1.4-0.5,2.5-1.9,3.1C67.8,68.3,69.2,66.7,68.7,65.1z M68.8,61.9c-0.1,0.9-0.7,1.5-1.2,2.3C68.4,64,69.1,62.8,68.8,61.9z
			 M67.1,62.5c-0.4,0-1.1,0.4-1.2,0.7c0,0.1,0,0.2,0,0.4C66.4,63.2,66.7,62.9,67.1,62.5z M64.1,66.5c-0.5,0.2-0.7,1-0.4,1.3
			C63.8,67.4,64,67,64.1,66.5z"/>
	</g>
	<g id="XMLID_622_">
		<path id="XMLID_623_" class="st0" d="M92.3,95.9c0.1-0.2,0.2-0.5,0.2-0.7c0.5,0.1,0.7,0.2,0.8,0.7c0.1,0.4,0,0.9-0.3,1.2
			c-0.1,0.1-0.2,0.1-0.2,0.1c-0.3,0-0.4,0.2-0.6,0.3c-0.6,0.5-1.3,1-2.1,1.2c-0.2,0-0.4,0-0.7,0c0.1,0.1,0.1,0.2,0.2,0.4
			c-0.2,0-0.3,0-0.5,0c0,0.1-0.1,0.3-0.2,0.4c-0.4,0-0.7-0.2-0.8-0.7c-0.1,0.1-0.2,0.2-0.3,0.2c-0.1-0.1-0.2-0.1-0.3-0.1
			c0,0,0,0-0.1,0c0.1,0.2,0.2,0.4,0.4,0.7c-0.3,0.2-0.7,0.4-1,0.7c-0.2,0.1-0.3,0.1-0.4-0.1c-0.2-0.4-0.3-0.4-0.5-0.4
			c0,0.3,0.1,0.6,0,0.8c-0.1,0.2-0.5,0.2-0.8,0.2c0,0.2-0.2,0.2-0.3,0.2c-0.5,0.1-1.1,0.3-1.6,0.4c-0.5,0.1-1,0.2-1.5,0.2
			c-0.1,0-0.2-0.1-0.3-0.1c0-0.1,0-0.1,0.1-0.2c0,0-0.1,0-0.1,0c-0.2,0.1-0.4,0.3-0.6,0.4c-0.1,0.1-0.3,0-0.5,0c-0.1,0-0.1,0-0.2,0
			c-1.4,0.4-2.9,0.3-4.3,0.2c-1.9-0.2-3.7-0.5-5.5-1c-0.6-0.1-1-0.3-1.3-0.9c0.1-0.2,0.2-0.4,0.4-0.7c0.1,0,0.2,0,0.4,0
			c0.2,0,0.4,0,0.6,0c0.4,0,0.8,0.1,1.2,0.2c1.6,0.5,3.3,0.6,4.9,0.8c0.8,0.1,1.5,0.1,2.3,0.1c0.3,0,0.6-0.1,0.9-0.1
			c0.4-0.1,0.7,0,1,0.1c0.4,0.1,0.5,0.1,0.6-0.2c0-0.1,0.2-0.1,0.2-0.1c0.2,0.1,0.5,0.2,0.7,0.3c-0.1-0.2,0-0.3,0.2-0.3
			c0,0,0.1,0,0.1,0c0.3-0.2,0.5-0.3,0.8-0.1c0,0,0.1,0,0.2-0.1c0.5-0.4,1-0.5,1.6-0.5c0,0.2,0,0.5,0,0.7c0.1-0.1,0.3-0.2,0.4-0.4
			c-0.1,0-0.1-0.1-0.2-0.1c0-0.5,0.4-0.6,0.7-0.7c0.2-0.1,0.3-0.1,0.5-0.2c0.1,0,0.3,0.1,0.4,0.1c0,0.1,0,0.3,0,0.5c0,0,0.1,0,0.1,0
			c0-0.2,0-0.3,0-0.5c0.1,0,0.2,0,0.3,0c0,0,0,0,0-0.1c0.4-0.3,0.9-0.6,1.4-0.9c0.1,0,0.2,0.1,0.2,0.1c0.3-0.6,0.4-0.6,0.9-0.5
			c0-0.1,0.1-0.2,0.1-0.3c0.1-0.2,0.2-0.3,0.4-0.3c0.2,0,0.3-0.2,0.5-0.3c0.2,0.1,0.2,0.2,0.1,0.6c0.1,0,0.2,0.1,0.3,0.1
			c0.2,0,0.3,0,0.3-0.2c0-0.3,0-0.5,0.1-0.8c0-0.1,0.1-0.3,0.3-0.4C92,95.7,92.1,95.8,92.3,95.9z"/>
	</g>
	<g id="XMLID_614_">
		<path id="XMLID_615_" class="st0" d="M88.7,59.9c0.3-0.1,0.5-0.1,0.8-0.1c1.3-0.2,1.6,0.4,1.4,1.5c-0.2,0.9-0.8,1.5-1.5,2
			c-0.1,0-0.1,0.1-0.2,0.1c-0.1,0.1-0.2,0.3-0.2,0.3c0.1,0.1,0.3,0.3,0.4,0.3c0.2,0,0.4-0.1,0.6-0.2c0.2-0.1,0.3-0.3,0.5-0.4
			c0.1-0.1,0.3-0.1,0.4,0c0.1,0.1,0.1,0.3,0.1,0.4c-0.1,0.2-0.2,0.3-0.3,0.4c-0.4,0.4-0.8,0.9-1.3,1.2c-0.5,0.4-0.9,0.4-1.4,0
			c-0.2-0.2-0.4-0.3-0.6-0.5c-0.1,0.3-0.2,0.5-0.3,0.8c-0.2,0.5-0.6,0.7-1.1,0.4c-0.6-0.3-0.8-0.7-0.6-1.3c0.5-1.5,0.8-3,1-4.5
			c0.1-0.5,0.1-1,0.2-1.5c0-0.2,0-0.5-0.1-0.7c-0.1-0.2,0-0.4,0.1-0.5c0.5-0.5,1.1-0.9,1.8-1c0.4-0.1,0.7,0.2,0.7,0.6
			c0,0.5-0.1,1.1-0.2,1.6C88.8,59.2,88.8,59.5,88.7,59.9z M85.6,65.3c0,0,0.1,0,0.1,0c0.2-0.2,0.3-0.5,0.4-0.7
			c0.2-0.8,0.4-1.7,0.6-2.5c0.2-1,0.3-2,0.4-3c0-0.2,0-0.3-0.1-0.5c0,0,0,0-0.1,0c0,0.1,0,0.1,0,0.2c-0.1,0.6-0.1,1.1-0.2,1.7
			c-0.2,1.5-0.6,3-1.1,4.4C85.6,65,85.6,65.2,85.6,65.3z M89,61.6c0,0-0.1-0.2-0.2-0.2c-0.2,0-0.4,0.1-0.4,0.2
			c-0.1,0.2-0.2,0.5-0.2,0.7c0,0.2,0.1,0.3,0.3,0.2C88.7,62.4,89,62,89,61.6z M88.3,57.3C88.3,57.3,88.3,57.3,88.3,57.3
			c-0.1-0.1-0.2-0.1-0.3-0.1c-0.4,0.2-0.7,0.4-1.1,0.5c-0.1,0-0.1,0.1-0.1,0.1c0,0.1,0,0.1,0,0.2c0,0,0.1,0,0.2,0
			c0.2-0.1,0.4-0.3,0.7-0.4C87.9,57.6,88.1,57.4,88.3,57.3z M88.5,63.1c0.7-0.1,1.2-1,1-1.4C89.2,62.2,88.8,62.6,88.5,63.1z
			 M89.9,64.4C89.9,64.4,90,64.4,89.9,64.4c0.3-0.1,0.5-0.3,0.8-0.6c0,0,0-0.1-0.1-0.1C90.3,63.9,90.1,64.2,89.9,64.4z"/>
	</g>
	<g id="XMLID_607_">
		<path id="XMLID_608_" class="st0" d="M66.1,89.4c0.3-0.2,0.6-0.5,0.7-0.8c0.2-0.3,0.2-0.7,0.1-1.1c-0.1-0.3-0.4-0.5-0.7-0.4
			c-0.2,0.1-0.5,0.2-0.7,0.3c-0.7,0.6-1.3,1.2-1.6,2.1c0,0.1-0.1,0.1-0.2,0.2c-0.1-0.1-0.2-0.1-0.2-0.2c-0.3-0.6-0.5-1.2-0.1-1.8
			c0.6-0.9,1.3-1.7,2.2-2.2c0.6-0.4,1.3-0.5,1.9-0.1c0.7,0.5,0.9,1.2,0.8,2c-0.1,0.7-0.4,1.3-0.8,1.8c-0.3,0.3-0.6,0.7-0.9,1
			c0.6,0.2,1.2,0.7,1.8,1.2c0.9,0.7,1.9,1.1,3,1.1c0.4,0,0.8-0.2,1.2-0.2c-0.3,0.7-0.8,1.2-1.6,1.5C70,94.3,69,94,68.1,93.2
			c-0.6-0.5-1.1-1.2-1.7-1.8c-0.1-0.1-0.3-0.3-0.5-0.3c-0.2,0.1-0.4,0.2-0.4,0.5c-0.1,0.4-0.2,0.7-0.3,1.1c-0.1,0.4-0.4,0.5-0.9,0.3
			c-0.4-0.1-0.5-0.3-0.4-0.7c0.2-1,0.4-2.1,0.5-3.1c0-0.2,0.1-0.4,0.2-0.5c0.3-0.3,0.6-0.5,1-0.7c0.1-0.1,0.3-0.1,0.4,0
			c0.1,0.1,0.1,0.3,0.1,0.4c0,0.3-0.1,0.7-0.1,1C66,89.4,66.1,89.4,66.1,89.4z M63.5,88.6C63.5,88.6,63.5,88.6,63.5,88.6
			c0.6-1.4,1.7-2.3,3-2.9c-0.1,0-0.1,0-0.2,0c-1.3,0.5-2.1,1.4-2.8,2.5C63.5,88.3,63.5,88.5,63.5,88.6z M64.7,89.6
			c-0.2,1-0.4,2-0.6,2.9C64.5,92.3,64.9,90.1,64.7,89.6z M66.2,89.8c0.7,0,1.4-1.3,1.1-2C67.2,88.6,66.8,89.3,66.2,89.8z M65.9,88.4
			c-0.6,0-1.3,0.7-1.2,1C65.1,89,65.5,88.7,65.9,88.4z"/>
	</g>
	<g id="XMLID_605_">
		<path id="XMLID_606_" class="st0" d="M76.5,51.2c-0.6,0-1.1,0-1.7,0c0,0-0.1,0-0.1-0.1c-0.1-0.3-0.2-0.7-0.2-1
			c0-0.1,0.2-0.3,0.3-0.3c0.5-0.1,0.9-0.2,1.4-0.2c1.5,0,2.9,0.1,4.4,0.2c1.5,0.1,2.9,0.3,4.3,0.8c0.4,0.1,0.9,0.3,1.3,0.5
			c0,0,0.1,0.1,0.1,0.1c0.4-0.2,0.6-0.1,0.7,0.1c0.1,0.2,0.1,0.4,0.1,0.5c0,0.1-0.3,0.2-0.4,0.3c0.3,0,0.5,0,0.6-0.3
			c0.1-0.3,0.4-0.4,0.7-0.3c0.2,0.1,0.6,0.1,0.7,0.3c0.1,0.2,0,0.5,0,0.8c0,0.1,0,0.2,0,0.3c0.1-0.1,0.1-0.2,0.2-0.4
			c0.1-0.1,0.1-0.3,0.2-0.4c0.6,0.2,1.2,0.5,1.8,0.8c0.3,0.2,0.7,0.4,1,0.6c0.1,0.1,0.1,0.2,0.2,0.2c0.1,0.2,0.2,0.3,0.3,0.5
			c0,0.1,0,0.1,0,0.2c0,0.1-0.1,0.3-0.1,0.4c0.1,0.1,0.2,0.2,0.3,0.2c0,0,0,0,0,0c-0.4,0.6-0.5,0.6-1.1,0.2
			c-0.9-0.6-1.8-1.1-2.6-1.6c-0.1,0-0.1-0.2-0.1-0.3c0-0.1,0.1-0.2,0.1-0.3c-0.1,0-0.2-0.1-0.3-0.2c0,0.2,0.1,0.3,0.1,0.4
			c-0.6,0-1-0.2-1.2-0.8c-0.4,0.2-0.7,0.1-1.1,0c-0.4-0.2-0.8-0.3-1.2-0.4c-0.4-0.2-0.4-0.2-0.3-0.6c-0.3-0.1-0.5-0.1-0.8-0.2
			c-0.1,0-0.2,0-0.2,0c-0.7,0.3-1.3,0.1-2,0c-1.4-0.2-2.9-0.5-4.3-0.5c-0.4,0-0.8-0.1-1.2-0.2C76.4,51,76.4,51.1,76.5,51.2z"/>
	</g>
	<g id="XMLID_601_">
		<path id="XMLID_602_" class="st0" d="M58.6,93C58.6,93,58.6,93,58.6,93c-0.7,0-1.1-0.6-1.4-1.1c-0.1-0.2-0.3-0.4-0.4-0.6
			c-0.1-0.1-0.1-0.3,0.1-0.3c0.3-0.1,0.3-0.3,0.2-0.6c-0.3,0.1-0.5,0.3-0.8,0.4c-0.9-1.2-1.7-2.3-2.2-3.7c-0.1-0.3,0.1-0.8,0.4-0.9
			c0.1,0,0.2,0,0.2,0.1c0.5,0.3,1,0.6,1.4,1c0.2,0.2,0.3,0.4,0.5,0.7c-0.1,0.1-0.1,0.2-0.2,0.3c0.2,0.1,0.4,0.2,0.6,0.4
			c0.1,0.1,0.2,0.3,0.1,0.5c0,0.2-0.2,0.3-0.4,0.2c0,0-0.1,0-0.2,0c0,0,0,0.1,0,0.1c0.1,0.1,0.2,0.1,0.3,0.2
			c0.1,0.1,0.2,0.1,0.2,0.3c0,0.1,0.1,0.2,0.2,0.4c0.1-0.1,0.3-0.2,0.4-0.3c0.2-0.1,0.2-0.1,0.4,0.1c0.2,0.3,0.5,0.6,0.7,0.9
			c0,0,0,0,0.1-0.1c-0.3-0.4-0.5-0.8-0.8-1.1c-0.3-0.3-0.5-0.6-0.4-1c-0.4-0.5-0.8-0.9-1.1-1.3c0,0,0,0,0-0.1
			c0.4,0.2,0.8,0.5,1.2,0.7c0,0,0.1,0,0.1,0.1c0,0.3,0.3,0.3,0.4,0.5c0.5,0.5,0.8,1.1,1.2,1.6c-0.1,0.4,0.2,0.6,0.5,0.7
			c0.5,0.3,0.9,0.7,1.1,1.2c0,0.1,0.1,0.2,0.1,0.3c-0.4-0.1-0.7-0.2-1.1-0.3c0.1,0.1,0.2,0.2,0.2,0.3c0.9,1.2,2.1,2.1,3.3,2.9
			c0.4,0.3,0.6,0.6,0.6,1.1c0,0.2,0.1,0.3,0.3,0.4c0.4,0.1,0.7,0.5,0.6,1c-0.4,0.1-0.8,0-1.1-0.2c-0.7-0.5-1.3-0.9-2-1.4
			c-0.5-0.4-1-0.8-1.6-1.2c-0.3-0.2-0.6-0.4-0.5-0.9c-0.4,0.1-0.7-0.1-0.9-0.3c-0.1-0.1-0.3-0.3-0.4-0.4c-0.3-0.2-0.3-0.4-0.2-0.6
			C58.6,93.1,58.6,93.1,58.6,93z M59.6,92c-0.1-0.6-0.2-0.6-0.5-0.6C59.2,91.6,59.4,91.7,59.6,92z"/>
	</g>
	<g id="XMLID_594_">
		<path id="XMLID_595_" class="st0" d="M63.4,76.8c0.4-0.2,0.8-0.3,1.2-0.4c0.6-0.2,1,0.2,0.8,0.8c-0.2,0.8-0.5,1.6-0.6,2.4
			c-0.1,0.4-0.1,0.9-0.1,1.3c0,0.4,0.3,0.5,0.6,0.3c0.1-0.1,0.2-0.2,0.4-0.3c0.2-0.1,0.3-0.1,0.3,0.1c0,0.1,0,0.3-0.1,0.4
			c-0.4,0.7-0.9,1.2-1.7,1.6c-0.4,0.2-0.8,0.1-1-0.3c0-0.1-0.1-0.1-0.1-0.2c-0.1-0.2-0.2-0.2-0.4,0c-0.2,0.2-0.3,0.3-0.5,0.5
			c-0.6,0.5-1.3,0.4-1.8-0.3c-0.7-0.9-0.8-1.9-0.6-3c0.2-1.2,0.8-2.1,1.8-2.8c0.3-0.2,0.6-0.3,1-0.4C62.9,76.4,63.2,76.5,63.4,76.8z
			 M63.2,79.5c-0.1-0.3-0.2-0.6-0.4-0.6c-0.3-0.1-0.5,0.1-0.6,0.3c-0.3,0.5-0.4,1-0.3,1.5c0.1,0.2,0.2,0.3,0.3,0.4
			c0.2,0.1,0.4,0.1,0.5-0.1C62.9,80.5,63,80,63.2,79.5z M62.5,77c0,0,0-0.1-0.1-0.1c-0.2,0.1-0.4,0.1-0.6,0.2
			c-0.6,0.3-0.9,0.7-1.3,1.3c-0.4,0.6-0.6,1.4-0.6,2.1c0,0.1,0.1,0.3,0.1,0.4c0,0,0.1,0,0.1,0C60.2,79.2,60.9,77.8,62.5,77z
			 M63.5,79.4c-0.2,0.8-0.5,1.5-0.7,2.3C63.3,81.5,63.8,80,63.5,79.4z M63.6,77.4c0.4-0.1,0.8-0.2,1.1-0.5
			C64.2,76.8,63.7,77,63.6,77.4z"/>
	</g>
	<g id="XMLID_592_">
		<path id="XMLID_593_" class="st0" d="M61,57.9c-0.3,0.2-0.5,0.4-0.8,0.7c-0.2,0.2-0.4,0.3-0.7,0.1c-0.1,0.5-0.1,0.5-0.6,0.5
			c-0.1-0.3-0.1-0.6-0.2-0.8c-0.1-0.4,0.1-0.8,0.3-1.1c0.1-0.2,0.3-0.1,0.5,0c0.3-0.4,0.4-0.9,1-0.9c-0.1-0.7,0.4-1,1.1-0.9
			c0,0,0,0,0,0c0.1-0.6,0.5-1,1.1-1.2c0.2-0.1,0.4-0.2,0.5-0.4c0.9-0.7,1.8-1.3,2.8-1.7c0,0,0.1,0,0.1,0c0.4,0,0.7-0.2,1.1-0.5
			c0.3-0.2,0.8-0.3,1.2-0.4c0.8-0.3,1.6-0.6,2.5-0.8c0.5-0.1,1-0.2,1.5-0.3c0.1,0.5,0.2,1,0.2,1.5c-0.8,0.1-1.5,0.2-2.3-0.1
			c-0.2-0.1-0.4-0.1-0.7-0.2c-0.2,0-0.3,0.1-0.3,0.3c0.1,0.3-0.1,0.6-0.2,0.9c0,0-0.1,0.1-0.2,0.1c-0.3,0-0.5-0.1-0.9-0.2
			c0.2,0.2,0.3,0.3,0.5,0.4c-1.3,0.4-2.4,1-3.4,1.7c-1,0.7-2,1.4-3,2.1c-0.3,0.2-0.5,0.4-0.8,0.3C61.2,57.4,61.1,57.7,61,57.9
			L61,57.9z"/>
	</g>
	<g id="XMLID_588_">
		<path id="XMLID_589_" class="st0" d="M93.9,57.2c0,0,0-0.1,0-0.2c-0.8-0.3-0.8-0.3-0.9-1c-0.5,0.1-0.6,0-0.5-0.5
			c0.2,0.1,0.3,0.3,0.5,0.4c0.1-0.3,0.2-0.6,0.3-0.9c0.4,0.2,0.2,0.6,0.4,0.8c0,0,0.1,0,0.1,0c0.5-0.3,0.9-0.2,1.2,0.3
			c0.1,0.1,0.2,0.2,0.3,0.3c0.1,0.1,0.2,0.3,0.2,0.5c0,0.1,0.1,0.3,0.2,0.4c0.2,0.2,0.4,0.4,0.4,0.7c0.7,0,1.2,0.4,1.6,0.9
			c0.6,0.8,1.1,1.6,1.7,2.4c-0.1,0.1-0.2,0.2-0.4,0.3c0.4,0,0.6,0.1,0.8,0.3c0.1,0.2,0.3,0.3,0.4,0.5c0.6,1.1,1.3,2.2,1.6,3.5
			c0.1,0.4,0.2,0.8-0.1,1.1c-0.3-0.2-0.7-0.4-1.2-0.3c0,0-0.1-0.1-0.1-0.1c-0.7-2-1.9-3.8-3.1-5.6c-0.2-0.3-0.3-0.6-0.4-0.9
			c0-0.1-0.1-0.1-0.2-0.2c-0.2-0.1-0.3-0.2-0.5-0.3c-0.5-0.6-1-1.2-1.6-1.7C94.5,57.8,94.2,57.5,93.9,57.2z M93.9,56.4
			c0.1,0.1,0.1,0.2,0.1,0.2c0,0.1,0.1,0.1,0.1,0.2c0.2-0.3,0.2-0.3,0.5-0.3C94.4,56.2,94.1,56.4,93.9,56.4z"/>
	</g>
	<g id="XMLID_580_">
		<path id="XMLID_581_" class="st0" d="M89.3,87.4c0,0.1,0,0.3-0.1,0.4c-0.3,0.5-0.7,0.9-1.2,1.2c-0.4,0.2-0.6,0.2-0.9-0.2
			c-0.1-0.1-0.1-0.2-0.3-0.3c-0.1,0.1-0.2,0.3-0.3,0.4c-0.5,0.5-1.1,0.5-1.6-0.1c-0.5-0.7-0.5-1.4-0.4-2.2c0.2-0.8,0.6-1.5,1.3-2
			c0.1-0.1,0.3-0.2,0.4-0.2c0.5-0.2,0.8-0.2,1.2,0.3c0.2-0.4,0.4-0.8,0.3-1.3c0-0.1-0.2-0.2-0.3-0.3c0,0,0.1-0.1,0.1-0.1
			c0.4-0.4,0.8-0.6,1.3-0.7c0.5-0.1,0.7,0.2,0.6,0.6c-0.3,1-0.6,1.9-0.9,2.9c-0.1,0.5-0.2,1-0.3,1.5c0,0.1,0,0.1,0,0.2
			c0.1,0.2,0.1,0.4,0.2,0.5c0.1,0.1,0.3-0.1,0.4-0.2C89.1,87.4,89.2,87.4,89.3,87.4C89.3,87.3,89.3,87.3,89.3,87.4z M86.2,86.9
			C86.3,86.9,86.3,87,86.2,86.9c0.1,0.3,0.1,0.5,0.3,0.7c0.2,0.1,0.3,0.1,0.4-0.1c0.1-0.4,0.2-0.8,0.3-1.2c0-0.1-0.1-0.3-0.2-0.3
			c-0.1,0-0.3,0-0.4,0.1C86.5,86.4,86.4,86.7,86.2,86.9z M85,87.5c0-1.3,0.6-2.3,1.7-3c-0.8,0.2-1.3,0.7-1.6,1.4
			C84.8,86.7,84.8,87.2,85,87.5z M87.6,86.3c-0.2,0.6-0.4,1.1-0.6,1.7C87.4,87.8,87.7,87,87.6,86.3z M87.7,84.9
			c0.4-0.2,0.7-1.2,0.5-1.6C88.1,83.8,87.9,84.3,87.7,84.9z M87.9,82.8c0.3,0.2,1-0.1,1.2-0.4C88.7,82.4,88.3,82.6,87.9,82.8z"/>
	</g>
	<g id="XMLID_576_">
		<path id="XMLID_577_" class="st0" d="M70.8,67.3c0.1-0.4,0.3-0.9,0.4-1.4c0.4-1.6,0.9-3.2,1.3-4.8c0.1-0.2,0-0.5,0-0.7
			c0-0.1,0-0.3,0.1-0.3c0.4-0.5,1-0.9,1.6-1.1c0.5-0.2,0.8,0.1,0.7,0.6c-0.2,1-0.4,1.9-0.7,2.9c-0.4,1.4-0.8,2.9-1.2,4.3
			c0,0.1,0,0.3,0,0.3c0.1,0.1,0.2,0,0.3,0c0.1,0,0.2-0.1,0.4-0.1c0,0.1,0,0.3-0.1,0.4c-0.4,0.6-0.8,1-1.4,1.2c-0.6,0.2-1,0-1.3-0.6
			C70.9,67.8,70.9,67.6,70.8,67.3z M71.2,67.4c0,0,0.1,0,0.1,0c0-0.1,0.1-0.2,0.1-0.2c0.4-1.3,0.8-2.5,1.1-3.8
			c0.3-0.9,0.5-1.8,0.5-2.7c0-0.3,0.1-0.5,0.3-0.6c0.2-0.2,0.5-0.3,0.7-0.5c0.1-0.1,0.2-0.1,0.3-0.2c-0.4-0.1-1.3,0.4-1.5,0.7
			c0,0.1,0,0.2,0,0.3c0,0.1,0.1,0.3,0,0.4c-0.1,0.3-0.1,0.7-0.2,1c-0.4,1.5-0.9,3-1.3,4.5C71.3,66.7,71.3,67.1,71.2,67.4z"/>
	</g>
	<g id="XMLID_572_">
		<path id="XMLID_573_" class="st0" d="M89.1,91.1c0,0.1,0.1,0.1,0.1,0.2c-0.1,0.2-0.1,0.2-0.5,0.2c0.2,0.1,0.5,0.2,0.4,0.5
			c-0.3,0-0.5,0.1-0.8,0.1c0,0,0,0,0,0.1c0.2,0,0.4,0,0.6,0c-0.1,0.2-0.1,0.4-0.4,0.5c-0.1,0-0.3,0.2-0.4,0.2
			c-0.4,0.2-0.9,0.5-1.3,0.7c-0.2,0.1-0.3,0-0.4-0.1c-0.1-0.1-0.1-0.2-0.2-0.4c0,0.2,0,0.4,0,0.6c0,0.1,0,0.2-0.2,0.3
			c-0.1,0-0.2,0.1-0.4,0.1c-0.3,0.1-0.4,0.1-0.6-0.2c-0.1-0.1-0.2-0.2-0.3-0.3c0,0,0,0.1-0.1,0.1c0.1,0.1,0.2,0.1,0.3,0.2
			c0,0.1,0,0.2-0.1,0.4c0,0.2-0.2,0.3-0.4,0.2c-0.1,0-0.2,0-0.3,0c-0.8,0.4-1.6,0.6-2.4,0.7c-1.7,0.3-3.5,0.4-5.2,0.4
			c-0.3,0-0.6-0.1-0.9-0.1c-0.3-0.1-0.4-0.2-0.3-0.5c0.1-0.6,0.2-0.7,0.8-0.7c0.2,0,0.4,0,0.7,0.1c0,0.1,0,0.1,0,0.2
			c2.2-0.2,4.4-0.3,6.6-0.5c-0.1-0.4,0.2-0.6,0.4-0.7c0.7-0.3,1.5-0.5,2.3-0.5c0.1,0,0.2,0,0.3,0c-0.1-0.4,0-0.5,0.3-0.7
			c0.6-0.4,1.2-0.7,1.8-1.1C88.8,90.9,88.8,90.9,89.1,91.1L89.1,91.1z M75.8,95.2C75.9,95.2,75.9,95.2,75.8,95.2
			c0.3,0,0.5-0.2,0.8-0.3c0,0,0-0.1-0.1-0.1C76.3,94.9,76.1,95.1,75.8,95.2z"/>
	</g>
	<g id="XMLID_570_">
		<path id="XMLID_571_" class="st0" d="M55.1,65.3c0,0.3,0,0.5-0.1,0.8c0,0.3-0.1,0.5-0.1,0.7c0,0.3-0.3,0.5-0.3,0.7
			c-0.1,0.4-0.2,0.8-0.3,1.3c-0.3,1.2-0.6,2.4-0.9,3.6c0,0.1,0,0.2,0,0.3c0,0.4,0,0.9,0,1.3c-0.5,0-1,0-1.5,0c0-0.2,0.1-0.5,0.1-0.8
			c0.3,0.1,0.5,0.2,0.8,0.3c0,0,0,0,0,0c-0.3-0.1-0.5-0.2-0.8-0.4c-0.1,0-0.1-0.1-0.1-0.2c0.2-2.3,0.8-4.6,1.6-6.8
			c0.3-0.8,0.3-0.8,1.3-0.9C54.8,65.3,54.9,65.3,55.1,65.3z"/>
	</g>
	<g id="XMLID_568_">
		<path id="XMLID_569_" class="st0" d="M96.6,93.4c0-0.2-0.2-0.3-0.1-0.5c0,0-0.1-0.2-0.2-0.4c0.1,0,0.1-0.1,0.2-0.1c0,0,0,0-0.1,0
			c0.3-0.5,0.5-1.2,1.1-1.5c0-0.1,0-0.3,0.1-0.5c0.1-0.1,0.3-0.2,0.5-0.3c0,0,0-0.1,0-0.2c0-0.2,0.1-0.4,0.3-0.6
			c0.1-0.1,0.2-0.3,0.3-0.5c0.3,0.1,0.4,0.1,0.3,0.5c0.1,0,0.2,0,0.2,0c0.3,0,0.3-0.1,0.2-0.4c-0.1-0.2-0.2-0.4-0.2-0.6
			c-0.1-0.4,0-0.7,0.5-0.6c0-0.1-0.1-0.3-0.1-0.4c0-0.1,0-0.3,0-0.4c0.4-0.2,0.7-0.1,0.9,0.3c0.3,0.4,0.4,0.8,0.3,1.3
			c0,0.1-0.1,0.2-0.1,0.2c-0.3,0.1-0.3,0.4-0.4,0.6c-0.3,0.7-0.7,1.4-1.3,1.9c-0.2,0.2-0.4,0.2-0.7,0.3c0.1,0.1,0.2,0.2,0.4,0.3
			c-0.2,0.1-0.3,0.1-0.5,0.2c0,0.1,0,0.3,0,0.4c-0.4,0.2-0.8,0.1-1-0.4c0,0.4-0.2,0.5-0.5,0.4c0,0,0,0,0,0.1
			c0.2,0.1,0.4,0.3,0.6,0.5c-0.2,0.4-0.3,0.7-0.5,1.1c0,0-0.1,0-0.1,0c-0.1-0.1-0.1-0.2-0.2-0.3c-0.1,0-0.3,0.1-0.4,0.1
			c-0.1,0.1-0.2,0.2-0.2,0.3c-0.1,0.5-0.5,0.8-0.9,1c-0.2,0.1-0.3,0.2-0.5,0.4c-0.1,0.1-0.3,0.2-0.4,0.2c-0.1-0.3-0.2-0.6-0.3-0.9
			c0.5,0.3,0.7-0.2,1.1-0.4c-0.2-0.1-0.4-0.1-0.5-0.2c-0.3-0.1-0.3-0.3-0.2-0.5c0.1-0.2,0.3-0.3,0.4-0.5c0,0,0.1-0.1,0.2,0
			C95.7,93.2,96.1,93.3,96.6,93.4z"/>
	</g>
	<g id="XMLID_560_">
		<path id="XMLID_561_" class="st0" d="M79.6,89.2c0.2-0.1,0.3-0.2,0.4-0.3c0.1-0.1,0.2-0.1,0.3-0.1c0,0.1,0.1,0.2,0,0.3
			c-0.1,0.5-0.5,0.7-1,0.9c-0.3,0.1-0.5,0.2-0.7,0.4c-0.6,0.5-1.2,0.4-1.6-0.3c-0.4-0.6-0.4-1.4-0.3-2.1c0.2-0.7,0.4-1.5,0.9-2
			c0.4-0.4,0.8-0.7,1.4-0.6c0.5,0.1,0.8,0.5,0.9,1c0.3,0.9,0.1,1.8-0.4,2.6c0,0.1-0.1,0.1-0.1,0.2C79.5,89.1,79.5,89.1,79.6,89.2z
			 M78.7,85.8c-0.4,0-0.7,0.1-0.9,0.4c-0.6,0.7-0.9,1.6-0.9,2.6c0,0.1,0.1,0.2,0.1,0.4C77.3,87,77.4,86.7,78.7,85.8z M79,88.3
			c0-0.2-0.1-0.4-0.1-0.5c0-0.1-0.2-0.2-0.2-0.1c-0.1,0-0.2,0.1-0.2,0.2c0,0.1,0,0.3,0.1,0.5c0.1,0.1,0.2,0.3,0.2,0.4
			C78.9,88.6,78.9,88.4,79,88.3z M78.1,89.7c-0.2-0.3-0.3-0.6-0.5-0.9c-0.2,0.4-0.2,0.8,0,0.9C77.8,89.8,78,89.8,78.1,89.7z
			 M78.9,89.1c0.4-0.2,0.5-0.6,0.4-1C79.2,88.5,79,88.8,78.9,89.1z M78,90.1c0.4-0.1,0.5-0.2,0.5-0.5C78.3,89.8,78.2,89.9,78,90.1z"
			/>
	</g>
	<g id="XMLID_558_">
		<path id="XMLID_559_" class="st0" d="M84.6,57.7c0.1-0.1,0.2-0.1,0.3-0.2c0.3-0.4,0.4-0.4,0.8-0.2c-0.1,0.4-0.2,0.7-0.3,1.1
			c-0.6-0.1-1.3-0.2-1.9-0.6c-0.1-0.1-0.2-0.3-0.2-0.4c0,0,0,0,0-0.1c-1.1-0.1-2.2-0.2-3.3-0.3c-1.1-0.1-2.2-0.1-3.3-0.2
			c0,0,0,0.1,0,0.2c-0.4,0-0.8,0-1.2,0c0,0-0.1-0.1-0.1-0.1c0,0,0-0.1-0.1-0.1c-0.3-0.7-0.2-1,0.6-1c1,0,2,0,2.9,0
			c1,0.1,2,0.2,3,0.4c0.8,0.1,1.6,0.3,2.3,0.7c0,0,0.1,0,0.1,0c0.2-0.1,0.4,0,0.5,0.1c0.1,0.2,0.1,0.4-0.2,0.5
			C84.6,57.6,84.6,57.6,84.6,57.7C84.6,57.7,84.6,57.7,84.6,57.7z"/>
	</g>
	<g id="XMLID_556_">
		<path id="XMLID_557_" class="st0" d="M61,58c0.4-0.2,0.8-0.5,1.1-0.8c0.7-0.6,1.4-1.2,2.2-1.7c1.3-0.8,2.6-1.6,4-2.2
			c0.4-0.2,0.7-0.3,1.2-0.2c0.1,0,0.2-0.1,0.3-0.1c0.6-0.2,1.2-0.5,1.7-0.7c0.2-0.1,0.5,0,0.8,0c0-0.1,0-0.2,0-0.3
			c0.4,0,0.8-0.1,1.2-0.1c0.2,0,0.3,0.1,0.5,0.2c0.2,0.2,0.1,0.4-0.1,0.5c-0.5,0.1-1,0.3-1.6,0.1c-0.1,0.4-0.4,0.3-0.7,0.4
			c-0.7,0.2-1.3,0.3-2,0.5c-0.1,0-0.1,0-0.1,0.1c-0.7,0.6-1.5,0.7-2.2,1.2c-1.1,0.6-2.1,1.3-3.2,1.9c-0.9,0.5-1.6,1.2-2.3,1.9
			c-0.2,0.2-0.4,0.4-0.7,0.4c-0.3,0-0.4-0.1-0.3-0.4C60.8,58.3,60.9,58.1,61,58L61,58z"/>
	</g>
	<g id="XMLID_551_">
		<path id="XMLID_552_" class="st0" d="M74.5,88.3c-0.3,0.5-0.6,0.9-0.6,1.5c0,0.4,0.3,0.6,0.7,0.5c0.3-0.1,0.5-0.3,0.8-0.4
			c0.2-0.1,0.3-0.3,0.5-0.4c0.2-0.1,0.3,0,0.3,0.2c0,0.1-0.1,0.3-0.2,0.4c-0.4,0.5-0.8,0.9-1.4,1.2c-0.6,0.3-1.2,0.1-1.6-0.4
			c-0.4-0.6-0.5-1.3-0.3-2c0.2-1,0.6-1.8,1.4-2.4c0.3-0.2,0.6-0.3,0.9-0.4c0.5-0.1,0.9,0.1,1.1,0.6c0.2,0.6,0.1,1.1-0.2,1.7
			c-0.2,0.4-0.5,0.6-0.9,0.7c-0.4,0.1-0.6-0.1-0.5-0.5c0-0.1,0-0.2,0-0.3C74.5,88.3,74.5,88.3,74.5,88.3z M75,86.5
			c-1.1,0.3-1.6,1.1-1.9,2.1c-0.2,0.7-0.2,1,0,1.2C73.1,88.3,73.7,87.2,75,86.5z M75.9,89.8c-0.4,0.3-0.7,0.6-1.1,0.8
			c0,0,0,0,0.1,0.1C75.3,90.5,75.6,90.2,75.9,89.8z"/>
	</g>
	<g id="XMLID_543_">
		<path id="XMLID_544_" class="st0" d="M90.7,86.2c0.1-0.1,0.1-0.1,0.2-0.2c0.3-0.5,0.6-1.1,0.9-1.6c0.1-0.1,0-0.3,0-0.4
			c-0.1-0.4-0.1-0.8,0.3-1.1c0.1-0.1,0.4-0.2,0.5-0.2c0.1,0,0.2,0.3,0.2,0.4c0,0,0,0.1,0,0.1c-0.2,0.6,0,1.1,0.3,1.7
			c0.3,0.8,0.3,1.6,0.1,2.4c-0.3,0.9-1,1.3-1.9,1.3c-0.7,0-1.4-0.6-1.6-1.4c-0.1-0.6-0.1-1.2,0.3-1.7c0.1-0.2,0.3-0.3,0.5-0.5
			c0.1-0.1,0.2-0.1,0.3,0c0.1,0,0.1,0.2,0.1,0.3c0,0.2-0.1,0.4-0.1,0.6C90.6,86,90.6,86.1,90.7,86.2C90.7,86.2,90.7,86.2,90.7,86.2z
			 M92.1,85.2C92.1,85.2,92,85.2,92.1,85.2c-0.3,0.6-0.6,1.1-0.8,1.5c-0.1,0.2,0.1,0.3,0.2,0.2c0.1,0,0.3-0.1,0.4-0.2
			c0.4-0.4,0.4-0.9,0.4-1.4C92.2,85.3,92.1,85.3,92.1,85.2z M92.2,84.2c-0.4,0.8-0.9,1.6-1.3,2.5C91.4,86.3,92.3,84.6,92.2,84.2z
			 M91.6,87.3c0.7,0,1.3-1.2,0.9-2C92.4,86.1,92.4,86.9,91.6,87.3z M89.8,86.9c0.2-0.5,0.4-1,0.6-1.5C90,85.4,89.6,86.4,89.8,86.9z
			 M92,83.7c0.1-0.2,0.2-0.4,0.4-0.6C92.1,83.1,91.9,83.4,92,83.7z"/>
	</g>
	<g id="XMLID_537_">
		<path id="XMLID_538_" class="st0" d="M71.8,90.3c0.1-0.1,0.2-0.3,0.4-0.2c0.2,0.1,0.1,0.3,0,0.5c-0.4,0.5-0.8,0.9-1.5,1.1
			c-0.7,0.2-1.2,0-1.5-0.6c-0.4-1-0.3-2,0.3-3c0.4-0.7,1-1.3,1.9-1.5c0.7-0.2,1.1,0.1,1.2,0.8c0.1,1-0.7,2.3-1.7,2.6
			c-0.3,0.1-0.4,0.2-0.3,0.4c0.1,0.3,0.3,0.4,0.5,0.3C71.3,90.7,71.6,90.5,71.8,90.3c-0.2,0.2-0.3,0.4-0.5,0.7c0,0,0.1,0,0.1,0.1
			c0.2-0.2,0.5-0.4,0.7-0.7c0,0,0-0.1-0.1-0.1C72,90.3,71.9,90.3,71.8,90.3z M71.5,87c-1.2-0.1-2.6,2-2.2,3.3
			C69.5,88.8,70.1,87.6,71.5,87z M71.7,88.8c0-0.2-0.1-0.3-0.3-0.2c-0.4,0.1-0.6,0.5-0.8,0.8c0,0,0.1,0.2,0.1,0.2
			C71,89.6,71.6,89,71.7,88.8z M71,89.7c0.4-0.1,0.7-0.4,0.9-0.9C71.6,89.2,71.3,89.4,71,89.7z"/>
	</g>
	<g id="XMLID_535_">
		<path id="XMLID_536_" class="st0" d="M94.4,64.7c-0.1,0.1-0.2,0.2-0.2,0.2c0.5,0.1,0.7,0.4,0.9,0.7c0.6,0.9,1.1,1.9,1.3,3
			c0,0.1,0,0.1,0,0.2c0,0.1-0.1,0.1-0.1,0.2c0,0.5-0.4,0.6-0.7,0.8c-0.2-0.6-0.4-1.2-0.7-1.7c-0.5-1.3-1.3-2.4-2.1-3.6
			c-0.1-0.2-0.2-0.4-0.3-0.7c0-0.1-0.1-0.1-0.1-0.2c-0.2-0.2-0.4-0.4-0.6-0.6c-0.2-0.2-0.3-0.3-0.5-0.5c0.1-0.3,0.3-0.6,0.5-1
			c0.1,0.2,0.1,0.3,0.2,0.4c0.4,0,0.8,0.2,1,0.5C93.4,63.3,93.9,64,94.4,64.7z"/>
	</g>
	<g id="XMLID_533_">
		<path id="XMLID_534_" class="st0" d="M55.7,65.1c-0.5-0.1-1.1-0.1-1.6-0.2c0-0.6,0.2-1,0.7-1.1c-0.1-0.3,0.1-0.5,0.2-0.8
			c0.2-0.3,0.3-0.6,0.5-0.9c0.2-0.4,0.5-0.6,0.9-0.8c0.2-0.1,0.3-0.2,0.3-0.4c-0.1-0.4,0.1-0.7,0.3-1c0.4-0.5,0.8-1,1.2-1.5
			c0.1,0.1,0.2,0.2,0.2,0.4c0.1,0.3,0.1,0.6,0.2,0.9c0.2,0.5-0.1,1-0.4,1.4c-0.1-0.1-0.2-0.3-0.4-0.4c-0.1,0.4-0.3,0.8-0.4,1.1
			c-0.2,0.5-0.5,1-0.8,1.5c-0.2,0.5-0.5,0.9-0.7,1.4c-0.1,0-0.1-0.1-0.2-0.1C55.7,64.6,55.7,64.9,55.7,65.1L55.7,65.1z"/>
	</g>
	<g id="XMLID_529_">
		<path id="XMLID_530_" class="st0" d="M89.6,90.8c-0.1-0.6,0.2-0.8,0.7-0.8c-0.1-0.1-0.1-0.1-0.1-0.2c0.2-0.2,0.4-0.4,0.7-0.6
			c0,0,0.1-0.1,0.2-0.1c1.7,0,2.7-1,2.7-2.7c0-0.1,0-0.2,0-0.2c-0.1-0.4,0.1-0.8,0.3-1.1c0.7-1.1,1.2-2.2,1.6-3.4
			c0-0.1,0-0.1,0.1-0.2c0.5,0.2,0.7,0.5,0.8,1.1c-0.2,0-0.4,0.1-0.6,0.1c0,0,0,0,0,0c0.2,0,0.4,0,0.6,0c-0.1,0.4-0.2,0.8-0.4,1.1
			c-0.3,0.7-0.7,1.3-1,2c-0.2,0.3-0.4,0.6-0.8,0.7c0.1,0.1,0.1,0.1,0.3,0.2c-0.5,0.7-1,1.5-1.6,2.1c-0.2,0.2-0.6,0.3-0.9,0.5
			c-0.1,0.1-0.2,0.3-0.4,0.4c-0.1,0.1-0.1,0.1-0.1,0.2c0,0.3-0.2,0.5-0.4,0.7c-0.3,0.3-0.6,0.5-1,0.2c-0.1,0.2-0.2,0.4-0.2,0.6
			c0,0-0.1,0-0.1,0C89.7,91.3,89.6,91.1,89.6,90.8C89.6,90.8,89.6,90.8,89.6,90.8z M90.3,90.3c0,0.1-0.1,0.2-0.1,0.3
			c0.2-0.1,0.4,0.2,0.5,0C90.5,90.4,90.4,90.3,90.3,90.3z"/>
	</g>
	<g id="XMLID_527_">
		<path id="XMLID_528_" class="st0" d="M55.7,65.1c0.2,0,0.3,0,0.5,0c0-0.8,0.4-1.5,1-2.1c0.2-0.2,0.3-0.4,0.3-0.7
			c0.1-0.3,0.3-0.5,0.7-0.5c0.1,0,0.2,0.1,0.2,0.1c0,0.2,0,0.5-0.1,0.7c-0.4,0.8-0.9,1.5-1.3,2.3c-0.2,0.3-0.4,0.5-0.6,0.8
			c0,0.1,0,0.3,0,0.4c-0.2,0.4-0.4,0.7-0.5,1.1c0,0.1-0.1,0.1-0.1,0.2c-0.3,1-0.6,2-0.8,2.9c-0.2,0.8-0.3,1.6-0.4,2.5
			c-0.1,0.3-0.1,0.7-0.2,1c-0.2,0-0.3,0-0.5,0c-0.2-0.5-0.3-1-0.1-1.5c0.5-2.2,1-4.5,2-6.6C55.7,65.5,55.7,65.3,55.7,65.1
			C55.7,65.1,55.7,65.1,55.7,65.1z"/>
	</g>
	<g id="XMLID_519_">
		<path id="XMLID_520_" class="st0" d="M82.2,85.4C82.2,85.4,82.2,85.4,82.2,85.4c0,0.5,0.1,0.6,0.5,0.5c0.3-0.1,0.6-0.2,0.8-0.4
			c0.2-0.1,0.3-0.1,0.3,0.1c0.1,0.3,0.2,0.6,0.3,1c0,0.1,0,0.3-0.1,0.4c-0.2,0.5-0.4,1-0.6,1.5c0,0.1,0,0.3,0.1,0.4
			c0.1,0,0.3-0.1,0.4-0.1c0.2-0.1,0.3-0.2,0.4-0.3c0.1,0,0.2,0,0.3,0c0,0.1,0.1,0.2,0,0.3c-0.3,0.5-0.6,1-1.2,1.2
			c-0.6,0.2-1-0.1-1.2-0.6c-0.1-0.6,0-1.2,0.2-1.7c0-0.1,0-0.3,0-0.3c-0.1-0.1-0.5-0.1-0.6,0.1c-0.2,0.3-0.4,0.7-0.6,1
			c-0.1,0.2-0.2,0.4-0.4,0.3c-0.2-0.1-0.2-0.3-0.1-0.5c0.1-0.3,0.2-0.6,0.4-0.9c0.1-0.2,0.1-0.5,0-0.7c-0.2-0.4-0.2-0.8,0-1.2
			c0.2-0.4,0.4-0.5,0.7-0.5C82.1,84.7,82.2,85,82.2,85.4z M82.5,88.8C82.5,88.8,82.6,88.8,82.5,88.8c0.2-0.5,0.3-1.1,0.4-1.7
			c0,0-0.1,0-0.1,0C82.5,87.7,82.5,88.2,82.5,88.8z M81.6,86.8c0,0-0.1,0-0.1,0c-0.2,0.5-0.4,0.9-0.6,1.4c0,0,0.1,0,0.1,0
			C81.4,87.7,81.5,87.3,81.6,86.8z M81.3,86c0.1-0.3,0.3-0.7,0.4-1C81.3,85.1,81.1,85.6,81.3,86z M83,86.2c0.4,0,0.6-0.1,0.7-0.4
			C83.4,86,83.2,86.1,83,86.2z M84,89C84,89.1,84,89.1,84,89c0.2-0.1,0.4-0.2,0.5-0.4c0,0-0.1-0.1-0.1-0.1
			C84.3,88.7,84.1,88.9,84,89z"/>
	</g>
	<g id="XMLID_517_">
		<path id="XMLID_518_" class="st0" d="M66.6,97.2c0.4-0.3,0.8-0.3,1.1-0.1c0.7,0.3,1.5,0.7,2.2,1c0.2,0.1,0.5,0.2,0.8,0.2
			c0.4,0.1,0.7,0.2,1,0.6c0.1-0.1,0.1-0.2,0.1-0.2c1.9,0.3,3.7,0.7,5.6,0.9c0.4,0,0.7,0,1.1,0c0,0,0.1,0,0.1,0
			c0.1-0.2,0.4-0.2,0.6-0.2c0.5,0,0.9,0,1.4-0.1c0.2,0,0.4,0,0.3,0.3c0,0,0,0.1,0,0.2c-0.8,0.4-1.6,0.3-2.4,0c0,0.1,0,0.2,0,0.3
			c-1.4,0.3-6.1-0.4-6.7-0.9c-0.2,0-0.3,0.1-0.4,0c-0.3-0.1-0.5-0.2-0.8-0.3c0,0,0,0,0,0c-0.6-0.2-1.3-0.4-1.9-0.6c0,0-0.1,0-0.1,0
			c-0.5-0.3-1-0.4-1.5-0.7C66.8,97.3,66.7,97.3,66.6,97.2z"/>
	</g>
	<g id="XMLID_515_">
		<path id="XMLID_516_" class="st0" d="M100.4,66.9c-0.3,0.1-0.5,0.2-0.7,0.3c0-0.1-0.1-0.2-0.1-0.3c-0.6-1.8-1.6-3.4-2.7-4.9
			c-0.8-1.1-1.8-2.2-2.7-3.3c-0.1-0.1-0.2-0.1-0.4-0.2c0.1-0.1,0.2-0.3,0.3-0.5c0,0,0.2,0,0.2,0c1.7,1.4,3.1,3.1,4.2,5
			c0.7,1.1,1.3,2.3,1.8,3.5C100.3,66.7,100.3,66.8,100.4,66.9z"/>
	</g>
	<g id="XMLID_513_">
		<path id="XMLID_514_" class="st0" d="M101.4,82.4c0.1-0.4,0.3-0.9,0.3-1.3c0.1-0.7,0.2-1.3,0.3-2c0-0.2,0.1-0.3,0.2-0.2
			c0-0.5,0-0.9,0-1.4c0.5-0.1,1-0.2,1.5-0.2c-0.1,0.3,0.1,0.7-0.2,0.9c0,0,0,0.1,0,0.2c0.2,0.9,0,1.8-0.3,2.7
			c-0.1,0.4-0.2,0.9-0.3,1.3C102.4,82.4,101.9,82.4,101.4,82.4z"/>
	</g>
	<g id="XMLID_511_">
		<path id="XMLID_512_" class="st0" d="M59,73.7c-0.4,0.1-0.8,0.2-1.2,0.3c0.1-0.6,0.2-1.2,0.3-1.8c0.2-1.3,0.6-2.5,1-3.8
			c0.2-0.4,0.4-0.6,0.8-0.6c0.5,0,0.5,0,0.4,0.5c-0.1,0.2-0.1,0.5-0.2,0.7c-0.2,0.5-0.4,1.1-0.6,1.6C59.4,71.6,59,72.6,59,73.7z"/>
	</g>
	<g id="XMLID_509_">
		<path id="XMLID_510_" class="st0" d="M59.4,83.2c0.3,0.3,0.6,0.5,0.8,0.8c0.2,0.2,0.6,0.1,0.7,0.4c0,0,0.1,0,0.2,0
			c0.3,0.5,0.5,1,0.8,1.5c0.2,0.5,0.5,1,0.7,1.5c0.1-0.1,0.1-0.2,0.2-0.3c0.2,0.3,0.3,0.5,0.1,0.8c-0.2,0.3-0.2,0.7-0.3,1.1
			c-0.3-0.4-0.7-0.8-1-1.3c-0.1-0.1-0.1-0.3-0.1-0.5c0-0.2,0-0.3-0.2-0.3c-0.4-0.2-0.6-0.5-0.8-0.8c-0.3-0.4-0.5-0.9-0.8-1.3
			c-0.2-0.4-0.4-0.8-0.6-1.2C59.3,83.4,59.4,83.3,59.4,83.2z"/>
	</g>
	<g id="XMLID_507_">
		<path id="XMLID_508_" class="st0" d="M61.1,67.1c-0.1,0-0.1-0.1-0.2-0.1c0,0.2,0,0.3,0,0.5c-0.4,0-0.8-0.1-1.2-0.1
			c0.1-0.4,0.1-0.8,0.5-0.8c0.1-0.2,0.1-0.4,0.2-0.5c0.1-0.3,0.3-0.5,0.4-0.8c0.2-0.2,0.4-0.4,0.6-0.6c0.2-0.1,0.3-0.2,0.2-0.4
			c-0.1-0.2,0-0.5,0.2-0.7c0.3-0.4,0.6-0.8,1-1.3c0.1,0.1,0.1,0.2,0.2,0.4c0.1,0.6,0.4,1.1-0.1,1.7c-0.1-0.1-0.2-0.2-0.2-0.2
			C62.1,65.1,61.6,66.1,61.1,67.1z"/>
	</g>
	<g id="XMLID_505_">
		<path id="XMLID_506_" class="st0" d="M79.5,52.2c0.2-0.2,0.4-0.3,0.6-0.5c0.1,0,0.2-0.1,0.2-0.1c1,0,1.9,0.2,2.8,0.5
			c0.1,0,0.1,0.1,0.1,0.1c0,0.1,0,0.1,0,0.1c0.1,0,0.2-0.1,0.3-0.1c0.5,0.1,0.9,0.1,1.4,0.3c0.9,0.3,1.8,0.6,2.7,1
			c0.1,0,0.2,0.1,0.4,0.1c-0.3,0.4-0.6,0.6-1.1,0.3c-0.7-0.3-1.4-0.6-2.2-0.8c-0.4-0.1-0.9-0.4-1.3-0.6c-0.1,0-0.1-0.1-0.2-0.1
			c-0.8,0.1-1.6-0.1-2.4-0.2C80.4,52.3,80,52.2,79.5,52.2z"/>
	</g>
	<g id="XMLID_503_">
		<path id="XMLID_504_" class="st0" d="M59.9,74c-0.1-0.1-0.2-0.1-0.3-0.2c-0.4-0.1-0.4-0.3-0.3-0.6c0.2-0.7,0.3-1.4,0.5-2.1
			c0.3-1.1,0.6-2.2,1.1-3.2c0.1-0.1,0.1-0.3,0.1-0.4c0.1,0,0.2,0,0.3,0c0-0.7,0.3-1.2,0.8-1.7c0.1-0.1,0.2-0.3,0.2-0.5
			c0.1-0.3,0.3-0.4,0.6-0.4c0,0.2,0,0.5-0.1,0.7c-0.3,0.5-0.6,1-0.9,1.5c-0.2,0.2-0.3,0.5-0.5,0.7c0,0-0.1,0.1-0.1,0.1
			c0,0.4-0.2,0.7-0.4,1.1c0,0.1-0.1,0.1-0.1,0.2c-0.2,0.7-0.4,1.5-0.6,2.2c-0.1,0.7-0.2,1.5-0.3,2.3C59.9,73.8,59.9,73.9,59.9,74z"
			/>
	</g>
	<g id="XMLID_501_">
		<path id="XMLID_502_" class="st0" d="M68,58.1c0.4-0.1,0.9-0.3,1.3-0.4c0.1,0,0.1,0,0.2-0.1c0.2-0.1,0.4-0.3,0.7-0.4
			c0.8-0.3,1.6-0.6,2.4-0.8c0.3-0.1,0.7-0.1,1.1-0.2c0.1,0.4,0.1,0.8,0.2,1.1c-0.6,0.1-1.1,0.2-1.7-0.1c-0.2-0.1-0.3-0.1-0.5-0.2
			c-0.2,0-0.2,0.1-0.3,0.3c0,0.3-0.1,0.5-0.1,0.8c-0.3-0.1-0.5-0.1-0.7-0.1c0.1,0.1,0.2,0.2,0.2,0.3c-0.3,0.1-0.6,0.3-0.9,0.4
			c0,0-0.1,0-0.2,0c-0.5-0.3-1-0.5-1.6-0.4C68.1,58.2,68,58.1,68,58.1z"/>
	</g>
	<g id="XMLID_499_">
		<path id="XMLID_500_" class="st0" d="M101,85.7c0.6,0.1,0.5-0.5,0.8-0.8c-0.1,0-0.2,0-0.4,0c-0.4,0-0.6-0.1-0.5-0.5
			c0.1-0.3,0.2-0.5,0.3-0.8c0.1-0.3,0.2-0.6,0.3-0.9c0.1-0.2,0.2-0.3,0.4-0.2c0.7,0.1,0.9,0.5,0.7,1.2c-0.1,0.1-0.1,0.3-0.1,0.5
			c0.1,0.4,0,0.8-0.2,1.1c-0.2,0.3-0.3,0.5-0.4,0.8c-0.1,0.1-0.2,0.2-0.3,0.3C101.5,86.2,101.3,86,101,85.7z"/>
	</g>
	<g id="XMLID_497_">
		<path id="XMLID_498_" class="st0" d="M68.8,99.7c-0.2,0.1-0.3,0.2-0.5,0.3c-0.7-0.3-1.5-0.6-2.2-1c-0.2-0.1-0.4-0.3-0.6-0.5
			c0.2-0.1,0.3-0.2,0.4-0.3c0.1,0.1,0.2,0.1,0.3,0.2c0-0.3-0.4-0.5-0.2-0.8c-0.1,0-0.1-0.1-0.2-0.1c0,0,0.1-0.1,0.1-0.1
			c0.4,0.1,0.7,0.1,1.1,0.2c0.5,0.2,1,0.5,1.2,1C68.4,99.1,68.6,99.4,68.8,99.7z"/>
	</g>
	<g id="XMLID_495_">
		<path id="XMLID_496_" class="st0" d="M97.7,78c-0.1,0.7-0.2,1.4-0.4,2c-0.2,0.5-0.4,1-0.3,1.7c-0.2-0.1-0.3-0.2-0.4-0.2
			c-0.1,0-0.2,0-0.3,0c-0.2,0-0.4,0-0.5,0c0-0.2,0-0.4,0-0.5c0.3-0.8,0.4-1.6,0.5-2.5c0-0.2,0.1-0.2,0.3-0.3
			C96.9,78.2,97.3,78.1,97.7,78z"/>
	</g>
	<g id="XMLID_493_">
		<path id="XMLID_494_" class="st0" d="M95.1,69.6c-0.4-0.1-0.6-0.4-0.7-0.8c-0.4-1.2-1-2.2-1.7-3.2c-0.3-0.4-0.5-0.8-0.8-1.2
			c0,0,0-0.1,0-0.2c0-0.2,0.1-0.4,0.1-0.6c0.2,0.3,0.4,0.5,0.6,0.8c1,1.3,1.8,2.8,2.4,4.3c0.1,0.2,0.1,0.5,0.2,0.7
			C95.2,69.5,95.1,69.6,95.1,69.6L95.1,69.6z"/>
	</g>
	<g id="XMLID_491_">
		<path id="XMLID_492_" class="st0" d="M64.8,95.8c-0.3,0.1-0.6,0.1-0.9-0.1c-0.7-0.5-1.4-1-2-1.6c-0.3-0.3-0.5-0.7-0.7-1.1
			c0.4,0,0.6-0.1,0.8,0.2c0.4,0.4,0.9,0.8,1.4,1.2c0.3,0.2,0.6,0.4,0.9,0.6C64.6,95.2,64.8,95.5,64.8,95.8z"/>
	</g>
	<g id="XMLID_489_">
		<path id="XMLID_490_" class="st0" d="M88.1,54.1c1,0.3,2,0.6,2.9,1.2c0.4,0.3,0.5,0.5,0.6,0.8c-0.3,0.3-0.6,0.2-0.9,0
			c-0.6-0.4-1.3-0.8-1.9-1.1C88.4,54.8,88.2,54.5,88.1,54.1z"/>
	</g>
	<g id="XMLID_487_">
		<path id="XMLID_488_" class="st0" d="M70.3,59.3c-0.2-0.2-0.3-0.3-0.5-0.5c0.5-0.2,0.9-0.5,1.5-0.5c0.1,0,0.2,0,0.2-0.1
			c0.3-0.1,0.7-0.3,1-0.4c0.3-0.1,0.6-0.2,1,0c0-0.1,0-0.2,0.1-0.3c0.3,0,0.5-0.1,0.8-0.1c0.1,0,0.2,0,0.3,0c0.1,0,0.2,0.1,0.2,0.2
			c-0.1,0.1-0.2,0.2-0.2,0.2C74.3,58,74,58,73.7,58c0,0-0.1,0-0.1,0c-0.4,0.4-1,0.3-1.5,0.5c-0.3,0.1-0.7,0.2-0.9,0.4
			C70.9,59.1,70.6,59.2,70.3,59.3z"/>
	</g>
	<g id="XMLID_485_">
		<path id="XMLID_486_" class="st0" d="M99.5,85.8c0-0.2,0-0.4,0.1-0.6c0.3-0.8,0.7-1.5,1-2.3c0.1-0.1,0.2-0.2,0.3-0.3
			c0.1,0.1,0.1,0.2,0.2,0.4c0.1,0.9-0.3,1.7-0.8,2.4C100.1,85.6,99.8,85.7,99.5,85.8C99.6,85.9,99.6,85.8,99.5,85.8z"/>
	</g>
	<g id="XMLID_483_">
		<path id="XMLID_484_" class="st0" d="M95.2,81.8c0,0.1,0.1,0.2,0.1,0.3c-0.2,0.5-0.4,1.1-0.6,1.6c-0.3,0.6-0.6,1.2-1,1.8
			c-0.1-0.3-0.2-0.5-0.2-0.7c0-0.1,0-0.2,0-0.2c0.3-0.7,0.7-1.5,1-2.2C94.6,82.1,94.9,82,95.2,81.8L95.2,81.8z"/>
	</g>
	<g id="XMLID_481_">
		<path id="XMLID_482_" class="st0" d="M71,94.5c1.1-0.5,2.1-0.6,2.9-0.4c-0.1,0.3-0.1,0.7-0.2,1.1c-0.1-0.1-0.2-0.1-0.2-0.2
			c-0.1-0.1-0.1-0.2-0.2-0.3c0,0.1,0,0.2,0,0.4C72.5,95.1,71.8,94.8,71,94.5z"/>
	</g>
	<g id="XMLID_479_">
		<path id="XMLID_480_" class="st0" d="M95.2,81.8c-0.2-0.1-0.3-0.3-0.2-0.6c0.2-0.9,0.4-1.8,0.6-2.7c0-0.1,0.1-0.2,0.1-0.4
			c0.2,0.1,0.3,0.1,0.5,0.2c-0.1,0.3-0.1,0.7-0.2,1c-0.1,0.6-0.3,1.3-0.5,1.9C95.5,81.4,95.4,81.7,95.2,81.8
			C95.2,81.8,95.2,81.8,95.2,81.8z"/>
	</g>
	<g id="XMLID_477_">
		<path id="XMLID_478_" class="st0" d="M74.4,52.4c0-0.2,0-0.2,0-0.3c0-0.3,0.1-0.4,0.4-0.4c0.6-0.1,1.2-0.1,1.8-0.2
			c0.2,0,0.4,0.2,0.5,0.4c0,0.2-0.1,0.3-0.3,0.3C75.9,52.2,75.2,52.3,74.4,52.4z"/>
	</g>
	<g id="XMLID_475_">
		<path id="XMLID_476_" class="st0" d="M55.5,84.5c0.8,0.4,0.9,1.1,1.1,1.8c0.1,0.2,0.1,0.4,0.2,0.6c0,0.2-0.1,0.3-0.2,0.2
			c-0.2-0.2-0.4-0.3-0.6-0.5c-0.3-0.5-0.5-0.9-0.8-1.4c0-0.1,0-0.2,0-0.3C55.3,84.7,55.4,84.6,55.5,84.5z"/>
	</g>
	<g id="XMLID_473_">
		<path id="XMLID_474_" class="st0" d="M100.9,82.1c-0.1-0.2-0.1-0.3-0.1-0.4c-0.1-0.2-0.1-0.4-0.2-0.6c0-0.1,0-0.1,0-0.2
			c0.3-0.5,0.3-1,0.4-1.5c0-0.3,0.1-0.5,0.5-0.5C101.7,79.9,101.6,81,100.9,82.1z"/>
	</g>
	<g id="XMLID_471_">
		<path id="XMLID_472_" class="st0" d="M98.7,88.9c-0.3,0-0.4,0.1-0.4,0.3c-0.1,0.4-0.3,0.7-0.6,0.9c-0.1,0-0.2,0.1-0.3,0
			c-0.1,0-0.1-0.2-0.1-0.3c0.1-0.5,0.3-0.9,0.6-1.2c0.1-0.1,0.2-0.2,0.2-0.4c0-0.3,0.3-0.5,0.6-0.4c0.1,0,0.1,0.1,0.1,0.2
			C98.7,88.3,98.7,88.6,98.7,88.9z"/>
	</g>
	<g id="XMLID_469_">
		<path id="XMLID_470_" class="st0" d="M90.6,96.5c-0.2-0.2-0.3-0.1-0.5,0.1c-0.2,0.3-0.5,0.5-0.9,0.5c-0.1,0-0.3,0-0.3-0.1
			c0-0.1,0-0.2,0.1-0.3c0.3-0.4,0.6-0.6,1.1-0.7c0.1,0,0.2-0.1,0.3-0.2c0.2-0.3,0.5-0.3,0.7-0.1c0,0,0.1,0.2,0,0.2
			C90.9,96,90.8,96.2,90.6,96.5z"/>
	</g>
	<g id="XMLID_467_">
		<path id="XMLID_468_" class="st0" d="M92.7,94.1c0.2-0.3,0.4-0.5,0.7-0.8c0.1-0.1,0.2-0.2,0.3-0.3c0.5-0.4,0.7-0.4,1.2,0
			C94,93.9,93.3,94.4,92.7,94.1z"/>
	</g>
	<g id="XMLID_465_">
		<path id="XMLID_466_" class="st0" d="M60.4,59.1c-0.1,0.4-0.2,0.7-0.3,1.1c-0.1,0-0.2-0.1-0.3-0.1c-0.1,0.3-0.2,0.5-0.4,0.8
			c-0.1,0.2-0.3,0.2-0.5,0.1c-0.1,0-0.1-0.2-0.1-0.3c0-0.1,0-0.2,0.1-0.4c0.1-0.4,0.3-0.6,0.7-0.5C59.6,59.3,59.8,59.1,60.4,59.1z"
			/>
	</g>
	<g id="XMLID_463_">
		<path id="XMLID_464_" class="st0" d="M74.2,51.5c-0.5,0-0.9,0.2-1.3-0.1c-0.2-0.1-0.3-0.4-0.1-0.5c0.1-0.1,0.3-0.3,0.4-0.4
			c0.3-0.2,0.3-0.2,0.7-0.2C74.1,50.7,74.1,51.1,74.2,51.5z"/>
	</g>
	<g id="XMLID_461_">
		<path id="XMLID_462_" class="st0" d="M62.9,86.4c-0.3,0-0.5-0.1-0.6-0.3c-0.1-0.3-0.3-0.5-0.4-0.7c-0.2-0.3-0.4-0.7-0.6-1.1
			c0.2,0,0.4-0.1,0.5-0.1c0.1,0,0.2,0.1,0.2,0.2c0.3,0.4,0.5,0.9,0.8,1.3C63,86,63,86.2,62.9,86.4z"/>
	</g>
	<g id="XMLID_459_">
		<path id="XMLID_460_" class="st0" d="M73.6,93.9c0-0.1,0-0.2,0-0.2c-0.3,0-0.7,0-1-0.1c0.2-0.6,0.6-0.6,1-0.3c0,0,0.1,0,0.2,0.1
			c0.3,0,0.7,0.1,1,0.1c0.1,0,0.2,0.1,0.2,0.2c0,0.1-0.1,0.2-0.2,0.2c-0.1,0-0.3,0-0.4,0C74.1,94,73.9,93.9,73.6,93.9z"/>
	</g>
	<g id="XMLID_457_">
		<path id="XMLID_458_" class="st0" d="M75.2,93.6c0.5,0,0.9,0.1,1.3,0.1c0.1,0,0.3,0,0.4,0.1c0.1,0,0.3,0.1,0.2,0.3
			c0,0.2-0.1,0.3-0.4,0.3c-0.4,0-0.8-0.1-1.2-0.1C75.2,94.2,75.2,94.1,75.2,93.6z"/>
	</g>
	<g id="XMLID_455_">
		<path id="XMLID_456_" class="st0" d="M75.2,57.8c-0.1-0.5,0-0.6,0.4-0.6c0.4,0,0.8-0.1,1.2-0.1c0.2,0,0.3,0.1,0.4,0.3
			c0,0.1-0.1,0.2-0.2,0.3C76.4,57.7,75.8,57.8,75.2,57.8z"/>
	</g>
	<g id="XMLID_453_">
		<path id="XMLID_454_" class="st0" d="M66.4,97.2c-0.2-0.1-0.3-0.2-0.4-0.3c-0.2-0.1-0.3-0.3-0.5-0.3c-0.2-0.1-0.2-0.2-0.2-0.4
			c0-0.1,0.2-0.2,0.3-0.2c0.3,0.1,0.5,0.1,0.7,0.3C66.6,96.5,66.6,96.8,66.4,97.2z"/>
	</g>
	<g id="XMLID_451_">
		<path id="XMLID_452_" class="st0" d="M82,99.4c0.3-0.7,1.2-0.9,1.6-0.3c-0.1,0.1-0.1,0.3-0.2,0.3c-0.3,0.1-0.6,0.1-0.8,0.2
			C82.4,99.6,82.2,99.4,82,99.4z"/>
	</g>
	<g id="XMLID_449_">
		<path id="XMLID_450_" class="st0" d="M51.5,75c0-0.3,0-0.6,0-0.9c0.5,0.1,0.9,0.2,1.4,0.3c0.1,0,0.1,0.1,0.2,0.2
			C52.6,74.7,52.1,74.8,51.5,75z"/>
	</g>
	<g id="XMLID_447_">
		<path id="XMLID_448_" class="st0" d="M74.9,56.2c0,0.3,0.1,0.6,0.1,1c-0.3,0-0.6,0-0.9-0.1c-0.2-0.1-0.3-0.3-0.1-0.4
			C74.3,56.5,74.5,56.1,74.9,56.2z"/>
	</g>
	<g id="XMLID_445_">
		<path id="XMLID_446_" class="st0" d="M75.1,94.2c0,0.4-0.1,0.7-0.1,1.1c-0.2-0.1-0.3-0.1-0.5-0.2c-0.2-0.1-0.3-0.2-0.4-0.4
			c-0.2-0.2-0.1-0.3,0.1-0.4C74.4,94.3,74.7,94.3,75.1,94.2z"/>
	</g>
	<g id="XMLID_443_">
		<path id="XMLID_444_" class="st0" d="M54.9,85.2c0.1,0.2,0.2,0.5,0.4,0.7c-0.6-0.1-1.1-0.4-1.7-0.1c0-0.1-0.1-0.2-0.1-0.3
			C53.9,85.4,54.4,85.3,54.9,85.2z"/>
	</g>
	<g id="XMLID_441_">
		<path id="XMLID_442_" class="st0" d="M85,98.6c-0.3,0.4-0.7,0.6-1.3,0.4c0.1-0.3,0.2-0.6,0.6-0.7C84.5,98.2,84.7,98.4,85,98.6z"/>
	</g>
	<g id="XMLID_439_">
		<path id="XMLID_440_" class="st0" d="M95.1,69.6c0.4,0.2,0.5,0.6,0.5,0.9c0,0.2-0.2,0.3-0.3,0.5c-0.2-0.4-0.4-0.7-0.4-1.1
			C94.9,69.8,95,69.7,95.1,69.6C95.1,69.6,95.1,69.6,95.1,69.6z"/>
	</g>
	<g id="XMLID_437_">
		<path id="XMLID_438_" class="st0" d="M102.1,69.5c0.1-0.5,0.2-1,0.3-1.5c0.1,0,0.2,0,0.3,0c0,0.3,0,0.6,0.1,1c0,0.1,0,0.1-0.1,0.2
			C102.5,69.3,102.3,69.4,102.1,69.5z"/>
	</g>
	<g id="XMLID_435_">
		<path id="XMLID_436_" class="st0" d="M95.7,92.1c0-0.7,0.3-1,0.9-1C96.7,91.5,96.4,91.9,95.7,92.1z"/>
	</g>
	<g id="XMLID_433_">
		<path id="XMLID_434_" class="st0" d="M85.4,98.6c0-0.4,0.2-0.8,0.6-0.9c0.2-0.1,0.3,0,0.3,0.2C86.2,98.5,86,98.7,85.4,98.6z"/>
	</g>
	<g id="XMLID_431_">
		<path id="XMLID_432_" class="st0" d="M87.8,97.6c-0.2,0.4-0.4,0.5-1.2,0.4C86.8,97.4,87.3,97.2,87.8,97.6z"/>
	</g>
	<g id="XMLID_429_">
		<path id="XMLID_430_" class="st0" d="M63.8,64.2c0,0.2-0.1,0.3-0.3,0.3c-0.2,0-0.2-0.1-0.2-0.3c0-0.2,0.1-0.3,0.1-0.5
			c0,0,0.2-0.1,0.2-0.1C63.7,63.9,63.7,64.1,63.8,64.2z"/>
	</g>
	<g id="XMLID_412_">
		<path id="XMLID_428_" class="st0" d="M53.8,75c-0.1-0.3-0.5-0.2-0.6-0.6c0.3,0,0.5,0,0.8,0.1C54.1,74.7,54.2,74.9,53.8,75z"/>
	</g>
	<g id="XMLID_363_">
		<path id="XMLID_364_" class="st0" d="M96.4,70c-0.2,0.2-0.4,0.3-0.7,0.5c0-0.2-0.1-0.5,0-0.6C95.9,69.8,96.2,70,96.4,70z"/>
	</g>
	<g id="XMLID_361_">
		<path id="XMLID_362_" class="st0" d="M81.4,99.4c0.1-0.4,0.3-0.5,0.6-0.4c0,0.2,0,0.3,0,0.5C81.8,99.5,81.6,99.4,81.4,99.4z"/>
	</g>
	<g id="XMLID_359_">
		<path id="XMLID_360_" class="st0" d="M96.7,90.9c-0.2-0.3,0-0.5,0.2-0.6C97.1,90.6,97.1,90.8,96.7,90.9z"/>
	</g>
	<g id="XMLID_357_">
		<path id="XMLID_358_" class="st0" d="M87.9,97.4c0-0.3,0.2-0.4,0.4-0.5C88.5,97.4,88.4,97.5,87.9,97.4z"/>
	</g>
	<g id="XMLID_354_">
		<path id="XMLID_356_" class="st0" d="M63.4,62.9c-0.1-0.4-0.2-0.9,0.2-1.4C63.5,62.1,63.4,62.6,63.4,62.9z"/>
	</g>
	<g id="XMLID_352_">
		<path id="XMLID_353_" class="st0" d="M70.5,51.9c0,0.1,0,0.2-0.1,0.3c-0.4-0.1-0.3,0-0.3-0.5C70.2,51.8,70.4,51.9,70.5,51.9z"/>
	</g>
	<g id="XMLID_350_">
		<path id="XMLID_351_" class="st0" d="M89.1,91.1c0,0,0-0.1,0-0.1c0-0.3,0.1-0.4,0.4-0.2c0,0,0,0,0,0C89.4,90.9,89.3,91,89.1,91.1
			C89.1,91.1,89.1,91.1,89.1,91.1z"/>
	</g>
	<g id="XMLID_348_">
		<path id="XMLID_349_" class="st0" d="M72.2,57.5c0,0.1,0,0.2-0.1,0.2c-0.3,0-0.3-0.2-0.2-0.4C72,57.4,72.1,57.4,72.2,57.5z"/>
	</g>
</g>
<path id="XMLID_2_" d="M76.4,75.5c-0.1,0.6,0.3,1.2,0.9,1.3c0.6,0.1,1.2-0.3,1.3-0.9c0.1-0.6-0.3-1.2-0.9-1.3
	C77.2,74.5,76.6,74.9,76.4,75.5"/>
</svg>
